<svg width="252" height="221" viewBox="0 0 252 221" fill="none" xmlns="http://www.w3.org/2000/svg">
<path d="M119.654 130.795C119.654 130.795 184.565 134.303 213.354 125.943C242.143 117.583 242.102 74.1972 213.354 63.5022C184.606 52.8072 174.781 91.0351 174.781 91.0351" stroke="#D0D0D0" stroke-width="16" stroke-linecap="round"/>
<path d="M8.20182 56.0927C8.20182 56.0927 69.6313 77.3567 99.6094 77.2558C129.588 77.155 155.141 51.273 130.455 33.0683C105.769 14.8636 72.1526 33.068 72.1526 33.068" stroke="#D0D0D0" stroke-width="16" stroke-linecap="round"/>
<path d="M8 177.656C8 177.656 105.569 168.841 148.582 177.656C191.595 186.471 177.899 211.756 157.514 212.917C137.129 214.078 118.314 200.679 118.314 200.679" stroke="#D0D0D0" stroke-width="16" stroke-linecap="round"/>
<path d="M57.5839 94.2842H83.2399L68.4949 115.942L85.7389 116.268L49.5389 159.108L58.3089 126.446H42.2549L57.5839 94.2842Z" fill="url(#paint0_linear_7_2761)"/>
<path d="M223.584 143.284H249.24L234.495 164.942L251.739 165.268L215.539 208.108L224.309 175.446H208.255L223.584 143.284Z" fill="url(#paint1_linear_7_2761)"/>
<defs>
<linearGradient id="paint0_linear_7_2761" x1="59.9964" y1="126.696" x2="39.6852" y2="119.249" gradientUnits="userSpaceOnUse">
<stop stop-color="#FFD100"/>
<stop offset="1" stop-color="#FFF0AA"/>
</linearGradient>
<linearGradient id="paint1_linear_7_2761" x1="225.996" y1="175.696" x2="205.685" y2="168.249" gradientUnits="userSpaceOnUse">
<stop stop-color="#FFD100"/>
<stop offset="1" stop-color="#FFF0AA"/>
</linearGradient>
</defs>
</svg>
