<svg width="20" height="20" viewBox="0 0 20 20" fill="none" xmlns="http://www.w3.org/2000/svg">
<path d="M10 10.8335C11.3807 10.8335 12.5 9.71421 12.5 8.3335C12.5 6.95278 11.3807 5.8335 10 5.8335C8.61929 5.8335 7.5 6.95278 7.5 8.3335C7.5 9.71421 8.61929 10.8335 10 10.8335Z" stroke="#E8FCFF" stroke-width="1.8" stroke-linecap="round" stroke-linejoin="round"/>
<path d="M10 1.66675C8.23189 1.66675 6.5362 2.36913 5.28596 3.61937C4.03571 4.86961 3.33334 6.5653 3.33334 8.33342C3.33334 9.91008 3.66834 10.9417 4.58334 12.0834L10 18.3334L15.4167 12.0834C16.3317 10.9417 16.6667 9.91008 16.6667 8.33342C16.6667 6.5653 15.9643 4.86961 14.714 3.61937C13.4638 2.36913 11.7681 1.66675 10 1.66675V1.66675Z" stroke="#E8FCFF" stroke-width="1.8" stroke-linecap="round" stroke-linejoin="round"/>
</svg>
