<svg width="218" height="342" viewBox="0 0 218 342" fill="none" xmlns="http://www.w3.org/2000/svg">
<g filter="url(#filter0_f_7_2803)">
<path d="M67 175C93.5097 175 115 153.51 115 127C115 100.491 93.5097 79.0005 67 79.0005C40.4903 79.0005 19 100.491 19 127C19 153.51 40.4903 175 67 175Z" fill="#FA9E42"/>
<path d="M67 185C99.0325 185 125 159.033 125 127C125 94.968 99.0325 69.0005 67 69.0005C34.9675 69.0005 9 94.968 9 127C9 159.033 34.9675 185 67 185Z" stroke="#FA9E42" stroke-width="10" stroke-linecap="round" stroke-dasharray="1 66"/>
<g filter="url(#filter1_f_7_2803)">
<path d="M61.6227 117.182C78.6364 108.145 88.2607 92.9723 83.1191 83.2921C77.9775 73.6119 60.0171 73.0903 43.0034 82.127C25.9896 91.1638 16.3653 106.337 21.5069 116.017C26.6485 125.697 44.6089 126.219 61.6227 117.182Z" fill="#F8E36F"/>
</g>
</g>
<g filter="url(#filter2_df_7_2803)">
<g filter="url(#filter3_d_7_2803)">
<path d="M84.7543 199.054L84.7543 63.0005C84.7543 53.7179 88.4418 44.8155 95.0056 38.2518C101.569 31.688 110.472 28.0005 119.754 28.0005C129.037 28.0005 137.939 31.688 144.503 38.2518C151.067 44.8155 154.754 53.7179 154.754 63.0005L154.754 201.97C163.831 209.089 170.664 218.673 174.434 229.574C178.205 240.475 178.754 252.232 176.016 263.438C173.278 274.643 167.368 284.822 158.994 292.755C150.621 300.689 140.138 306.041 128.801 308.17C124.687 309.262 120.409 309.601 116.173 309.17C103.402 308.838 91.0694 304.437 80.9722 296.609C70.8749 288.781 63.5396 277.935 60.0341 265.649C56.5286 253.364 57.0358 240.28 61.482 228.302C65.9283 216.325 74.0813 206.079 84.7543 199.056V199.054Z" fill="url(#paint0_linear_7_2803)"/>
<path d="M58.7308 249.189C58.7308 257.029 60.2436 264.644 63.2272 271.821C66.1092 278.754 70.2421 285.005 75.5113 290.402C78.1067 293.061 80.9655 295.485 84.0084 297.609C87.0777 299.75 90.3628 301.605 93.7726 303.122C100.854 306.273 108.4 307.971 116.2 308.169L116.238 308.17L116.276 308.174C117.423 308.291 118.594 308.35 119.755 308.35C122.736 308.35 125.693 307.964 128.545 307.203L128.581 307.193L128.619 307.186C135.358 305.929 141.774 303.521 147.688 300.029C153.479 296.61 158.612 292.258 162.944 287.096C167.309 281.896 170.714 276.046 173.065 269.71C175.498 263.153 176.731 256.248 176.731 249.189C176.731 244.564 176.195 239.958 175.136 235.501C174.107 231.169 172.578 226.949 170.594 222.957C168.644 219.036 166.248 215.323 163.472 211.919C160.712 208.536 157.571 205.453 154.138 202.757L153.755 202.457V201.97L153.755 63.0001C153.755 58.4096 152.857 53.957 151.084 49.766C149.371 45.7174 146.92 42.0811 143.797 38.9583C140.674 35.8355 137.038 33.3839 132.989 31.6715C128.798 29.8988 124.346 29 119.755 29C115.165 29 110.712 29.8988 106.521 31.6715C102.473 33.3839 98.8363 35.8355 95.7135 38.9583C92.5907 42.0811 90.139 45.7174 88.4266 49.766C86.654 53.957 85.7552 58.4096 85.7552 63.0001L85.7552 199.055V199.593L85.3055 199.89C77.3019 205.164 70.6308 212.384 66.0134 220.769C63.6662 225.031 61.8554 229.575 60.6315 234.275C59.3703 239.117 58.7308 244.135 58.7308 249.189ZM57.7308 249.189C57.7308 228.231 68.4737 209.785 84.7552 199.055L84.7552 63.0001C84.7552 43.6699 100.425 28 119.755 28C139.085 28 154.755 43.6699 154.755 63.0001L154.755 201.97C168.744 212.955 177.731 230.023 177.731 249.189C177.731 278.544 156.651 302.975 128.802 308.169C125.916 308.94 122.884 309.35 119.755 309.35C118.546 309.35 117.352 309.289 116.175 309.169C83.756 308.344 57.7308 281.806 57.7308 249.189Z" fill="white" fill-opacity="0.5"/>
</g>
<path d="M118.131 205.581C126.931 205.427 135.579 207.887 142.981 212.648C150.383 217.409 156.207 224.258 159.717 232.33C163.226 240.401 164.263 249.332 162.697 257.993C161.131 266.653 157.032 274.655 150.918 280.986C144.804 287.317 136.95 291.693 128.349 293.561C119.749 295.428 110.787 294.703 102.598 291.478C94.4094 288.252 87.361 282.67 82.3443 275.439C77.3276 268.207 74.5679 259.651 74.4143 250.851C74.2084 239.05 78.6985 227.651 86.8969 219.162C95.0954 210.672 106.331 205.787 118.131 205.581Z" fill="white"/>
<path d="M139.978 138.754H97.9775V211.754H139.978V138.754Z" fill="white"/>
</g>
<defs>
<filter id="filter0_f_7_2803" x="2" y="62.0005" width="130" height="130" filterUnits="userSpaceOnUse" color-interpolation-filters="sRGB">
<feFlood flood-opacity="0" result="BackgroundImageFix"/>
<feBlend mode="normal" in="SourceGraphic" in2="BackgroundImageFix" result="shape"/>
<feGaussianBlur stdDeviation="1" result="effect1_foregroundBlur_7_2803"/>
</filter>
<filter id="filter1_f_7_2803" x="0.12207" y="55.6765" width="104.382" height="87.9563" filterUnits="userSpaceOnUse" color-interpolation-filters="sRGB">
<feFlood flood-opacity="0" result="BackgroundImageFix"/>
<feBlend mode="normal" in="SourceGraphic" in2="BackgroundImageFix" result="shape"/>
<feGaussianBlur stdDeviation="10" result="effect1_foregroundBlur_7_2803"/>
</filter>
<filter id="filter2_df_7_2803" x="37.7305" y="0" width="180.001" height="341.351" filterUnits="userSpaceOnUse" color-interpolation-filters="sRGB">
<feFlood flood-opacity="0" result="BackgroundImageFix"/>
<feColorMatrix in="SourceAlpha" type="matrix" values="0 0 0 0 0 0 0 0 0 0 0 0 0 0 0 0 0 0 127 0" result="hardAlpha"/>
<feOffset dx="10" dy="2"/>
<feGaussianBlur stdDeviation="15"/>
<feColorMatrix type="matrix" values="0 0 0 0 0.258824 0 0 0 0 0.627451 0 0 0 0 0.941176 0 0 0 0.596 0"/>
<feBlend mode="normal" in2="BackgroundImageFix" result="effect1_dropShadow_7_2803"/>
<feBlend mode="normal" in="SourceGraphic" in2="effect1_dropShadow_7_2803" result="shape"/>
<feGaussianBlur stdDeviation="1" result="effect2_foregroundBlur_7_2803"/>
</filter>
<filter id="filter3_d_7_2803" x="37.7305" y="0" width="180.001" height="341.351" filterUnits="userSpaceOnUse" color-interpolation-filters="sRGB">
<feFlood flood-opacity="0" result="BackgroundImageFix"/>
<feColorMatrix in="SourceAlpha" type="matrix" values="0 0 0 0 0 0 0 0 0 0 0 0 0 0 0 0 0 0 127 0" result="hardAlpha"/>
<feOffset dx="10" dy="2"/>
<feGaussianBlur stdDeviation="15"/>
<feColorMatrix type="matrix" values="0 0 0 0 0.501961 0 0 0 0 0.501961 0 0 0 0 0.501961 0 0 0 0.302 0"/>
<feBlend mode="normal" in2="BackgroundImageFix" result="effect1_dropShadow_7_2803"/>
<feBlend mode="normal" in="SourceGraphic" in2="effect1_dropShadow_7_2803" result="shape"/>
</filter>
<linearGradient id="paint0_linear_7_2803" x1="162.611" y1="141.948" x2="44.5631" y2="169.912" gradientUnits="userSpaceOnUse">
<stop stop-color="white" stop-opacity="0.596"/>
<stop offset="1" stop-color="#F7F7F7" stop-opacity="0.204"/>
</linearGradient>
</defs>
</svg>
