<svg width="216" height="342" viewBox="0 0 216 342" fill="none" xmlns="http://www.w3.org/2000/svg">
<g filter="url(#filter0_f_7_2777)">
<path d="M67 178.583C93.5097 178.583 115 157.092 115 130.583C115 104.073 93.5097 82.5825 67 82.5825C40.4903 82.5825 19 104.073 19 130.583C19 157.092 40.4903 178.583 67 178.583Z" fill="#FA9E42"/>
<path d="M67 188.583C99.0325 188.583 125 162.615 125 130.583C125 98.55 99.0325 72.5825 67 72.5825C34.9675 72.5825 9 98.55 9 130.583C9 162.615 34.9675 188.583 67 188.583Z" stroke="#FA9E42" stroke-width="10" stroke-linecap="round" stroke-dasharray="1 66"/>
<g filter="url(#filter1_f_7_2777)">
<path d="M61.6227 120.764C78.6364 111.727 88.2607 96.5543 83.1191 86.8741C77.9775 77.1939 60.0171 76.6723 43.0034 85.7091C25.9896 94.7458 16.3653 109.919 21.5069 119.599C26.6485 129.279 44.6089 129.801 61.6227 120.764Z" fill="#F8E36F"/>
</g>
</g>
<g filter="url(#filter2_df_7_2777)">
<g filter="url(#filter3_d_7_2777)">
<path d="M82.768 199.054L82.768 63.0005C82.768 53.7179 86.4555 44.8155 93.0192 38.2518C99.583 31.688 108.485 28.0005 117.768 28.0005C127.051 28.0005 135.953 31.688 142.517 38.2518C149.08 44.8155 152.768 53.7179 152.768 63.0005L152.768 201.97C161.845 209.089 168.677 218.673 172.448 229.574C176.219 240.475 176.768 252.232 174.03 263.438C171.291 274.643 165.382 284.822 157.008 292.755C148.634 300.689 138.152 306.041 126.815 308.17C122.7 309.262 118.422 309.601 114.187 309.17C101.415 308.838 89.0831 304.437 78.9858 296.609C68.8886 288.781 61.5533 277.935 58.0477 265.649C54.5422 253.364 55.0495 240.28 59.4957 228.302C63.9419 216.325 72.095 206.079 82.768 199.056V199.054Z" fill="url(#paint0_linear_7_2777)"/>
<path d="M56.7445 249.189C56.7445 257.029 58.2573 264.644 61.2409 271.821C64.1228 278.754 68.2558 285.005 73.5249 290.402C76.1203 293.061 78.9791 295.485 82.0221 297.609C85.0913 299.75 88.3765 301.605 91.7863 303.122C98.8681 306.273 106.414 307.971 114.214 308.169L114.252 308.17L114.289 308.174C115.437 308.291 116.608 308.35 117.769 308.35C120.75 308.35 123.707 307.964 126.558 307.203L126.595 307.193L126.633 307.186C133.372 305.929 139.788 303.521 145.701 300.029C151.492 296.61 156.625 292.258 160.958 287.096C165.323 281.896 168.728 276.046 171.079 269.71C173.512 263.153 174.745 256.248 174.745 249.189C174.745 244.564 174.208 239.958 173.149 235.501C172.12 231.169 170.592 226.949 168.607 222.957C166.658 219.036 164.262 215.323 161.486 211.919C158.725 208.536 155.585 205.453 152.151 202.757L151.769 202.457V201.97L151.769 63.0001C151.769 58.4096 150.87 53.957 149.098 49.766C147.385 45.7174 144.934 42.0811 141.811 38.9583C138.688 35.8355 135.052 33.3839 131.003 31.6715C126.812 29.8988 122.359 29 117.769 29C113.178 29 108.726 29.8988 104.535 31.6715C100.486 33.3839 96.85 35.8355 93.7272 38.9583C90.6043 42.0811 88.1527 45.7174 86.4403 49.766C84.6676 53.957 83.7688 58.4096 83.7688 63.0001L83.7688 199.055V199.593L83.3191 199.89C75.3156 205.164 68.6445 212.384 64.0271 220.769C61.6798 225.031 59.8691 229.575 58.6452 234.275C57.384 239.117 56.7445 244.135 56.7445 249.189ZM55.7445 249.189C55.7445 228.231 66.4874 209.785 82.7688 199.055L82.7688 63.0001C82.7688 43.6699 98.4387 28 117.769 28C137.099 28 152.769 43.6699 152.769 63.0001L152.769 201.97C166.758 212.955 175.745 230.023 175.745 249.189C175.745 278.544 154.665 302.975 126.816 308.169C123.93 308.94 120.898 309.35 117.769 309.35C116.56 309.35 115.366 309.289 114.188 309.169C81.7697 308.344 55.7445 281.806 55.7445 249.189Z" fill="white" fill-opacity="0.5"/>
</g>
<path d="M71.0068 250.559C71.0048 242.096 73.3375 233.797 77.7483 226.574C82.1592 219.351 88.4771 213.485 96.0068 209.621V62.5593C96.0068 59.8016 96.55 57.0708 97.6054 54.523C98.6607 51.9751 100.208 49.6601 102.158 47.7101C106.096 43.7718 111.437 41.5593 117.007 41.5593C119.765 41.5593 122.495 42.1025 125.043 43.1579C127.591 44.2132 129.906 45.7601 131.856 47.7101C133.806 49.6601 135.353 51.9751 136.408 54.523C137.464 57.0708 138.007 59.8016 138.007 62.5593V209.621C145.276 213.351 151.421 218.951 155.81 225.843C160.198 232.735 162.671 240.672 162.975 248.837C163.279 257.002 161.402 265.101 157.539 272.301C153.675 279.5 147.963 285.541 140.991 289.801C134.019 294.061 126.037 296.387 117.868 296.54C109.699 296.693 101.636 294.667 94.5091 290.671C87.3822 286.675 81.4484 280.853 77.3178 273.803C73.1871 266.753 71.0088 258.73 71.0068 250.559Z" fill="white"/>
</g>
<defs>
<filter id="filter0_f_7_2777" x="2" y="65.5825" width="130" height="130" filterUnits="userSpaceOnUse" color-interpolation-filters="sRGB">
<feFlood flood-opacity="0" result="BackgroundImageFix"/>
<feBlend mode="normal" in="SourceGraphic" in2="BackgroundImageFix" result="shape"/>
<feGaussianBlur stdDeviation="1" result="effect1_foregroundBlur_7_2777"/>
</filter>
<filter id="filter1_f_7_2777" x="0.12207" y="59.2585" width="104.382" height="87.9563" filterUnits="userSpaceOnUse" color-interpolation-filters="sRGB">
<feFlood flood-opacity="0" result="BackgroundImageFix"/>
<feBlend mode="normal" in="SourceGraphic" in2="BackgroundImageFix" result="shape"/>
<feGaussianBlur stdDeviation="10" result="effect1_foregroundBlur_7_2777"/>
</filter>
<filter id="filter2_df_7_2777" x="35.7441" y="0" width="180.001" height="341.351" filterUnits="userSpaceOnUse" color-interpolation-filters="sRGB">
<feFlood flood-opacity="0" result="BackgroundImageFix"/>
<feColorMatrix in="SourceAlpha" type="matrix" values="0 0 0 0 0 0 0 0 0 0 0 0 0 0 0 0 0 0 127 0" result="hardAlpha"/>
<feOffset dx="10" dy="2"/>
<feGaussianBlur stdDeviation="15"/>
<feColorMatrix type="matrix" values="0 0 0 0 0.258824 0 0 0 0 0.627451 0 0 0 0 0.941176 0 0 0 0.596 0"/>
<feBlend mode="normal" in2="BackgroundImageFix" result="effect1_dropShadow_7_2777"/>
<feBlend mode="normal" in="SourceGraphic" in2="effect1_dropShadow_7_2777" result="shape"/>
<feGaussianBlur stdDeviation="1" result="effect2_foregroundBlur_7_2777"/>
</filter>
<filter id="filter3_d_7_2777" x="35.7441" y="0" width="180.001" height="341.351" filterUnits="userSpaceOnUse" color-interpolation-filters="sRGB">
<feFlood flood-opacity="0" result="BackgroundImageFix"/>
<feColorMatrix in="SourceAlpha" type="matrix" values="0 0 0 0 0 0 0 0 0 0 0 0 0 0 0 0 0 0 127 0" result="hardAlpha"/>
<feOffset dx="10" dy="2"/>
<feGaussianBlur stdDeviation="15"/>
<feColorMatrix type="matrix" values="0 0 0 0 0.501961 0 0 0 0 0.501961 0 0 0 0 0.501961 0 0 0 0.302 0"/>
<feBlend mode="normal" in2="BackgroundImageFix" result="effect1_dropShadow_7_2777"/>
<feBlend mode="normal" in="SourceGraphic" in2="effect1_dropShadow_7_2777" result="shape"/>
</filter>
<linearGradient id="paint0_linear_7_2777" x1="160.625" y1="141.948" x2="42.5768" y2="169.912" gradientUnits="userSpaceOnUse">
<stop stop-color="white" stop-opacity="0.596"/>
<stop offset="1" stop-color="#F7F7F7" stop-opacity="0.204"/>
</linearGradient>
</defs>
</svg>
