<svg width="345" height="331" viewBox="0 0 345 331" fill="none" xmlns="http://www.w3.org/2000/svg">
<g filter="url(#filter0_f_7_9)">
<path d="M113.253 199.834C113.781 200.318 102.713 224.126 96.2805 231.525C89.8485 238.924 81.9394 242.575 78.6127 239.683C75.2859 236.791 77.7997 228.452 84.2323 221.052C90.665 213.652 112.724 199.351 113.253 199.834Z" fill="#42A0F0"/>
<path d="M85.3776 226.023C86.0238 227.057 88.2608 226.825 90.3741 225.504C92.4873 224.184 93.6766 222.275 93.0304 221.241C92.3842 220.207 90.1472 220.439 88.034 221.759C85.9207 223.08 84.7314 224.988 85.3776 226.023Z" fill="white"/>
<path d="M181.253 199.834C181.781 200.318 170.713 224.126 164.281 231.525C157.849 238.924 149.939 242.575 146.613 239.683C143.286 236.791 145.8 228.452 152.232 221.052C158.665 213.652 180.724 199.351 181.253 199.834Z" fill="#42A0F0"/>
<path d="M153.378 226.023C154.024 227.057 156.261 226.825 158.374 225.504C160.487 224.184 161.677 222.275 161.03 221.241C160.384 220.207 158.147 220.439 156.034 221.759C153.921 223.08 152.731 224.988 153.378 226.023Z" fill="white"/>
<path d="M189.253 249.834C189.781 250.318 178.713 274.126 172.281 281.525C165.849 288.924 157.939 292.575 154.613 289.683C151.286 286.791 153.8 278.452 160.232 271.052C166.665 263.652 188.724 249.351 189.253 249.834Z" fill="#42A0F0"/>
<path d="M161.378 276.023C162.024 277.057 164.261 276.825 166.374 275.504C168.487 274.184 169.677 272.275 169.03 271.241C168.384 270.207 166.147 270.439 164.034 271.759C161.921 273.08 160.731 274.988 161.378 276.023Z" fill="white"/>
<path d="M272.253 249.834C272.781 250.318 261.713 274.126 255.281 281.525C248.849 288.924 240.939 292.575 237.613 289.683C234.286 286.791 236.8 278.452 243.232 271.052C249.665 263.652 271.724 249.351 272.253 249.834Z" fill="#42A0F0"/>
<path d="M244.378 276.023C245.024 277.057 247.261 276.825 249.374 275.504C251.487 274.184 252.677 272.275 252.03 271.241C251.384 270.207 249.147 270.439 247.034 271.759C244.921 273.08 243.731 274.988 244.378 276.023Z" fill="white"/>
<path d="M212.253 285.834C212.781 286.318 201.713 310.126 195.281 317.525C188.849 324.924 180.939 328.575 177.613 325.683C174.286 322.791 176.8 314.452 183.232 307.052C189.665 299.652 211.724 285.351 212.253 285.834Z" fill="#42A0F0"/>
<path d="M184.378 312.023C185.024 313.057 187.261 312.825 189.374 311.504C191.487 310.184 192.677 308.275 192.03 307.241C191.384 306.207 189.147 306.439 187.034 307.759C184.921 309.08 183.731 310.988 184.378 312.023Z" fill="white"/>
<path d="M136.253 285.834C136.781 286.318 125.713 310.126 119.281 317.525C112.849 324.924 104.939 328.575 101.613 325.683C98.2859 322.791 100.8 314.452 107.232 307.052C113.665 299.652 135.724 285.351 136.253 285.834Z" fill="#42A0F0"/>
<path d="M108.378 312.023C109.024 313.057 111.261 312.825 113.374 311.504C115.487 310.184 116.677 308.275 116.03 307.241C115.384 306.207 113.147 306.439 111.034 307.759C108.921 309.08 107.731 310.988 108.378 312.023Z" fill="white"/>
</g>
<path d="M106.986 242.557H127.536L115.722 259.905L129.535 260.167L100.547 294.481L107.567 268.319H94.707L106.986 242.557Z" fill="url(#paint0_linear_7_9)"/>
<path d="M226.986 211.557H247.536L235.722 228.905L249.535 229.167L220.547 263.481L227.567 237.319H214.707L226.986 211.557Z" fill="url(#paint1_linear_7_9)"/>
<g filter="url(#filter1_f_7_9)">
<path d="M90.4871 175.295C75.2648 175.316 60.3896 170.749 47.8011 162.19C36.3708 154.443 27.2385 143.76 21.3639 131.264C15.4893 118.767 13.0894 104.919 14.4163 91.1747C15.7433 77.4302 20.7481 64.297 28.9048 53.1553C37.0615 42.0136 48.0689 33.2747 60.7701 27.8573C70.1664 23.8593 80.2757 21.808 90.4871 21.8273C93.468 21.8274 96.4463 22.0003 99.4071 22.3453C97.6809 26.1198 96.3602 30.0669 95.4671 34.1203C94.5492 38.3038 94.0869 42.5743 94.0881 46.8573C94.069 58.6104 97.578 70.0988 104.161 79.8353C108.405 86.1152 113.813 91.5234 120.093 95.7673C123.249 97.8992 126.605 99.7203 130.112 101.205C137.375 104.279 145.184 105.856 153.071 105.84C157.634 105.842 162.182 105.317 166.624 104.275C165.576 118.709 160.46 132.551 151.869 144.197C149.09 147.965 145.974 151.473 142.559 154.676C128.467 167.939 109.839 175.315 90.4871 175.295Z" fill="#713FFD"/>
</g>
<g filter="url(#filter2_f_7_9)">
<path d="M77.0538 88.0079C94.1916 72.5769 99.5265 50.5629 88.9695 38.8382C78.4126 27.1136 55.9615 30.1181 38.8237 45.549C21.6859 60.98 16.3511 82.994 26.908 94.7187C37.465 106.443 59.916 103.439 77.0538 88.0079Z" fill="#A586FC"/>
</g>
<g filter="url(#filter3_f_7_9)">
<path d="M52.9863 2L55.5513 8.2L62.4863 10.5L55.5513 12.8L52.9863 19L50.4213 12.8L43.4863 10.5L50.4213 8.2L52.9863 2Z" fill="url(#paint2_linear_7_9)"/>
<path d="M167.486 149L169.646 154.11L175.486 156L169.646 157.89L167.486 163L165.326 157.89L159.486 156L165.326 154.11L167.486 149Z" fill="url(#paint3_linear_7_9)"/>
<path d="M133.488 21.6057L137.03 26.2477L143.344 26.6257L138.066 30.1117L137.322 35.9025L133.781 31.2501L127.467 30.8721L132.745 27.3861L133.488 21.6057Z" fill="url(#paint4_linear_7_9)"/>
<path d="M7.1838 137.602L11.0048 141.197L16.9482 140.602L12.3921 144.465L12.3231 149.707L8.51299 146.109L2.56965 146.704L7.1265 142.843L7.1838 137.602Z" fill="url(#paint5_linear_7_9)"/>
<path d="M130.152 73.0383L125.952 73.8895L123.468 78.2421L123.142 73.2408L119.741 70.6349L123.943 69.7863L126.427 65.4335L126.75 70.4344L130.152 73.0383Z" fill="url(#paint6_linear_7_9)"/>
</g>
<g filter="url(#filter4_df_7_9)">
<path d="M224.78 230.765C222.847 230.92 220.894 230.999 218.923 231H81.3989C71.9327 231.035 62.5526 229.201 53.7968 225.603C45.041 222.005 37.0817 216.714 30.3755 210.032C23.6693 203.351 18.3483 195.412 14.7175 186.669C11.0868 177.927 9.21777 168.554 9.21777 159.087C9.21777 149.621 11.0868 140.248 14.7175 131.506C18.3483 122.763 23.6693 114.824 30.3755 108.143C37.0817 101.461 45.041 96.17 53.7968 92.5718C62.5526 88.9737 71.9327 87.1397 81.3989 87.175H132.675C149.299 50.6 187.586 25 232.159 25C291.986 25 340.486 71.115 340.486 128C340.486 184.885 291.986 231 232.159 231C229.679 231 227.219 230.922 224.78 230.765Z" fill="url(#paint7_linear_7_9)"/>
<path d="M232.159 230C239.445 230 246.726 229.302 253.8 227.926C260.693 226.585 267.473 224.584 273.952 221.978C280.312 219.42 286.447 216.254 292.185 212.568C297.869 208.917 303.213 204.725 308.069 200.107C312.925 195.49 317.333 190.411 321.171 185.009C325.045 179.557 328.372 173.728 331.06 167.686C333.797 161.532 335.899 155.093 337.308 148.547C338.754 141.831 339.487 134.917 339.487 128C339.487 121.082 338.754 114.169 337.308 107.452C335.899 100.906 333.797 94.4673 331.06 88.3142C328.372 82.2716 325.045 76.4433 321.171 70.991C317.333 65.5893 312.925 60.5095 308.069 55.8928C303.213 51.2752 297.869 47.0829 292.185 43.4323C286.447 39.7461 280.312 36.5801 273.952 34.0221C267.473 31.4165 260.693 29.4154 253.8 28.0742C246.726 26.6979 239.445 26 232.159 26C210.788 26 190.149 31.9523 172.473 43.2135C163.952 48.6418 156.296 55.1939 149.716 62.6878C143.094 70.2291 137.667 78.6069 133.585 87.5885L133.319 88.1747H132.675H81.399C71.8255 88.1747 62.5388 90.0495 53.797 93.747C49.5953 95.5242 45.5427 97.7238 41.7518 100.285C37.9967 102.822 34.4655 105.735 31.2562 108.945C28.047 112.154 25.1335 115.685 22.5965 119.44C20.0355 123.231 17.8358 127.284 16.0586 131.485C12.3611 140.227 10.4863 149.514 10.4863 159.087C10.4863 168.661 12.3611 177.948 16.0586 186.689C17.8358 190.891 20.0355 194.944 22.5965 198.735C25.1335 202.49 28.047 206.021 31.2562 209.23C34.4655 212.439 37.9967 215.353 41.7518 217.89C45.5427 220.451 49.5953 222.651 53.797 224.428C62.5388 228.125 71.8255 230 81.399 230H218.924C220.846 230 222.79 229.922 224.7 229.768L224.772 229.762L224.845 229.767C227.264 229.922 229.725 230 232.159 230ZM232.159 231C229.679 231 227.219 230.921 224.781 230.765C222.85 230.92 220.894 231 218.924 231H81.399C41.6829 231 9.48633 198.803 9.48633 159.087C9.48633 119.371 41.6829 87.1747 81.399 87.1747H132.675C149.299 50.5954 187.584 25 232.159 25C291.986 25 340.487 71.1151 340.487 128C340.487 184.885 291.986 231 232.159 231Z" fill="white" fill-opacity="0.5"/>
</g>
<defs>
<filter id="filter0_f_7_9" x="73.1436" y="195.822" width="203.127" height="134.852" filterUnits="userSpaceOnUse" color-interpolation-filters="sRGB">
<feFlood flood-opacity="0" result="BackgroundImageFix"/>
<feBlend mode="normal" in="SourceGraphic" in2="BackgroundImageFix" result="shape"/>
<feGaussianBlur stdDeviation="2" result="effect1_foregroundBlur_7_9"/>
</filter>
<filter id="filter1_f_7_9" x="10.0605" y="17.8271" width="160.563" height="161.468" filterUnits="userSpaceOnUse" color-interpolation-filters="sRGB">
<feFlood flood-opacity="0" result="BackgroundImageFix"/>
<feBlend mode="normal" in="SourceGraphic" in2="BackgroundImageFix" result="shape"/>
<feGaussianBlur stdDeviation="2" result="effect1_foregroundBlur_7_9"/>
</filter>
<filter id="filter2_f_7_9" x="1.48828" y="11.6865" width="112.901" height="110.185" filterUnits="userSpaceOnUse" color-interpolation-filters="sRGB">
<feFlood flood-opacity="0" result="BackgroundImageFix"/>
<feBlend mode="normal" in="SourceGraphic" in2="BackgroundImageFix" result="shape"/>
<feGaussianBlur stdDeviation="10" result="effect1_foregroundBlur_7_9"/>
</filter>
<filter id="filter3_f_7_9" x="0.569336" y="0" width="176.917" height="165" filterUnits="userSpaceOnUse" color-interpolation-filters="sRGB">
<feFlood flood-opacity="0" result="BackgroundImageFix"/>
<feBlend mode="normal" in="SourceGraphic" in2="BackgroundImageFix" result="shape"/>
<feGaussianBlur stdDeviation="1" result="effect1_foregroundBlur_7_9"/>
</filter>
<filter id="filter4_df_7_9" x="5.21777" y="21" width="339.269" height="218.001" filterUnits="userSpaceOnUse" color-interpolation-filters="sRGB">
<feFlood flood-opacity="0" result="BackgroundImageFix"/>
<feColorMatrix in="SourceAlpha" type="matrix" values="0 0 0 0 0 0 0 0 0 0 0 0 0 0 0 0 0 0 127 0" result="hardAlpha"/>
<feOffset dy="4"/>
<feGaussianBlur stdDeviation="2"/>
<feColorMatrix type="matrix" values="0 0 0 0 0.258824 0 0 0 0 0.627451 0 0 0 0 0.941176 0 0 0 0.596 0"/>
<feBlend mode="normal" in2="BackgroundImageFix" result="effect1_dropShadow_7_9"/>
<feBlend mode="normal" in="SourceGraphic" in2="effect1_dropShadow_7_9" result="shape"/>
<feGaussianBlur stdDeviation="2" result="effect2_foregroundBlur_7_9"/>
</filter>
<linearGradient id="paint0_linear_7_9" x1="108.917" y1="268.519" x2="92.6485" y2="262.555" gradientUnits="userSpaceOnUse">
<stop stop-color="#FFD100"/>
<stop offset="1" stop-color="#FFF0AA"/>
</linearGradient>
<linearGradient id="paint1_linear_7_9" x1="228.917" y1="237.519" x2="212.649" y2="231.555" gradientUnits="userSpaceOnUse">
<stop stop-color="#FFD100"/>
<stop offset="1" stop-color="#FFF0AA"/>
</linearGradient>
<linearGradient id="paint2_linear_7_9" x1="52.9863" y1="2" x2="52.9863" y2="19" gradientUnits="userSpaceOnUse">
<stop stop-color="#6B38FC"/>
<stop offset="1" stop-color="#9F7EFD"/>
</linearGradient>
<linearGradient id="paint3_linear_7_9" x1="167.486" y1="149" x2="167.486" y2="163" gradientUnits="userSpaceOnUse">
<stop stop-color="#6B38FC"/>
<stop offset="1" stop-color="#9F7EFD"/>
</linearGradient>
<linearGradient id="paint4_linear_7_9" x1="133.49" y1="21.6053" x2="137.323" y2="35.9021" gradientUnits="userSpaceOnUse">
<stop stop-color="#6B38FC"/>
<stop offset="1" stop-color="#9F7EFD"/>
</linearGradient>
<linearGradient id="paint5_linear_7_9" x1="7.18887" y1="137.599" x2="12.3282" y2="149.705" gradientUnits="userSpaceOnUse">
<stop stop-color="#6B38FC"/>
<stop offset="1" stop-color="#9F7EFD"/>
</linearGradient>
<linearGradient id="paint6_linear_7_9" x1="130.151" y1="73.0393" x2="119.741" y2="70.6359" gradientUnits="userSpaceOnUse">
<stop stop-color="#6B38FC"/>
<stop offset="1" stop-color="#9F7EFD"/>
</linearGradient>
<linearGradient id="paint7_linear_7_9" x1="143.381" y1="50.9561" x2="209.424" y2="242.168" gradientUnits="userSpaceOnUse">
<stop stop-color="white" stop-opacity="0.596"/>
<stop offset="1" stop-color="#F7F7F7" stop-opacity="0.204"/>
</linearGradient>
</defs>
</svg>
