<svg width="296" height="204" viewBox="0 0 296 204" fill="none" xmlns="http://www.w3.org/2000/svg">
<g filter="url(#filter0_f_7_2590)">
<path d="M149.094 109.243C149.094 109.243 214.005 112.751 242.794 104.391C271.583 96.0312 271.542 52.6452 242.794 41.9502C214.046 31.2552 204.221 69.4831 204.221 69.4831" stroke="#D0D0D0" stroke-width="16" stroke-linecap="round"/>
<path d="M37.4395 156.104C37.4395 156.104 135.008 147.289 178.021 156.104C221.034 164.919 207.338 190.204 186.953 191.365C166.568 192.526 147.753 179.127 147.753 179.127" stroke="#D0D0D0" stroke-width="16" stroke-linecap="round"/>
<path d="M245.107 156.039H283.899" stroke="#D0D0D0" stroke-width="16" stroke-linecap="round"/>
</g>
<g filter="url(#filter1_f_7_2590)">
<path d="M82.1133 30.2385L66.238 130.471" stroke="#42A0F0" stroke-width="10" stroke-linecap="round"/>
<path d="M78.0323 54.7083L98.1173 39.6236" stroke="#42A0F0" stroke-width="10" stroke-linecap="round"/>
<path d="M78.0318 54.7083L63.0352 34.0671" stroke="#42A0F0" stroke-width="10" stroke-linecap="round"/>
<path d="M69.5654 108.166L84.006 128.719" stroke="#42A0F0" stroke-width="10" stroke-linecap="round"/>
<path d="M69.565 108.166L48.9239 123.163" stroke="#42A0F0" stroke-width="10" stroke-linecap="round"/>
<path d="M121.242 62.5471L26.5006 98.915" stroke="#42A0F0" stroke-width="10" stroke-linecap="round"/>
<path d="M98.0098 71.2478L121.116 81.0996" stroke="#42A0F0" stroke-width="10" stroke-linecap="round"/>
<path d="M98.0103 71.2477L108.388 47.9397" stroke="#42A0F0" stroke-width="10" stroke-linecap="round"/>
<path d="M47.4805 90.644L36.9013 113.426" stroke="#42A0F0" stroke-width="10" stroke-linecap="round"/>
<path d="M47.4809 90.644L24.1729 80.2666" stroke="#42A0F0" stroke-width="10" stroke-linecap="round"/>
<path d="M112.826 112.589L33.9598 48.7239" stroke="#42A0F0" stroke-width="10" stroke-linecap="round"/>
<path d="M93.6758 96.8193L96.697 121.756" stroke="#42A0F0" stroke-width="10" stroke-linecap="round"/>
<path d="M93.6757 96.8193L119.05 94.1523" stroke="#42A0F0" stroke-width="10" stroke-linecap="round"/>
<path d="M51.6133 62.7581L26.5935 64.9874" stroke="#42A0F0" stroke-width="10" stroke-linecap="round"/>
<path d="M51.6132 62.758L48.9463 37.384" stroke="#42A0F0" stroke-width="10" stroke-linecap="round"/>
<path d="M48.4854 4.3623L47.4009 11.209" stroke="#42A0F0" stroke-linecap="round"/>
<path d="M48.0719 6.00994L49.2743 5.62934" stroke="#42A0F0" stroke-linecap="round"/>
<path d="M48.0722 6.00982L46.4902 5.18823" stroke="#42A0F0" stroke-linecap="round"/>
<path d="M47.4551 9.90747L48.481 10.641" stroke="#42A0F0" stroke-linecap="round"/>
<path d="M47.4553 9.90735L45.6969 10.1999" stroke="#42A0F0" stroke-linecap="round"/>
<path d="M51.1572 6.5686L44.6856 9.05281" stroke="#42A0F0" stroke-linecap="round"/>
<path d="M49.5705 7.16246L51.1486 7.83564" stroke="#42A0F0" stroke-linecap="round"/>
<path d="M49.5706 7.16248L50.2793 5.5708" stroke="#42A0F0" stroke-linecap="round"/>
<path d="M46.1191 8.4873L45.3969 10.0435" stroke="#42A0F0" stroke-linecap="round"/>
<path d="M46.1192 8.48733L44.5276 7.77867" stroke="#42A0F0" stroke-linecap="round"/>
<path d="M50.583 9.98657L45.1958 5.62412" stroke="#42A0F0" stroke-linecap="round"/>
<path d="M49.275 8.90974L49.481 10.613" stroke="#42A0F0" stroke-linecap="round"/>
<path d="M49.275 8.90966L51.0078 8.72754" stroke="#42A0F0" stroke-linecap="round"/>
<path d="M46.4023 6.58325L44.6935 6.73584" stroke="#42A0F0" stroke-linecap="round"/>
<path d="M46.4024 6.58318L46.2203 4.85041" stroke="#42A0F0" stroke-linecap="round"/>
<path d="M140.532 34.4783L138.673 46.214" stroke="#42A0F0" stroke-linecap="round"/>
<path d="M139.622 37.0627L141.937 36.8584" stroke="#42A0F0" stroke-linecap="round"/>
<path d="M139.622 37.0627L136.926 36.0647" stroke="#42A0F0" stroke-linecap="round"/>
<path d="M138.562 43.7454L140.613 45.2122" stroke="#42A0F0" stroke-linecap="round"/>
<path d="M138.563 43.7454L135.602 44.4186" stroke="#42A0F0" stroke-linecap="round"/>
<path d="M145.114 38.2615L134.021 42.5196" stroke="#42A0F0" stroke-linecap="round"/>
<path d="M142.394 39.2798L145.099 40.4331" stroke="#42A0F0" stroke-linecap="round"/>
<path d="M142.395 39.2799L143.609 36.5513" stroke="#42A0F0" stroke-linecap="round"/>
<path d="M136.479 41.5508L135.24 44.2178" stroke="#42A0F0" stroke-linecap="round"/>
<path d="M136.479 41.5508L133.75 40.336" stroke="#42A0F0" stroke-linecap="round"/>
<path d="M144.129 44.1204L134.895 36.6428" stroke="#42A0F0" stroke-linecap="round"/>
<path d="M141.887 42.2741L142.241 45.1933" stroke="#42A0F0" stroke-linecap="round"/>
<path d="M141.887 42.2741L144.857 41.9619" stroke="#42A0F0" stroke-linecap="round"/>
<path d="M136.962 38.2864L134.033 38.5473" stroke="#42A0F0" stroke-linecap="round"/>
<path d="M136.962 38.2864L136.65 35.3159" stroke="#42A0F0" stroke-linecap="round"/>
<path d="M119.634 119.646L118.108 129.281" stroke="#42A0F0" stroke-linecap="round"/>
<path d="M118.801 121.672L120.56 121.38" stroke="#42A0F0" stroke-linecap="round"/>
<path d="M118.801 121.672L116.662 120.762" stroke="#42A0F0" stroke-linecap="round"/>
<path d="M117.919 127.24L119.413 128.619" stroke="#42A0F0" stroke-linecap="round"/>
<path d="M117.919 127.24L115.515 128.001" stroke="#42A0F0" stroke-linecap="round"/>
<path d="M123.395 122.751L114.287 126.247" stroke="#42A0F0" stroke-linecap="round"/>
<path d="M121.161 123.587L123.382 124.534" stroke="#42A0F0" stroke-linecap="round"/>
<path d="M121.162 123.587L122.159 121.347" stroke="#42A0F0" stroke-linecap="round"/>
<path d="M116.304 125.452L115.287 127.641" stroke="#42A0F0" stroke-linecap="round"/>
<path d="M116.304 125.452L114.064 124.454" stroke="#42A0F0" stroke-linecap="round"/>
<path d="M122.586 127.562L115.005 121.423" stroke="#42A0F0" stroke-linecap="round"/>
<path d="M120.746 126.046L121.036 128.443" stroke="#42A0F0" stroke-linecap="round"/>
<path d="M120.746 126.046L123.185 125.79" stroke="#42A0F0" stroke-linecap="round"/>
<path d="M116.702 122.772L114.297 122.986" stroke="#42A0F0" stroke-linecap="round"/>
<path d="M116.702 122.772L116.445 120.333" stroke="#42A0F0" stroke-linecap="round"/>
<path d="M36.9863 129.389L35.6421 137.876" stroke="#42A0F0" stroke-linecap="round"/>
<path d="M36.1999 131.423L37.9583 131.13" stroke="#42A0F0" stroke-linecap="round"/>
<path d="M36.2001 131.422L34.6182 130.601" stroke="#42A0F0" stroke-linecap="round"/>
<path d="M35.4941 135.877L36.9879 137.256" stroke="#42A0F0" stroke-linecap="round"/>
<path d="M35.4944 135.877L33.6478 136.727" stroke="#42A0F0" stroke-linecap="round"/>
<path d="M40.2998 132.125L32.2775 135.204" stroke="#42A0F0" stroke-linecap="round"/>
<path d="M38.3323 132.862L40.2892 133.696" stroke="#42A0F0" stroke-linecap="round"/>
<path d="M38.332 132.862L39.2109 130.888" stroke="#42A0F0" stroke-linecap="round"/>
<path d="M34.0547 134.504L33.1586 136.433" stroke="#42A0F0" stroke-linecap="round"/>
<path d="M34.0544 134.504L32.0803 133.625" stroke="#42A0F0" stroke-linecap="round"/>
<path d="M39.5859 136.361L32.9079 130.953" stroke="#42A0F0" stroke-linecap="round"/>
<path d="M37.9639 135.026L38.22 137.137" stroke="#42A0F0" stroke-linecap="round"/>
<path d="M37.9642 135.026L40.1133 134.8" stroke="#42A0F0" stroke-linecap="round"/>
<path d="M34.4033 132.142L32.2844 132.331" stroke="#42A0F0" stroke-linecap="round"/>
<path d="M34.4036 132.142L34.1778 129.993" stroke="#42A0F0" stroke-linecap="round"/>
<path d="M10.6055 88.6775L9.51512 95.5617" stroke="#42A0F0" stroke-linecap="round"/>
<path d="M10.192 90.1999L11.3944 89.8193" stroke="#42A0F0" stroke-linecap="round"/>
<path d="M10.1923 90.1998L8.61035 89.3782" stroke="#42A0F0" stroke-linecap="round"/>
<path d="M9.5752 94.0972L10.6011 94.8307" stroke="#42A0F0" stroke-linecap="round"/>
<path d="M9.57545 94.0971L7.81704 94.3896" stroke="#42A0F0" stroke-linecap="round"/>
<path d="M13.2939 90.8962L6.78689 93.3941" stroke="#42A0F0" stroke-linecap="round"/>
<path d="M11.6978 91.4941L13.2845 92.1703" stroke="#42A0F0" stroke-linecap="round"/>
<path d="M11.6975 91.494L12.4102 89.8933" stroke="#42A0F0" stroke-linecap="round"/>
<path d="M8.22852 92.8259L7.50185 94.3902" stroke="#42A0F0" stroke-linecap="round"/>
<path d="M8.2282 92.8259L6.62747 92.1132" stroke="#42A0F0" stroke-linecap="round"/>
<path d="M12.7148 94.3333L7.29814 89.9469" stroke="#42A0F0" stroke-linecap="round"/>
<path d="M11.3994 93.2498L11.6071 94.9621" stroke="#42A0F0" stroke-linecap="round"/>
<path d="M11.399 93.2498L13.1416 93.0667" stroke="#42A0F0" stroke-linecap="round"/>
<path d="M8.51074 90.9106L6.79267 91.0635" stroke="#42A0F0" stroke-linecap="round"/>
<path d="M8.51031 90.9106L8.32716 89.168" stroke="#42A0F0" stroke-linecap="round"/>
</g>
<defs>
<filter id="filter0_f_7_2590" x="25.4385" y="28.062" width="270.461" height="175.375" filterUnits="userSpaceOnUse" color-interpolation-filters="sRGB">
<feFlood flood-opacity="0" result="BackgroundImageFix"/>
<feBlend mode="normal" in="SourceGraphic" in2="BackgroundImageFix" result="shape"/>
<feGaussianBlur stdDeviation="2" result="effect1_foregroundBlur_7_2590"/>
</filter>
<filter id="filter1_f_7_2590" x="4.12695" y="1.8623" width="143.487" height="138.514" filterUnits="userSpaceOnUse" color-interpolation-filters="sRGB">
<feFlood flood-opacity="0" result="BackgroundImageFix"/>
<feBlend mode="normal" in="SourceGraphic" in2="BackgroundImageFix" result="shape"/>
<feGaussianBlur stdDeviation="1" result="effect1_foregroundBlur_7_2590"/>
</filter>
</defs>
</svg>
