<svg width="252" height="263" viewBox="0 0 252 263" fill="none" xmlns="http://www.w3.org/2000/svg">
<g filter="url(#filter0_f_7_2319)">
<path d="M126.891 41.2212L126.891 237.324" stroke="#42A0F0" stroke-width="10" stroke-linecap="round"/>
<path d="M126.499 89.1584L160.272 54.2954" stroke="#42A0F0" stroke-width="10" stroke-linecap="round"/>
<path d="M126.499 89.1584L91.6357 54.2954" stroke="#42A0F0" stroke-width="10" stroke-linecap="round"/>
<path d="M126.499 193.746L160.272 228.609" stroke="#42A0F0" stroke-width="10" stroke-linecap="round"/>
<path d="M126.499 193.746L91.6357 228.609" stroke="#42A0F0" stroke-width="10" stroke-linecap="round"/>
<path d="M211.338 91.0581L41.5077 189.11" stroke="#42A0F0" stroke-width="10" stroke-linecap="round"/>
<path d="M169.627 114.687L216.706 126.504" stroke="#42A0F0" stroke-width="10" stroke-linecap="round"/>
<path d="M169.627 114.687L182.388 67.0635" stroke="#42A0F0" stroke-width="10" stroke-linecap="round"/>
<path d="M79.0508 166.981L65.745 213.661" stroke="#42A0F0" stroke-width="10" stroke-linecap="round"/>
<path d="M79.0506 166.981L31.4269 154.221" stroke="#42A0F0" stroke-width="10" stroke-linecap="round"/>
<path d="M210.401 189.11L40.5712 91.0584" stroke="#42A0F0" stroke-width="10" stroke-linecap="round"/>
<path d="M169.083 164.802L182.389 211.482" stroke="#42A0F0" stroke-width="10" stroke-linecap="round"/>
<path d="M169.083 164.802L216.707 152.041" stroke="#42A0F0" stroke-width="10" stroke-linecap="round"/>
<path d="M78.5068 112.508L31.4281 124.325" stroke="#42A0F0" stroke-width="10" stroke-linecap="round"/>
<path d="M78.507 112.508L65.7462 64.8839" stroke="#42A0F0" stroke-width="10" stroke-linecap="round"/>
</g>
<g filter="url(#filter1_f_7_2319)">
<path d="M54.8828 2V15.394" stroke="#42A0F0" stroke-linecap="round"/>
<path d="M54.5928 5.2682L56.7718 4.1792" stroke="#42A0F0" stroke-linecap="round"/>
<path d="M54.5932 5.2682L51.3252 4.1792" stroke="#42A0F0" stroke-linecap="round"/>
<path d="M54.5928 12.895L56.7718 13.984" stroke="#42A0F0" stroke-linecap="round"/>
<path d="M54.5932 12.895L51.3252 13.984" stroke="#42A0F0" stroke-linecap="round"/>
<path d="M60.6514 5.4043L49.0518 12.1013" stroke="#42A0F0" stroke-linecap="round"/>
<path d="M57.8023 7.01765L61.0178 7.82507" stroke="#42A0F0" stroke-linecap="round"/>
<path d="M57.8023 7.01764L58.6738 3.76514" stroke="#42A0F0" stroke-linecap="round"/>
<path d="M51.6152 10.5898L50.7067 13.7783" stroke="#42A0F0" stroke-linecap="round"/>
<path d="M51.6153 10.5898L48.3628 9.71833" stroke="#42A0F0" stroke-linecap="round"/>
<path d="M60.5869 12.1016L48.9874 5.40456" stroke="#42A0F0" stroke-linecap="round"/>
<path d="M57.7651 10.4413L58.6736 13.6298" stroke="#42A0F0" stroke-linecap="round"/>
<path d="M57.7651 10.4413L61.0176 9.56982" stroke="#42A0F0" stroke-linecap="round"/>
<path d="M51.5781 6.86914L48.3626 7.67656" stroke="#42A0F0" stroke-linecap="round"/>
<path d="M51.5781 6.86914L50.7065 3.61663" stroke="#42A0F0" stroke-linecap="round"/>
</g>
<g filter="url(#filter2_f_7_2319)">
<path d="M239.67 31.6548V54.6148" stroke="#42A0F0" stroke-linecap="round"/>
<path d="M238.713 36.8629L243.071 35.7739" stroke="#42A0F0" stroke-linecap="round"/>
<path d="M238.713 36.8629L233.266 35.7739" stroke="#42A0F0" stroke-linecap="round"/>
<path d="M238.713 49.937L243.071 52.116" stroke="#42A0F0" stroke-linecap="round"/>
<path d="M238.713 49.937L233.266 52.116" stroke="#42A0F0" stroke-linecap="round"/>
<path d="M249.557 37.4897L229.673 48.9697" stroke="#42A0F0" stroke-linecap="round"/>
<path d="M244.672 40.2563L250.184 41.6396" stroke="#42A0F0" stroke-linecap="round"/>
<path d="M244.672 40.2563L246.166 34.6802" stroke="#42A0F0" stroke-linecap="round"/>
<path d="M234.067 46.3789L232.509 51.8442" stroke="#42A0F0" stroke-linecap="round"/>
<path d="M234.067 46.3789L228.491 44.8847" stroke="#42A0F0" stroke-linecap="round"/>
<path d="M249.446 48.9712L229.562 37.4912" stroke="#42A0F0" stroke-linecap="round"/>
<path d="M244.608 46.1245L246.167 51.5898" stroke="#42A0F0" stroke-linecap="round"/>
<path d="M244.608 46.1245L250.185 44.6304" stroke="#42A0F0" stroke-linecap="round"/>
<path d="M234.004 40.002L228.492 41.3852" stroke="#42A0F0" stroke-linecap="round"/>
<path d="M234.004 40.0019L232.51 34.4258" stroke="#42A0F0" stroke-linecap="round"/>
</g>
<g filter="url(#filter3_f_7_2319)">
<path d="M225.526 200.522V219.372" stroke="#42A0F0" stroke-linecap="round"/>
<path d="M224.55 204.64L227.818 203.551" stroke="#42A0F0" stroke-linecap="round"/>
<path d="M224.549 204.64L220.191 203.551" stroke="#42A0F0" stroke-linecap="round"/>
<path d="M224.55 215.535L227.818 217.714" stroke="#42A0F0" stroke-linecap="round"/>
<path d="M224.549 215.535L220.191 217.714" stroke="#42A0F0" stroke-linecap="round"/>
<path d="M233.644 205.313L217.319 214.738" stroke="#42A0F0" stroke-linecap="round"/>
<path d="M229.634 207.584L234.159 208.719" stroke="#42A0F0" stroke-linecap="round"/>
<path d="M229.634 207.584L230.86 203.006" stroke="#42A0F0" stroke-linecap="round"/>
<path d="M220.928 212.61L219.649 217.097" stroke="#42A0F0" stroke-linecap="round"/>
<path d="M220.927 212.611L216.35 211.384" stroke="#42A0F0" stroke-linecap="round"/>
<path d="M233.555 214.738L217.23 205.313" stroke="#42A0F0" stroke-linecap="round"/>
<path d="M229.582 212.401L230.861 216.887" stroke="#42A0F0" stroke-linecap="round"/>
<path d="M229.583 212.401L234.16 211.174" stroke="#42A0F0" stroke-linecap="round"/>
<path d="M220.876 207.374L216.351 208.51" stroke="#42A0F0" stroke-linecap="round"/>
<path d="M220.876 207.374L219.65 202.797" stroke="#42A0F0" stroke-linecap="round"/>
</g>
<g filter="url(#filter4_f_7_2319)">
<path d="M70.7334 244.1V260.705" stroke="#42A0F0" stroke-linecap="round"/>
<path d="M69.8457 248.218L73.1137 247.129" stroke="#42A0F0" stroke-linecap="round"/>
<path d="M69.8461 248.218L66.5781 247.129" stroke="#42A0F0" stroke-linecap="round"/>
<path d="M69.8457 256.934L73.1137 259.113" stroke="#42A0F0" stroke-linecap="round"/>
<path d="M69.8461 256.934L66.5781 259.113" stroke="#42A0F0" stroke-linecap="round"/>
<path d="M77.8828 248.32L63.5025 256.622" stroke="#42A0F0" stroke-linecap="round"/>
<path d="M74.3507 250.321L78.3372 251.322" stroke="#42A0F0" stroke-linecap="round"/>
<path d="M74.3511 250.321L75.4316 246.289" stroke="#42A0F0" stroke-linecap="round"/>
<path d="M66.6816 254.749L65.5551 258.702" stroke="#42A0F0" stroke-linecap="round"/>
<path d="M66.6821 254.749L62.6495 253.668" stroke="#42A0F0" stroke-linecap="round"/>
<path d="M77.8047 256.622L63.4243 248.32" stroke="#42A0F0" stroke-linecap="round"/>
<path d="M74.3058 254.564L75.4323 258.517" stroke="#42A0F0" stroke-linecap="round"/>
<path d="M74.3054 254.564L78.3379 253.483" stroke="#42A0F0" stroke-linecap="round"/>
<path d="M66.6367 250.136L62.6502 251.137" stroke="#42A0F0" stroke-linecap="round"/>
<path d="M66.6363 250.136L65.5558 246.104" stroke="#42A0F0" stroke-linecap="round"/>
</g>
<g filter="url(#filter5_f_7_2319)">
<path d="M8.0752 174.374V187.842" stroke="#42A0F0" stroke-linecap="round"/>
<path d="M7.74609 177.403L9.92509 176.314" stroke="#42A0F0" stroke-linecap="round"/>
<path d="M7.74652 177.403L4.47852 176.314" stroke="#42A0F0" stroke-linecap="round"/>
<path d="M7.74609 185.029L9.92509 186.118" stroke="#42A0F0" stroke-linecap="round"/>
<path d="M7.74652 185.029L4.47852 186.118" stroke="#42A0F0" stroke-linecap="round"/>
<path d="M13.875 177.797L2.21137 184.531" stroke="#42A0F0" stroke-linecap="round"/>
<path d="M11.0107 179.42L14.2435 180.231" stroke="#42A0F0" stroke-linecap="round"/>
<path d="M11.0105 179.42L11.8867 176.149" stroke="#42A0F0" stroke-linecap="round"/>
<path d="M4.79004 183.011L3.87627 186.216" stroke="#42A0F0" stroke-linecap="round"/>
<path d="M4.78977 183.011L1.51951 182.135" stroke="#42A0F0" stroke-linecap="round"/>
<path d="M13.8096 184.531L2.14594 177.797" stroke="#42A0F0" stroke-linecap="round"/>
<path d="M10.9726 182.861L11.8864 186.066" stroke="#42A0F0" stroke-linecap="round"/>
<path d="M10.9729 182.861L14.2432 181.985" stroke="#42A0F0" stroke-linecap="round"/>
<path d="M4.75195 179.27L1.51919 180.081" stroke="#42A0F0" stroke-linecap="round"/>
<path d="M4.75222 179.27L3.87595 176" stroke="#42A0F0" stroke-linecap="round"/>
</g>
<defs>
<filter id="filter0_f_7_2319" x="22.4258" y="32.2212" width="203.282" height="214.103" filterUnits="userSpaceOnUse" color-interpolation-filters="sRGB">
<feFlood flood-opacity="0" result="BackgroundImageFix"/>
<feBlend mode="normal" in="SourceGraphic" in2="BackgroundImageFix" result="shape"/>
<feGaussianBlur stdDeviation="2" result="effect1_foregroundBlur_7_2319"/>
</filter>
<filter id="filter1_f_7_2319" x="46.8623" y="0.5" width="15.6553" height="16.394" filterUnits="userSpaceOnUse" color-interpolation-filters="sRGB">
<feFlood flood-opacity="0" result="BackgroundImageFix"/>
<feBlend mode="normal" in="SourceGraphic" in2="BackgroundImageFix" result="shape"/>
<feGaussianBlur stdDeviation="0.5" result="effect1_foregroundBlur_7_2319"/>
</filter>
<filter id="filter2_f_7_2319" x="226.991" y="30.1548" width="24.6934" height="25.96" filterUnits="userSpaceOnUse" color-interpolation-filters="sRGB">
<feFlood flood-opacity="0" result="BackgroundImageFix"/>
<feBlend mode="normal" in="SourceGraphic" in2="BackgroundImageFix" result="shape"/>
<feGaussianBlur stdDeviation="0.5" result="effect1_foregroundBlur_7_2319"/>
</filter>
<filter id="filter3_f_7_2319" x="214.85" y="199.022" width="20.8105" height="21.8501" filterUnits="userSpaceOnUse" color-interpolation-filters="sRGB">
<feFlood flood-opacity="0" result="BackgroundImageFix"/>
<feBlend mode="normal" in="SourceGraphic" in2="BackgroundImageFix" result="shape"/>
<feGaussianBlur stdDeviation="0.5" result="effect1_foregroundBlur_7_2319"/>
</filter>
<filter id="filter4_f_7_2319" x="61.1494" y="242.6" width="18.6885" height="19.605" filterUnits="userSpaceOnUse" color-interpolation-filters="sRGB">
<feFlood flood-opacity="0" result="BackgroundImageFix"/>
<feBlend mode="normal" in="SourceGraphic" in2="BackgroundImageFix" result="shape"/>
<feGaussianBlur stdDeviation="0.5" result="effect1_foregroundBlur_7_2319"/>
</filter>
<filter id="filter5_f_7_2319" x="0.0195312" y="172.874" width="15.7236" height="16.4678" filterUnits="userSpaceOnUse" color-interpolation-filters="sRGB">
<feFlood flood-opacity="0" result="BackgroundImageFix"/>
<feBlend mode="normal" in="SourceGraphic" in2="BackgroundImageFix" result="shape"/>
<feGaussianBlur stdDeviation="0.5" result="effect1_foregroundBlur_7_2319"/>
</filter>
</defs>
</svg>
