<svg width="394" height="302" viewBox="0 0 394 302" fill="none" xmlns="http://www.w3.org/2000/svg">
<g filter="url(#filter0_f_7_475)">
<path d="M128.253 206.834C128.781 207.317 117.713 231.125 111.281 238.525C104.849 245.924 96.9394 249.574 93.6127 246.683C90.2859 243.791 92.7997 235.451 99.2323 228.051C105.665 220.651 127.724 206.351 128.253 206.834Z" fill="#42A0F0"/>
<path d="M100.378 233.022C101.024 234.056 103.261 233.824 105.374 232.504C107.487 231.183 108.677 229.274 108.03 228.24C107.384 227.206 105.147 227.438 103.034 228.759C100.921 230.079 99.7314 231.988 100.378 233.022Z" fill="white"/>
<path d="M196.253 206.834C196.781 207.317 185.713 231.125 179.281 238.525C172.849 245.924 164.939 249.574 161.613 246.683C158.286 243.791 160.8 235.451 167.232 228.051C173.665 220.651 195.724 206.351 196.253 206.834Z" fill="#42A0F0"/>
<path d="M168.378 233.022C169.024 234.056 171.261 233.824 173.374 232.504C175.487 231.183 176.677 229.274 176.03 228.24C175.384 227.206 173.147 227.438 171.034 228.759C168.921 230.079 167.731 231.988 168.378 233.022Z" fill="white"/>
<path d="M264.253 206.834C264.781 207.317 253.713 231.125 247.281 238.525C240.849 245.924 232.939 249.574 229.613 246.683C226.286 243.791 228.8 235.451 235.232 228.051C241.665 220.651 263.724 206.351 264.253 206.834Z" fill="#42A0F0"/>
<path d="M236.378 233.022C237.024 234.056 239.261 233.824 241.374 232.504C243.487 231.183 244.677 229.274 244.03 228.24C243.384 227.206 241.147 227.438 239.034 228.759C236.921 230.079 235.731 231.988 236.378 233.022Z" fill="white"/>
<path d="M204.253 256.834C204.781 257.317 193.713 281.125 187.281 288.525C180.849 295.924 172.939 299.574 169.613 296.683C166.286 293.791 168.8 285.451 175.232 278.051C181.665 270.651 203.724 256.351 204.253 256.834Z" fill="#42A0F0"/>
<path d="M176.378 283.022C177.024 284.056 179.261 283.824 181.374 282.504C183.487 281.183 184.677 279.274 184.03 278.24C183.384 277.206 181.147 277.438 179.034 278.759C176.921 280.079 175.731 281.988 176.378 283.022Z" fill="white"/>
<path d="M128.253 256.834C128.781 257.317 117.713 281.125 111.281 288.525C104.849 295.924 96.9394 299.574 93.6127 296.683C90.2859 293.791 92.7997 285.451 99.2323 278.051C105.665 270.651 127.724 256.351 128.253 256.834Z" fill="#42A0F0"/>
<path d="M100.378 283.022C101.024 284.056 103.261 283.824 105.374 282.504C107.487 281.183 108.677 279.274 108.03 278.24C107.384 277.206 105.147 277.438 103.034 278.759C100.921 280.079 99.7314 281.988 100.378 283.022Z" fill="white"/>
</g>
<g filter="url(#filter1_f_7_475)">
<path d="M90.4871 184.295C75.2648 184.315 60.3896 179.748 47.8011 171.19C36.3708 163.443 27.2385 152.759 21.3639 140.263C15.4893 127.767 13.0894 113.919 14.4163 100.174C15.7433 86.4297 20.7481 73.2965 28.9048 62.1548C37.0615 51.0131 48.0689 42.2743 60.7701 36.8568C70.1664 32.8588 80.2757 30.8075 90.4871 30.8268C93.468 30.8269 96.4463 30.9998 99.4071 31.3448C97.6809 35.1194 96.3602 39.0665 95.4671 43.1198C94.5492 47.3033 94.0869 51.5738 94.0881 55.8568C94.069 67.6099 97.578 79.0983 104.161 88.8348C108.405 95.1147 113.813 100.523 120.093 104.767C123.249 106.899 126.605 108.72 130.112 110.205C137.375 113.279 145.184 114.855 153.071 114.84C157.634 114.841 162.182 114.316 166.624 113.275C165.576 127.709 160.46 141.551 151.869 153.197C149.09 156.965 145.974 160.472 142.559 163.676C128.467 176.938 109.839 184.314 90.4871 184.295Z" fill="#713FFD"/>
</g>
<g filter="url(#filter2_f_7_475)">
<path d="M77.0538 97.0074C94.1916 81.5764 99.5265 59.5624 88.9695 47.8377C78.4126 36.1131 55.9615 39.1176 38.8237 54.5486C21.6859 69.9795 16.3511 91.9935 26.908 103.718C37.465 115.443 59.916 112.438 77.0538 97.0074Z" fill="#A586FC"/>
</g>
<g filter="url(#filter3_f_7_475)">
<path d="M52.9863 11L55.5513 17.2L62.4863 19.5L55.5513 21.8L52.9863 28L50.4213 21.8L43.4863 19.5L50.4213 17.2L52.9863 11Z" fill="url(#paint0_linear_7_475)"/>
<path d="M167.486 158L169.646 163.11L175.486 165L169.646 166.89L167.486 172L165.326 166.89L159.486 165L165.326 163.11L167.486 158Z" fill="url(#paint1_linear_7_475)"/>
<path d="M133.488 30.6052L137.03 35.2472L143.344 35.6252L138.066 39.1112L137.322 44.902L133.781 40.2497L127.467 39.8716L132.745 36.3856L133.488 30.6052Z" fill="url(#paint2_linear_7_475)"/>
<path d="M7.1838 146.601L11.0048 150.196L16.9482 149.602L12.3921 153.464L12.3231 158.707L8.51299 155.109L2.56965 155.704L7.1265 151.843L7.1838 146.601Z" fill="url(#paint3_linear_7_475)"/>
<path d="M130.152 82.0383L125.952 82.8895L123.468 87.2421L123.142 82.2408L119.741 79.6349L123.943 78.7863L126.427 74.4335L126.75 79.4344L130.152 82.0383Z" fill="url(#paint4_linear_7_475)"/>
</g>
<g filter="url(#filter4_df_7_475)">
<g filter="url(#filter5_d_7_475)">
<path d="M237.78 233.765C235.847 233.92 233.894 233.999 231.923 234H94.3989C84.9327 234.035 75.5526 232.201 66.7968 228.603C58.041 225.005 50.0817 219.714 43.3755 213.032C36.6693 206.351 31.3483 198.412 27.7175 189.669C24.0868 180.927 22.2178 171.554 22.2178 162.087C22.2178 152.621 24.0868 143.248 27.7175 134.506C31.3483 125.763 36.6693 117.824 43.3755 111.143C50.0817 104.461 58.041 99.17 66.7968 95.5718C75.5526 91.9737 84.9327 90.1397 94.3989 90.175H145.675C162.299 53.6 200.586 28 245.159 28C304.986 28 353.486 74.115 353.486 131C353.486 187.885 304.986 234 245.159 234C242.679 234 240.219 233.922 237.78 233.765Z" fill="url(#paint5_linear_7_475)"/>
<path d="M245.159 233C252.445 233 259.726 232.302 266.8 230.926C273.693 229.585 280.473 227.584 286.952 224.978C293.312 222.42 299.447 219.254 305.185 215.568C310.869 211.917 316.213 207.725 321.069 203.107C325.925 198.49 330.333 193.411 334.171 188.009C338.045 182.557 341.372 176.728 344.06 170.686C346.797 164.532 348.899 158.093 350.308 151.547C351.754 144.831 352.487 137.917 352.487 131C352.487 124.082 351.754 117.169 350.308 110.452C348.899 103.906 346.797 97.4673 344.06 91.3142C341.372 85.2716 338.045 79.4433 334.171 73.991C330.333 68.5893 325.925 63.5095 321.069 58.8928C316.213 54.2752 310.869 50.0829 305.185 46.4323C299.447 42.7461 293.312 39.5801 286.952 37.0221C280.473 34.4165 273.693 32.4154 266.8 31.0742C259.726 29.6979 252.445 29 245.159 29C223.788 29 203.149 34.9523 185.473 46.2135C176.952 51.6418 169.296 58.1939 162.716 65.6878C156.094 73.2291 150.667 81.6069 146.585 90.5885L146.319 91.1747H145.675H94.399C84.8255 91.1747 75.5388 93.0495 66.797 96.747C62.5953 98.5242 58.5427 100.724 54.7518 103.285C50.9967 105.822 47.4655 108.735 44.2562 111.945C41.047 115.154 38.1335 118.685 35.5965 122.44C33.0355 126.231 30.8358 130.284 29.0586 134.485C25.3611 143.227 23.4863 152.514 23.4863 162.087C23.4863 171.661 25.3611 180.948 29.0586 189.689C30.8358 193.891 33.0355 197.944 35.5965 201.735C38.1335 205.49 41.047 209.021 44.2562 212.23C47.4655 215.439 50.9967 218.353 54.7518 220.89C58.5427 223.451 62.5953 225.651 66.797 227.428C75.5388 231.125 84.8255 233 94.399 233H231.924C233.846 233 235.79 232.922 237.7 232.768L237.772 232.762L237.845 232.767C240.264 232.922 242.725 233 245.159 233ZM245.159 234C242.679 234 240.219 233.921 237.781 233.765C235.85 233.92 233.894 234 231.924 234H94.399C54.6829 234 22.4863 201.803 22.4863 162.087C22.4863 122.371 54.6829 90.1747 94.399 90.1747H145.675C162.299 53.5954 200.584 28 245.159 28C304.986 28 353.487 74.1151 353.487 131C353.487 187.885 304.986 234 245.159 234Z" fill="white" fill-opacity="0.5"/>
</g>
</g>
<defs>
<filter id="filter0_f_7_475" x="88.1436" y="202.822" width="180.127" height="98.8521" filterUnits="userSpaceOnUse" color-interpolation-filters="sRGB">
<feFlood flood-opacity="0" result="BackgroundImageFix"/>
<feBlend mode="normal" in="SourceGraphic" in2="BackgroundImageFix" result="shape"/>
<feGaussianBlur stdDeviation="2" result="effect1_foregroundBlur_7_475"/>
</filter>
<filter id="filter1_f_7_475" x="10.0605" y="26.8267" width="160.563" height="161.468" filterUnits="userSpaceOnUse" color-interpolation-filters="sRGB">
<feFlood flood-opacity="0" result="BackgroundImageFix"/>
<feBlend mode="normal" in="SourceGraphic" in2="BackgroundImageFix" result="shape"/>
<feGaussianBlur stdDeviation="2" result="effect1_foregroundBlur_7_475"/>
</filter>
<filter id="filter2_f_7_475" x="1.48828" y="20.6855" width="112.901" height="110.185" filterUnits="userSpaceOnUse" color-interpolation-filters="sRGB">
<feFlood flood-opacity="0" result="BackgroundImageFix"/>
<feBlend mode="normal" in="SourceGraphic" in2="BackgroundImageFix" result="shape"/>
<feGaussianBlur stdDeviation="10" result="effect1_foregroundBlur_7_475"/>
</filter>
<filter id="filter3_f_7_475" x="0.569336" y="9" width="176.917" height="165" filterUnits="userSpaceOnUse" color-interpolation-filters="sRGB">
<feFlood flood-opacity="0" result="BackgroundImageFix"/>
<feBlend mode="normal" in="SourceGraphic" in2="BackgroundImageFix" result="shape"/>
<feGaussianBlur stdDeviation="1" result="effect1_foregroundBlur_7_475"/>
</filter>
<filter id="filter4_df_7_475" x="2.21777" y="0" width="391.269" height="266" filterUnits="userSpaceOnUse" color-interpolation-filters="sRGB">
<feFlood flood-opacity="0" result="BackgroundImageFix"/>
<feColorMatrix in="SourceAlpha" type="matrix" values="0 0 0 0 0 0 0 0 0 0 0 0 0 0 0 0 0 0 127 0" result="hardAlpha"/>
<feOffset dx="10" dy="2"/>
<feGaussianBlur stdDeviation="15"/>
<feColorMatrix type="matrix" values="0 0 0 0 0.258824 0 0 0 0 0.627451 0 0 0 0 0.941176 0 0 0 0.596 0"/>
<feBlend mode="normal" in2="BackgroundImageFix" result="effect1_dropShadow_7_475"/>
<feBlend mode="normal" in="SourceGraphic" in2="effect1_dropShadow_7_475" result="shape"/>
<feGaussianBlur stdDeviation="2" result="effect2_foregroundBlur_7_475"/>
</filter>
<filter id="filter5_d_7_475" x="2.21777" y="0" width="391.269" height="266" filterUnits="userSpaceOnUse" color-interpolation-filters="sRGB">
<feFlood flood-opacity="0" result="BackgroundImageFix"/>
<feColorMatrix in="SourceAlpha" type="matrix" values="0 0 0 0 0 0 0 0 0 0 0 0 0 0 0 0 0 0 127 0" result="hardAlpha"/>
<feOffset dx="10" dy="2"/>
<feGaussianBlur stdDeviation="15"/>
<feColorMatrix type="matrix" values="0 0 0 0 0.501961 0 0 0 0 0.501961 0 0 0 0 0.501961 0 0 0 0.302 0"/>
<feBlend mode="normal" in2="BackgroundImageFix" result="effect1_dropShadow_7_475"/>
<feBlend mode="normal" in="SourceGraphic" in2="effect1_dropShadow_7_475" result="shape"/>
</filter>
<linearGradient id="paint0_linear_7_475" x1="52.9863" y1="11" x2="52.9863" y2="28" gradientUnits="userSpaceOnUse">
<stop stop-color="#6B38FC"/>
<stop offset="1" stop-color="#9F7EFD"/>
</linearGradient>
<linearGradient id="paint1_linear_7_475" x1="167.486" y1="158" x2="167.486" y2="172" gradientUnits="userSpaceOnUse">
<stop stop-color="#6B38FC"/>
<stop offset="1" stop-color="#9F7EFD"/>
</linearGradient>
<linearGradient id="paint2_linear_7_475" x1="133.49" y1="30.6048" x2="137.323" y2="44.9016" gradientUnits="userSpaceOnUse">
<stop stop-color="#6B38FC"/>
<stop offset="1" stop-color="#9F7EFD"/>
</linearGradient>
<linearGradient id="paint3_linear_7_475" x1="7.18887" y1="146.599" x2="12.3282" y2="158.705" gradientUnits="userSpaceOnUse">
<stop stop-color="#6B38FC"/>
<stop offset="1" stop-color="#9F7EFD"/>
</linearGradient>
<linearGradient id="paint4_linear_7_475" x1="130.151" y1="82.0393" x2="119.741" y2="79.6359" gradientUnits="userSpaceOnUse">
<stop stop-color="#6B38FC"/>
<stop offset="1" stop-color="#9F7EFD"/>
</linearGradient>
<linearGradient id="paint5_linear_7_475" x1="156.381" y1="53.9561" x2="222.424" y2="245.168" gradientUnits="userSpaceOnUse">
<stop stop-color="white" stop-opacity="0.596"/>
<stop offset="1" stop-color="#F7F7F7" stop-opacity="0.204"/>
</linearGradient>
</defs>
</svg>
