<svg width="409" height="347" viewBox="0 0 409 347" fill="none" xmlns="http://www.w3.org/2000/svg">
<g filter="url(#filter0_f_7_549)">
<path d="M156.082 148.295V157.143" stroke="#42A0F0" stroke-linecap="round"/>
<path d="M155.891 150.454L157.33 149.734" stroke="#42A0F0" stroke-linecap="round"/>
<path d="M155.89 150.454L153.731 149.734" stroke="#42A0F0" stroke-linecap="round"/>
<path d="M155.891 155.492L157.33 156.212" stroke="#42A0F0" stroke-linecap="round"/>
<path d="M155.89 155.492L153.731 156.212" stroke="#42A0F0" stroke-linecap="round"/>
<path d="M159.893 150.544L152.23 154.968" stroke="#42A0F0" stroke-linecap="round"/>
<path d="M158.01 151.61L160.134 152.143" stroke="#42A0F0" stroke-linecap="round"/>
<path d="M158.01 151.61L158.586 149.461" stroke="#42A0F0" stroke-linecap="round"/>
<path d="M153.923 153.969L153.323 156.076" stroke="#42A0F0" stroke-linecap="round"/>
<path d="M153.923 153.969L151.774 153.393" stroke="#42A0F0" stroke-linecap="round"/>
<path d="M159.849 154.968L152.186 150.544" stroke="#42A0F0" stroke-linecap="round"/>
<path d="M157.985 153.871L158.586 155.977" stroke="#42A0F0" stroke-linecap="round"/>
<path d="M157.985 153.871L160.134 153.295" stroke="#42A0F0" stroke-linecap="round"/>
<path d="M153.898 151.511L151.774 152.045" stroke="#42A0F0" stroke-linecap="round"/>
<path d="M153.898 151.511L153.322 149.362" stroke="#42A0F0" stroke-linecap="round"/>
</g>
<g filter="url(#filter1_f_7_549)">
<path d="M278.154 167.885V183.053" stroke="#42A0F0" stroke-linecap="round"/>
<path d="M277.521 171.326L280.4 170.606" stroke="#42A0F0" stroke-linecap="round"/>
<path d="M277.522 171.326L273.923 170.606" stroke="#42A0F0" stroke-linecap="round"/>
<path d="M277.521 179.962L280.4 181.401" stroke="#42A0F0" stroke-linecap="round"/>
<path d="M277.522 179.962L273.923 181.401" stroke="#42A0F0" stroke-linecap="round"/>
<path d="M284.685 171.74L271.549 179.324" stroke="#42A0F0" stroke-linecap="round"/>
<path d="M281.458 173.566L285.099 174.48" stroke="#42A0F0" stroke-linecap="round"/>
<path d="M281.459 173.566L282.445 169.883" stroke="#42A0F0" stroke-linecap="round"/>
<path d="M274.452 177.611L273.423 181.221" stroke="#42A0F0" stroke-linecap="round"/>
<path d="M274.452 177.611L270.77 176.624" stroke="#42A0F0" stroke-linecap="round"/>
<path d="M284.612 179.324L271.476 171.74" stroke="#42A0F0" stroke-linecap="round"/>
<path d="M281.417 177.444L282.446 181.054" stroke="#42A0F0" stroke-linecap="round"/>
<path d="M281.417 177.443L285.1 176.457" stroke="#42A0F0" stroke-linecap="round"/>
<path d="M274.411 173.398L270.77 174.312" stroke="#42A0F0" stroke-linecap="round"/>
<path d="M274.411 173.398L273.424 169.715" stroke="#42A0F0" stroke-linecap="round"/>
</g>
<g filter="url(#filter2_f_7_549)">
<path d="M366.81 191.439V203.892" stroke="#42A0F0" stroke-linecap="round"/>
<path d="M366.164 194.16L368.323 193.44" stroke="#42A0F0" stroke-linecap="round"/>
<path d="M366.164 194.16L363.285 193.44" stroke="#42A0F0" stroke-linecap="round"/>
<path d="M366.164 201.357L368.323 202.796" stroke="#42A0F0" stroke-linecap="round"/>
<path d="M366.164 201.357L363.285 202.796" stroke="#42A0F0" stroke-linecap="round"/>
<path d="M372.171 194.604L361.386 200.831" stroke="#42A0F0" stroke-linecap="round"/>
<path d="M369.523 196.105L372.513 196.855" stroke="#42A0F0" stroke-linecap="round"/>
<path d="M369.523 196.104L370.333 193.08" stroke="#42A0F0" stroke-linecap="round"/>
<path d="M363.771 199.425L362.927 202.389" stroke="#42A0F0" stroke-linecap="round"/>
<path d="M363.771 199.425L360.747 198.614" stroke="#42A0F0" stroke-linecap="round"/>
<path d="M372.111 200.83L361.327 194.604" stroke="#42A0F0" stroke-linecap="round"/>
<path d="M369.487 199.287L370.332 202.251" stroke="#42A0F0" stroke-linecap="round"/>
<path d="M369.487 199.286L372.512 198.476" stroke="#42A0F0" stroke-linecap="round"/>
<path d="M363.735 195.966L360.745 196.717" stroke="#42A0F0" stroke-linecap="round"/>
<path d="M363.736 195.966L362.925 192.942" stroke="#42A0F0" stroke-linecap="round"/>
</g>
<g filter="url(#filter3_f_7_549)">
<path d="M60.5518 244.227V255.196" stroke="#42A0F0" stroke-linecap="round"/>
<path d="M59.9658 246.948L62.1248 246.228" stroke="#42A0F0" stroke-linecap="round"/>
<path d="M59.9656 246.948L57.8066 246.228" stroke="#42A0F0" stroke-linecap="round"/>
<path d="M59.9658 252.705L62.1248 254.144" stroke="#42A0F0" stroke-linecap="round"/>
<path d="M59.9656 252.705L57.8066 254.144" stroke="#42A0F0" stroke-linecap="round"/>
<path d="M65.2764 247.015L55.7769 252.5" stroke="#42A0F0" stroke-linecap="round"/>
<path d="M62.9431 248.337L65.5763 248.998" stroke="#42A0F0" stroke-linecap="round"/>
<path d="M62.9435 248.337L63.6572 245.673" stroke="#42A0F0" stroke-linecap="round"/>
<path d="M57.876 251.262L57.1317 253.873" stroke="#42A0F0" stroke-linecap="round"/>
<path d="M57.8764 251.262L55.2126 250.548" stroke="#42A0F0" stroke-linecap="round"/>
<path d="M65.2227 252.499L55.7232 247.015" stroke="#42A0F0" stroke-linecap="round"/>
<path d="M62.9128 251.139L63.6571 253.75" stroke="#42A0F0" stroke-linecap="round"/>
<path d="M62.9124 251.139L65.5762 250.425" stroke="#42A0F0" stroke-linecap="round"/>
<path d="M57.8457 248.214L55.2125 248.875" stroke="#42A0F0" stroke-linecap="round"/>
<path d="M57.8453 248.214L57.1316 245.55" stroke="#42A0F0" stroke-linecap="round"/>
</g>
<g filter="url(#filter4_f_7_549)">
<path d="M216.161 286.166V295.063" stroke="#42A0F0" stroke-linecap="round"/>
<path d="M215.944 288.167L217.383 287.447" stroke="#42A0F0" stroke-linecap="round"/>
<path d="M215.944 288.167L213.785 287.447" stroke="#42A0F0" stroke-linecap="round"/>
<path d="M215.944 293.205L217.383 293.925" stroke="#42A0F0" stroke-linecap="round"/>
<path d="M215.944 293.205L213.785 293.925" stroke="#42A0F0" stroke-linecap="round"/>
<path d="M219.992 288.427L212.287 292.875" stroke="#42A0F0" stroke-linecap="round"/>
<path d="M218.1 289.499L220.236 290.035" stroke="#42A0F0" stroke-linecap="round"/>
<path d="M218.1 289.499L218.679 287.338" stroke="#42A0F0" stroke-linecap="round"/>
<path d="M213.99 291.872L213.386 293.99" stroke="#42A0F0" stroke-linecap="round"/>
<path d="M213.99 291.872L211.829 291.293" stroke="#42A0F0" stroke-linecap="round"/>
<path d="M219.949 292.875L212.244 288.426" stroke="#42A0F0" stroke-linecap="round"/>
<path d="M218.074 291.773L218.678 293.891" stroke="#42A0F0" stroke-linecap="round"/>
<path d="M218.074 291.773L220.235 291.194" stroke="#42A0F0" stroke-linecap="round"/>
<path d="M213.965 289.4L211.829 289.936" stroke="#42A0F0" stroke-linecap="round"/>
<path d="M213.965 289.4L213.386 287.239" stroke="#42A0F0" stroke-linecap="round"/>
</g>
<g filter="url(#filter5_f_7_549)">
<path d="M299.193 263.003V339.795" stroke="#42A0F0" stroke-width="6" stroke-linecap="round"/>
<path d="M299.04 281.774L312.265 268.122" stroke="#42A0F0" stroke-width="6" stroke-linecap="round"/>
<path d="M299.04 281.774L285.388 268.122" stroke="#42A0F0" stroke-width="6" stroke-linecap="round"/>
<path d="M299.04 322.73L312.265 336.382" stroke="#42A0F0" stroke-width="6" stroke-linecap="round"/>
<path d="M299.04 322.73L285.388 336.382" stroke="#42A0F0" stroke-width="6" stroke-linecap="round"/>
<path d="M332.262 282.52L265.758 320.916" stroke="#42A0F0" stroke-width="6" stroke-linecap="round"/>
<path d="M315.928 291.771L334.363 296.398" stroke="#42A0F0" stroke-width="6" stroke-linecap="round"/>
<path d="M315.928 291.772L320.925 273.123" stroke="#42A0F0" stroke-width="6" stroke-linecap="round"/>
<path d="M280.459 312.249L275.249 330.528" stroke="#42A0F0" stroke-width="6" stroke-linecap="round"/>
<path d="M280.459 312.249L261.81 307.252" stroke="#42A0F0" stroke-width="6" stroke-linecap="round"/>
<path d="M331.894 320.916L265.39 282.52" stroke="#42A0F0" stroke-width="6" stroke-linecap="round"/>
<path d="M315.714 311.396L320.925 329.675" stroke="#42A0F0" stroke-width="6" stroke-linecap="round"/>
<path d="M315.714 311.396L334.363 306.399" stroke="#42A0F0" stroke-width="6" stroke-linecap="round"/>
<path d="M280.245 290.918L261.81 295.546" stroke="#42A0F0" stroke-width="6" stroke-linecap="round"/>
<path d="M280.245 290.919L275.248 272.27" stroke="#42A0F0" stroke-width="6" stroke-linecap="round"/>
<path d="M212.193 175.003V251.795" stroke="#42A0F0" stroke-width="6" stroke-linecap="round"/>
<path d="M212.04 193.774L225.265 180.122" stroke="#42A0F0" stroke-width="6" stroke-linecap="round"/>
<path d="M212.04 193.774L198.388 180.122" stroke="#42A0F0" stroke-width="6" stroke-linecap="round"/>
<path d="M212.04 234.73L225.265 248.382" stroke="#42A0F0" stroke-width="6" stroke-linecap="round"/>
<path d="M212.04 234.73L198.388 248.382" stroke="#42A0F0" stroke-width="6" stroke-linecap="round"/>
<path d="M245.262 194.52L178.758 232.916" stroke="#42A0F0" stroke-width="6" stroke-linecap="round"/>
<path d="M228.928 203.771L247.363 208.398" stroke="#42A0F0" stroke-width="6" stroke-linecap="round"/>
<path d="M228.928 203.772L233.925 185.123" stroke="#42A0F0" stroke-width="6" stroke-linecap="round"/>
<path d="M193.459 224.249L188.249 242.528" stroke="#42A0F0" stroke-width="6" stroke-linecap="round"/>
<path d="M193.459 224.249L174.81 219.252" stroke="#42A0F0" stroke-width="6" stroke-linecap="round"/>
<path d="M244.894 232.916L178.39 194.52" stroke="#42A0F0" stroke-width="6" stroke-linecap="round"/>
<path d="M228.714 223.396L233.925 241.675" stroke="#42A0F0" stroke-width="6" stroke-linecap="round"/>
<path d="M228.714 223.396L247.363 218.399" stroke="#42A0F0" stroke-width="6" stroke-linecap="round"/>
<path d="M193.245 202.918L174.81 207.546" stroke="#42A0F0" stroke-width="6" stroke-linecap="round"/>
<path d="M193.245 202.919L188.248 184.27" stroke="#42A0F0" stroke-width="6" stroke-linecap="round"/>
<path d="M143.193 263.003V339.795" stroke="#42A0F0" stroke-width="6" stroke-linecap="round"/>
<path d="M143.04 281.774L156.265 268.122" stroke="#42A0F0" stroke-width="6" stroke-linecap="round"/>
<path d="M143.04 281.774L129.388 268.122" stroke="#42A0F0" stroke-width="6" stroke-linecap="round"/>
<path d="M143.04 322.73L156.265 336.382" stroke="#42A0F0" stroke-width="6" stroke-linecap="round"/>
<path d="M143.04 322.73L129.388 336.382" stroke="#42A0F0" stroke-width="6" stroke-linecap="round"/>
<path d="M176.262 282.52L109.758 320.916" stroke="#42A0F0" stroke-width="6" stroke-linecap="round"/>
<path d="M159.928 291.771L178.363 296.398" stroke="#42A0F0" stroke-width="6" stroke-linecap="round"/>
<path d="M159.928 291.772L164.925 273.123" stroke="#42A0F0" stroke-width="6" stroke-linecap="round"/>
<path d="M124.459 312.249L119.249 330.528" stroke="#42A0F0" stroke-width="6" stroke-linecap="round"/>
<path d="M124.459 312.249L105.81 307.252" stroke="#42A0F0" stroke-width="6" stroke-linecap="round"/>
<path d="M175.894 320.916L109.39 282.52" stroke="#42A0F0" stroke-width="6" stroke-linecap="round"/>
<path d="M159.714 311.396L164.925 329.675" stroke="#42A0F0" stroke-width="6" stroke-linecap="round"/>
<path d="M159.714 311.396L178.363 306.399" stroke="#42A0F0" stroke-width="6" stroke-linecap="round"/>
<path d="M124.245 290.918L105.81 295.546" stroke="#42A0F0" stroke-width="6" stroke-linecap="round"/>
<path d="M124.245 290.919L119.248 272.27" stroke="#42A0F0" stroke-width="6" stroke-linecap="round"/>
</g>
<g filter="url(#filter6_f_7_549)">
<path d="M90.4871 178.295C75.2648 178.315 60.3896 173.748 47.8011 165.19C36.3708 157.443 27.2385 146.759 21.3639 134.263C15.4893 121.767 13.0894 107.919 14.4163 94.1742C15.7433 80.4297 20.7481 67.2965 28.9048 56.1548C37.0615 45.0131 48.0689 36.2743 60.7701 30.8568C70.1664 26.8588 80.2757 24.8075 90.4871 24.8268C93.468 24.8269 96.4463 24.9998 99.4071 25.3448C97.6809 29.1194 96.3602 33.0665 95.4671 37.1198C94.5492 41.3033 94.0869 45.5738 94.0881 49.8568C94.069 61.6099 97.578 73.0983 104.161 82.8348C108.405 89.1147 113.813 94.5229 120.093 98.7668C123.249 100.899 126.605 102.72 130.112 104.205C137.375 107.279 145.184 108.855 153.071 108.84C157.634 108.841 162.182 108.316 166.624 107.275C165.576 121.709 160.46 135.551 151.869 147.197C149.09 150.965 145.974 154.472 142.559 157.676C128.467 170.938 109.839 178.314 90.4871 178.295Z" fill="#713FFD"/>
</g>
<g filter="url(#filter7_f_7_549)">
<path d="M77.0538 91.0074C94.1916 75.5764 99.5265 53.5624 88.9695 41.8377C78.4126 30.1131 55.9615 33.1176 38.8237 48.5486C21.6859 63.9795 16.3511 85.9935 26.908 97.7182C37.465 109.443 59.916 106.438 77.0538 91.0074Z" fill="#A586FC"/>
</g>
<g filter="url(#filter8_f_7_549)">
<path d="M52.9863 5L55.5513 11.2L62.4863 13.5L55.5513 15.8L52.9863 22L50.4213 15.8L43.4863 13.5L50.4213 11.2L52.9863 5Z" fill="url(#paint0_linear_7_549)"/>
<path d="M167.486 152L169.646 157.11L175.486 159L169.646 160.89L167.486 166L165.326 160.89L159.486 159L165.326 157.11L167.486 152Z" fill="url(#paint1_linear_7_549)"/>
<path d="M133.488 24.6052L137.03 29.2472L143.344 29.6252L138.066 33.1112L137.322 38.902L133.781 34.2497L127.467 33.8716L132.745 30.3856L133.488 24.6052Z" fill="url(#paint2_linear_7_549)"/>
<path d="M7.1838 140.601L11.0048 144.196L16.9482 143.602L12.3921 147.464L12.3231 152.707L8.51299 149.109L2.56965 149.704L7.1265 145.843L7.1838 140.601Z" fill="url(#paint3_linear_7_549)"/>
<path d="M130.152 76.0383L125.952 76.8895L123.468 81.2421L123.142 76.2408L119.741 73.6349L123.943 72.7863L126.427 68.4335L126.75 73.4344L130.152 76.0383Z" fill="url(#paint4_linear_7_549)"/>
</g>
<g filter="url(#filter9_d_7_549)">
<g filter="url(#filter10_d_7_549)">
<path d="M252.78 233.765C250.847 233.92 248.894 233.999 246.923 234H109.399C99.9327 234.035 90.5526 232.201 81.7968 228.603C73.041 225.005 65.0817 219.714 58.3755 213.032C51.6693 206.351 46.3483 198.412 42.7175 189.669C39.0868 180.927 37.2178 171.554 37.2178 162.087C37.2178 152.621 39.0868 143.248 42.7175 134.506C46.3483 125.763 51.6693 117.824 58.3755 111.143C65.0817 104.461 73.041 99.17 81.7968 95.5718C90.5526 91.9737 99.9327 90.1397 109.399 90.175H160.675C177.299 53.6 215.586 28 260.159 28C319.986 28 368.486 74.115 368.486 131C368.486 187.885 319.986 234 260.159 234C257.679 234 255.219 233.922 252.78 233.765Z" fill="url(#paint5_linear_7_549)"/>
<path d="M260.159 233C267.445 233 274.726 232.302 281.8 230.926C288.693 229.585 295.473 227.584 301.952 224.978C308.312 222.42 314.447 219.254 320.185 215.568C325.869 211.917 331.213 207.725 336.069 203.107C340.925 198.49 345.333 193.411 349.171 188.009C353.045 182.557 356.372 176.728 359.06 170.686C361.797 164.532 363.899 158.093 365.308 151.547C366.754 144.831 367.487 137.917 367.487 131C367.487 124.082 366.754 117.169 365.308 110.452C363.899 103.906 361.797 97.4673 359.06 91.3142C356.372 85.2716 353.045 79.4433 349.171 73.991C345.333 68.5893 340.925 63.5095 336.069 58.8928C331.213 54.2752 325.869 50.0829 320.185 46.4323C314.447 42.7461 308.312 39.5801 301.952 37.0221C295.473 34.4165 288.693 32.4154 281.8 31.0742C274.726 29.6979 267.445 29 260.159 29C238.788 29 218.149 34.9523 200.473 46.2135C191.952 51.6418 184.296 58.1939 177.716 65.6878C171.094 73.2291 165.667 81.6069 161.585 90.5885L161.319 91.1747H160.675H109.399C99.8255 91.1747 90.5388 93.0495 81.797 96.747C77.5953 98.5242 73.5427 100.724 69.7518 103.285C65.9967 105.822 62.4655 108.735 59.2562 111.945C56.047 115.154 53.1335 118.685 50.5965 122.44C48.0355 126.231 45.8358 130.284 44.0586 134.485C40.3611 143.227 38.4863 152.514 38.4863 162.087C38.4863 171.661 40.3611 180.948 44.0586 189.689C45.8358 193.891 48.0355 197.944 50.5965 201.735C53.1335 205.49 56.047 209.021 59.2562 212.23C62.4655 215.439 65.9967 218.353 69.7518 220.89C73.5427 223.451 77.5953 225.651 81.797 227.428C90.5388 231.125 99.8255 233 109.399 233H246.924C248.846 233 250.79 232.922 252.7 232.768L252.772 232.762L252.845 232.767C255.264 232.922 257.725 233 260.159 233ZM260.159 234C257.679 234 255.219 233.921 252.781 233.765C250.85 233.92 248.894 234 246.924 234H109.399C69.6829 234 37.4863 201.803 37.4863 162.087C37.4863 122.371 69.6829 90.1747 109.399 90.1747H160.675C177.299 53.5954 215.584 28 260.159 28C319.986 28 368.487 74.1151 368.487 131C368.487 187.885 319.986 234 260.159 234Z" fill="white" fill-opacity="0.5"/>
</g>
</g>
<defs>
<filter id="filter0_f_7_549" x="149.274" y="145.795" width="13.3594" height="13.8481" filterUnits="userSpaceOnUse" color-interpolation-filters="sRGB">
<feFlood flood-opacity="0" result="BackgroundImageFix"/>
<feBlend mode="normal" in="SourceGraphic" in2="BackgroundImageFix" result="shape"/>
<feGaussianBlur stdDeviation="1" result="effect1_foregroundBlur_7_549"/>
</filter>
<filter id="filter1_f_7_549" x="268.27" y="165.385" width="19.3301" height="20.168" filterUnits="userSpaceOnUse" color-interpolation-filters="sRGB">
<feFlood flood-opacity="0" result="BackgroundImageFix"/>
<feBlend mode="normal" in="SourceGraphic" in2="BackgroundImageFix" result="shape"/>
<feGaussianBlur stdDeviation="1" result="effect1_foregroundBlur_7_549"/>
</filter>
<filter id="filter2_f_7_549" x="358.245" y="188.939" width="16.7676" height="17.4531" filterUnits="userSpaceOnUse" color-interpolation-filters="sRGB">
<feFlood flood-opacity="0" result="BackgroundImageFix"/>
<feBlend mode="normal" in="SourceGraphic" in2="BackgroundImageFix" result="shape"/>
<feGaussianBlur stdDeviation="1" result="effect1_foregroundBlur_7_549"/>
</filter>
<filter id="filter3_f_7_549" x="52.7119" y="241.727" width="15.3643" height="15.9692" filterUnits="userSpaceOnUse" color-interpolation-filters="sRGB">
<feFlood flood-opacity="0" result="BackgroundImageFix"/>
<feBlend mode="normal" in="SourceGraphic" in2="BackgroundImageFix" result="shape"/>
<feGaussianBlur stdDeviation="1" result="effect1_foregroundBlur_7_549"/>
</filter>
<filter id="filter4_f_7_549" x="209.329" y="283.666" width="13.4072" height="13.897" filterUnits="userSpaceOnUse" color-interpolation-filters="sRGB">
<feFlood flood-opacity="0" result="BackgroundImageFix"/>
<feBlend mode="normal" in="SourceGraphic" in2="BackgroundImageFix" result="shape"/>
<feGaussianBlur stdDeviation="1" result="effect1_foregroundBlur_7_549"/>
</filter>
<filter id="filter5_f_7_549" x="98.8086" y="168.003" width="242.556" height="178.792" filterUnits="userSpaceOnUse" color-interpolation-filters="sRGB">
<feFlood flood-opacity="0" result="BackgroundImageFix"/>
<feBlend mode="normal" in="SourceGraphic" in2="BackgroundImageFix" result="shape"/>
<feGaussianBlur stdDeviation="2" result="effect1_foregroundBlur_7_549"/>
</filter>
<filter id="filter6_f_7_549" x="10.0605" y="20.8267" width="160.563" height="161.468" filterUnits="userSpaceOnUse" color-interpolation-filters="sRGB">
<feFlood flood-opacity="0" result="BackgroundImageFix"/>
<feBlend mode="normal" in="SourceGraphic" in2="BackgroundImageFix" result="shape"/>
<feGaussianBlur stdDeviation="2" result="effect1_foregroundBlur_7_549"/>
</filter>
<filter id="filter7_f_7_549" x="1.48828" y="14.6855" width="112.901" height="110.185" filterUnits="userSpaceOnUse" color-interpolation-filters="sRGB">
<feFlood flood-opacity="0" result="BackgroundImageFix"/>
<feBlend mode="normal" in="SourceGraphic" in2="BackgroundImageFix" result="shape"/>
<feGaussianBlur stdDeviation="10" result="effect1_foregroundBlur_7_549"/>
</filter>
<filter id="filter8_f_7_549" x="0.569336" y="3" width="176.917" height="165" filterUnits="userSpaceOnUse" color-interpolation-filters="sRGB">
<feFlood flood-opacity="0" result="BackgroundImageFix"/>
<feBlend mode="normal" in="SourceGraphic" in2="BackgroundImageFix" result="shape"/>
<feGaussianBlur stdDeviation="1" result="effect1_foregroundBlur_7_549"/>
</filter>
<filter id="filter9_d_7_549" x="17.2178" y="0" width="391.269" height="266" filterUnits="userSpaceOnUse" color-interpolation-filters="sRGB">
<feFlood flood-opacity="0" result="BackgroundImageFix"/>
<feColorMatrix in="SourceAlpha" type="matrix" values="0 0 0 0 0 0 0 0 0 0 0 0 0 0 0 0 0 0 127 0" result="hardAlpha"/>
<feOffset dx="10" dy="2"/>
<feGaussianBlur stdDeviation="15"/>
<feColorMatrix type="matrix" values="0 0 0 0 0.258824 0 0 0 0 0.627451 0 0 0 0 0.941176 0 0 0 0.596 0"/>
<feBlend mode="normal" in2="BackgroundImageFix" result="effect1_dropShadow_7_549"/>
<feBlend mode="normal" in="SourceGraphic" in2="effect1_dropShadow_7_549" result="shape"/>
</filter>
<filter id="filter10_d_7_549" x="17.2178" y="0" width="391.269" height="266" filterUnits="userSpaceOnUse" color-interpolation-filters="sRGB">
<feFlood flood-opacity="0" result="BackgroundImageFix"/>
<feColorMatrix in="SourceAlpha" type="matrix" values="0 0 0 0 0 0 0 0 0 0 0 0 0 0 0 0 0 0 127 0" result="hardAlpha"/>
<feOffset dx="10" dy="2"/>
<feGaussianBlur stdDeviation="15"/>
<feColorMatrix type="matrix" values="0 0 0 0 0.501961 0 0 0 0 0.501961 0 0 0 0 0.501961 0 0 0 0.302 0"/>
<feBlend mode="normal" in2="BackgroundImageFix" result="effect1_dropShadow_7_549"/>
<feBlend mode="normal" in="SourceGraphic" in2="effect1_dropShadow_7_549" result="shape"/>
</filter>
<linearGradient id="paint0_linear_7_549" x1="52.9863" y1="5" x2="52.9863" y2="22" gradientUnits="userSpaceOnUse">
<stop stop-color="#6B38FC"/>
<stop offset="1" stop-color="#9F7EFD"/>
</linearGradient>
<linearGradient id="paint1_linear_7_549" x1="167.486" y1="152" x2="167.486" y2="166" gradientUnits="userSpaceOnUse">
<stop stop-color="#6B38FC"/>
<stop offset="1" stop-color="#9F7EFD"/>
</linearGradient>
<linearGradient id="paint2_linear_7_549" x1="133.49" y1="24.6048" x2="137.323" y2="38.9016" gradientUnits="userSpaceOnUse">
<stop stop-color="#6B38FC"/>
<stop offset="1" stop-color="#9F7EFD"/>
</linearGradient>
<linearGradient id="paint3_linear_7_549" x1="7.18887" y1="140.599" x2="12.3282" y2="152.705" gradientUnits="userSpaceOnUse">
<stop stop-color="#6B38FC"/>
<stop offset="1" stop-color="#9F7EFD"/>
</linearGradient>
<linearGradient id="paint4_linear_7_549" x1="130.151" y1="76.0393" x2="119.741" y2="73.6359" gradientUnits="userSpaceOnUse">
<stop stop-color="#6B38FC"/>
<stop offset="1" stop-color="#9F7EFD"/>
</linearGradient>
<linearGradient id="paint5_linear_7_549" x1="171.381" y1="53.9561" x2="237.424" y2="245.168" gradientUnits="userSpaceOnUse">
<stop stop-color="white" stop-opacity="0.596"/>
<stop offset="1" stop-color="#F7F7F7" stop-opacity="0.204"/>
</linearGradient>
</defs>
</svg>
