<svg width="394" height="321" viewBox="0 0 394 321" fill="none" xmlns="http://www.w3.org/2000/svg">
<g filter="url(#filter0_f_7_1052)">
<path d="M123.054 241.122C125.345 241.151 148.563 277.402 148.563 291.491C148.563 298.256 145.875 304.745 141.092 309.529C136.308 314.313 129.819 317 123.054 317C116.289 317 109.8 314.313 105.016 309.529C100.232 304.745 97.5449 298.256 97.5449 291.491C97.5449 277.402 120.765 241.097 123.054 241.122Z" fill="#42A0F0"/>
<path d="M103.604 301.027C106.152 301.806 109.392 298.6 110.839 293.866C112.286 289.133 111.393 284.663 108.845 283.884C106.296 283.105 103.056 286.311 101.609 291.045C100.162 295.778 101.055 300.248 103.604 301.027Z" fill="white"/>
<path d="M263.356 241.122C265.647 241.151 288.865 277.402 288.865 291.491C288.865 298.256 286.177 304.745 281.393 309.529C276.609 314.313 270.121 317 263.356 317C256.59 317 250.102 314.313 245.318 309.529C240.534 304.745 237.847 298.256 237.847 291.491C237.847 277.402 261.067 241.097 263.356 241.122Z" fill="#42A0F0"/>
<path d="M243.905 301.027C246.454 301.806 249.694 298.6 251.141 293.866C252.588 289.133 251.695 284.663 249.146 283.884C246.598 283.105 243.358 286.311 241.911 291.045C240.463 295.778 241.356 300.248 243.905 301.027Z" fill="white"/>
<path d="M187.91 193.295C190.201 193.324 213.419 229.575 213.419 243.664C213.419 250.429 210.732 256.918 205.948 261.702C201.164 266.485 194.676 269.173 187.91 269.173C181.145 269.173 174.657 266.485 169.873 261.702C165.089 256.918 162.401 250.429 162.401 243.664C162.401 229.575 185.621 193.27 187.91 193.295Z" fill="#42A0F0"/>
<path d="M168.46 253.2C171.009 253.979 174.248 250.773 175.696 246.039C177.143 241.305 176.25 236.836 173.701 236.057C171.152 235.278 167.913 238.484 166.465 243.217C165.018 247.951 165.911 252.42 168.46 253.2Z" fill="white"/>
</g>
<g filter="url(#filter1_f_7_1052)">
<path d="M97.5 171C138.093 171 171 138.093 171 97.5C171 56.9071 138.093 24 97.5 24C56.9071 24 24 56.9071 24 97.5C24 138.093 56.9071 171 97.5 171Z" fill="#FA9E42"/>
</g>
<g filter="url(#filter2_f_7_1052)">
<path d="M97.5 188C147.482 188 188 147.482 188 97.5C188 47.5182 147.482 7 97.5 7C47.5182 7 7 47.5182 7 97.5C7 147.482 47.5182 188 97.5 188Z" stroke="#FA9E42" stroke-width="10" stroke-linecap="round" stroke-dasharray="1 66"/>
</g>
<g filter="url(#filter3_f_7_1052)">
<path d="M89.6695 82.824C115.412 69.151 129.974 46.1934 122.195 31.5468C114.415 16.9002 87.2401 16.1109 61.4976 29.7839C35.7551 43.4569 21.1932 66.4144 28.9727 81.061C36.7521 95.7076 63.927 96.4969 89.6695 82.824Z" fill="#F8E36F"/>
</g>
<g filter="url(#filter4_df_7_1052)">
<g filter="url(#filter5_d_7_1052)">
<path d="M237.839 247.765C235.905 247.92 233.953 247.999 231.982 248H94.4575C84.9913 248.035 75.6112 246.201 66.8554 242.603C58.0995 239.005 50.1403 233.714 43.4341 227.032C36.7279 220.351 31.4069 212.412 27.7761 203.669C24.1453 194.927 22.2764 185.554 22.2764 176.087C22.2764 166.621 24.1453 157.248 27.7761 148.506C31.4069 139.763 36.7279 131.824 43.4341 125.143C50.1403 118.461 58.0995 113.17 66.8554 109.572C75.6112 105.974 84.9913 104.14 94.4575 104.175H145.734C162.358 67.6 200.645 42 245.218 42C305.045 42 353.545 88.115 353.545 145C353.545 201.885 305.045 248 245.218 248C242.738 248 240.278 247.922 237.839 247.765Z" fill="url(#paint0_linear_7_1052)"/>
<path d="M245.217 247C252.503 247 259.784 246.302 266.858 244.926C273.751 243.585 280.531 241.584 287.01 238.978C293.371 236.42 299.506 233.254 305.244 229.568C310.927 225.917 316.271 221.725 321.128 217.107C325.983 212.49 330.391 207.411 334.229 202.009C338.103 196.557 341.431 190.728 344.118 184.686C346.856 178.532 348.958 172.093 350.367 165.547C351.812 158.831 352.545 151.917 352.545 145C352.545 138.082 351.812 131.169 350.367 124.452C348.958 117.906 346.856 111.467 344.118 105.314C341.431 99.2716 338.103 93.4433 334.229 87.991C330.391 82.5893 325.983 77.5095 321.128 72.8928C316.271 68.2752 310.927 64.0829 305.244 60.4323C299.506 56.7461 293.371 53.5801 287.01 51.0221C280.531 48.4165 273.751 46.4154 266.858 45.0742C259.784 43.6979 252.503 43 245.217 43C223.847 43 203.208 48.9523 185.531 60.2135C177.011 65.6418 169.354 72.1939 162.774 79.6878C156.153 87.2291 150.726 95.6069 146.644 104.588L146.377 105.175H145.733H94.4576C84.884 105.175 75.5974 107.049 66.8555 110.747C62.6539 112.524 58.6013 114.724 54.8104 117.285C51.0553 119.822 47.524 122.735 44.3148 125.945C41.1056 129.154 38.1921 132.685 35.6551 136.44C33.094 140.231 30.8944 144.284 29.1172 148.485C25.4197 157.227 23.5449 166.514 23.5449 176.087C23.5449 185.661 25.4197 194.948 29.1172 203.689C30.8944 207.891 33.094 211.944 35.6551 215.735C38.1921 219.49 41.1056 223.021 44.3148 226.23C47.524 229.439 51.0553 232.353 54.8104 234.89C58.6013 237.451 62.6539 239.651 66.8555 241.428C75.5974 245.125 84.884 247 94.4576 247H231.982C233.905 247 235.849 246.922 237.759 246.768L237.831 246.762L237.903 246.767C240.323 246.922 242.783 247 245.217 247ZM245.217 248C242.738 248 240.277 247.921 237.839 247.765C235.909 247.92 233.953 248 231.982 248H94.4576C54.7415 248 22.5449 215.803 22.5449 176.087C22.5449 136.371 54.7415 104.175 94.4576 104.175H145.733C162.358 67.5954 200.643 42 245.217 42C305.045 42 353.545 88.1151 353.545 145C353.545 201.885 305.045 248 245.217 248Z" fill="white" fill-opacity="0.5"/>
</g>
</g>
<defs>
<filter id="filter0_f_7_1052" x="93.5449" y="189.295" width="199.319" height="131.705" filterUnits="userSpaceOnUse" color-interpolation-filters="sRGB">
<feFlood flood-opacity="0" result="BackgroundImageFix"/>
<feBlend mode="normal" in="SourceGraphic" in2="BackgroundImageFix" result="shape"/>
<feGaussianBlur stdDeviation="2" result="effect1_foregroundBlur_7_1052"/>
</filter>
<filter id="filter1_f_7_1052" x="20" y="20" width="155" height="155" filterUnits="userSpaceOnUse" color-interpolation-filters="sRGB">
<feFlood flood-opacity="0" result="BackgroundImageFix"/>
<feBlend mode="normal" in="SourceGraphic" in2="BackgroundImageFix" result="shape"/>
<feGaussianBlur stdDeviation="2" result="effect1_foregroundBlur_7_1052"/>
</filter>
<filter id="filter2_f_7_1052" x="0" y="0" width="195" height="195" filterUnits="userSpaceOnUse" color-interpolation-filters="sRGB">
<feFlood flood-opacity="0" result="BackgroundImageFix"/>
<feBlend mode="normal" in="SourceGraphic" in2="BackgroundImageFix" result="shape"/>
<feGaussianBlur stdDeviation="1" result="effect1_foregroundBlur_7_1052"/>
</filter>
<filter id="filter3_f_7_1052" x="6.87793" y="0.0239258" width="137.411" height="112.56" filterUnits="userSpaceOnUse" color-interpolation-filters="sRGB">
<feFlood flood-opacity="0" result="BackgroundImageFix"/>
<feBlend mode="normal" in="SourceGraphic" in2="BackgroundImageFix" result="shape"/>
<feGaussianBlur stdDeviation="10" result="effect1_foregroundBlur_7_1052"/>
</filter>
<filter id="filter4_df_7_1052" x="2.27637" y="14" width="391.269" height="266" filterUnits="userSpaceOnUse" color-interpolation-filters="sRGB">
<feFlood flood-opacity="0" result="BackgroundImageFix"/>
<feColorMatrix in="SourceAlpha" type="matrix" values="0 0 0 0 0 0 0 0 0 0 0 0 0 0 0 0 0 0 127 0" result="hardAlpha"/>
<feOffset dx="10" dy="2"/>
<feGaussianBlur stdDeviation="15"/>
<feColorMatrix type="matrix" values="0 0 0 0 0.258824 0 0 0 0 0.627451 0 0 0 0 0.941176 0 0 0 0.596 0"/>
<feBlend mode="normal" in2="BackgroundImageFix" result="effect1_dropShadow_7_1052"/>
<feBlend mode="normal" in="SourceGraphic" in2="effect1_dropShadow_7_1052" result="shape"/>
<feGaussianBlur stdDeviation="2" result="effect2_foregroundBlur_7_1052"/>
</filter>
<filter id="filter5_d_7_1052" x="2.27637" y="14" width="391.269" height="266" filterUnits="userSpaceOnUse" color-interpolation-filters="sRGB">
<feFlood flood-opacity="0" result="BackgroundImageFix"/>
<feColorMatrix in="SourceAlpha" type="matrix" values="0 0 0 0 0 0 0 0 0 0 0 0 0 0 0 0 0 0 127 0" result="hardAlpha"/>
<feOffset dx="10" dy="2"/>
<feGaussianBlur stdDeviation="15"/>
<feColorMatrix type="matrix" values="0 0 0 0 0.501961 0 0 0 0 0.501961 0 0 0 0 0.501961 0 0 0 0.302 0"/>
<feBlend mode="normal" in2="BackgroundImageFix" result="effect1_dropShadow_7_1052"/>
<feBlend mode="normal" in="SourceGraphic" in2="effect1_dropShadow_7_1052" result="shape"/>
</filter>
<linearGradient id="paint0_linear_7_1052" x1="156.44" y1="67.9561" x2="222.482" y2="259.168" gradientUnits="userSpaceOnUse">
<stop stop-color="white" stop-opacity="0.596"/>
<stop offset="1" stop-color="#F7F7F7" stop-opacity="0.204"/>
</linearGradient>
</defs>
</svg>
