<svg width="392" height="328" viewBox="0 0 392 328" fill="none" xmlns="http://www.w3.org/2000/svg">
<g filter="url(#filter0_f_7_1024)">
<path d="M126.355 232.835C126.884 233.318 115.815 257.126 109.383 264.526C102.951 271.925 95.042 275.575 91.7152 272.683C88.3885 269.792 90.9022 261.452 97.3349 254.052C103.768 246.652 125.827 232.351 126.355 232.835Z" fill="#42A0F0"/>
<path d="M98.4802 259.023C99.1264 260.057 101.363 259.825 103.477 258.505C105.59 257.184 106.779 255.275 106.133 254.241C105.487 253.207 103.25 253.439 101.136 254.76C99.0232 256.08 97.834 257.989 98.4802 259.023Z" fill="white"/>
<path d="M194.355 232.835C194.884 233.318 183.815 257.126 177.383 264.526C170.951 271.925 163.042 275.575 159.715 272.683C156.388 269.792 158.902 261.452 165.335 254.052C171.768 246.652 193.827 232.351 194.355 232.835Z" fill="#42A0F0"/>
<path d="M166.48 259.023C167.126 260.057 169.363 259.825 171.477 258.505C173.59 257.184 174.779 255.275 174.133 254.241C173.487 253.207 171.25 253.439 169.136 254.76C167.023 256.08 165.834 257.989 166.48 259.023Z" fill="white"/>
<path d="M262.355 232.835C262.884 233.318 251.815 257.126 245.383 264.526C238.951 271.925 231.042 275.575 227.715 272.683C224.388 269.792 226.902 261.452 233.335 254.052C239.768 246.652 261.827 232.351 262.355 232.835Z" fill="#42A0F0"/>
<path d="M234.48 259.023C235.126 260.057 237.363 259.825 239.477 258.505C241.59 257.184 242.779 255.275 242.133 254.241C241.487 253.207 239.25 253.439 237.136 254.76C235.023 256.08 233.834 257.989 234.48 259.023Z" fill="white"/>
<path d="M202.355 282.835C202.884 283.318 191.815 307.126 185.383 314.526C178.951 321.925 171.042 325.575 167.715 322.683C164.388 319.792 166.902 311.452 173.335 304.052C179.768 296.652 201.827 282.351 202.355 282.835Z" fill="#42A0F0"/>
<path d="M174.48 309.023C175.126 310.057 177.363 309.825 179.477 308.505C181.59 307.184 182.779 305.275 182.133 304.241C181.487 303.207 179.25 303.439 177.136 304.76C175.023 306.08 173.834 307.989 174.48 309.023Z" fill="white"/>
<path d="M126.355 282.835C126.884 283.318 115.815 307.126 109.383 314.526C102.951 321.925 95.042 325.575 91.7152 322.683C88.3885 319.792 90.9022 311.452 97.3349 304.052C103.768 296.652 125.827 282.351 126.355 282.835Z" fill="#42A0F0"/>
<path d="M98.4802 309.023C99.1264 310.057 101.363 309.825 103.477 308.505C105.59 307.184 106.779 305.275 106.133 304.241C105.487 303.207 103.25 303.439 101.136 304.76C99.0232 306.08 97.834 307.989 98.4802 309.023Z" fill="white"/>
</g>
<g filter="url(#filter1_f_7_1024)">
<path d="M115.5 171C156.093 171 189 138.093 189 97.5C189 56.9071 156.093 24 115.5 24C74.9071 24 42 56.9071 42 97.5C42 138.093 74.9071 171 115.5 171Z" fill="#FA9E42"/>
</g>
<g filter="url(#filter2_f_7_1024)">
<path d="M115.5 188C165.482 188 206 147.482 206 97.5C206 47.5182 165.482 7 115.5 7C65.5182 7 25 47.5182 25 97.5C25 147.482 65.5182 188 115.5 188Z" stroke="#FA9E42" stroke-width="10" stroke-linecap="round" stroke-dasharray="1 66"/>
</g>
<g filter="url(#filter3_f_7_1024)">
<path d="M107.712 82.824C133.455 69.151 148.017 46.1934 140.237 31.5468C132.458 16.9002 105.283 16.1109 79.5406 29.7839C53.7981 43.4569 39.2362 66.4144 47.0156 81.061C54.7951 95.7076 81.97 96.4969 107.712 82.824Z" fill="#F8E36F"/>
</g>
<g filter="url(#filter4_df_7_1024)">
<g filter="url(#filter5_d_7_1024)">
<path d="M235.882 259.765C233.949 259.92 231.997 259.999 230.025 260H92.5015C83.0352 260.035 73.6552 258.201 64.8993 254.603C56.1435 251.005 48.1842 245.714 41.478 239.032C34.7719 232.351 29.4508 224.412 25.82 215.669C22.1893 206.927 20.3203 197.554 20.3203 188.087C20.3203 178.621 22.1893 169.248 25.82 160.506C29.4508 151.763 34.7719 143.824 41.478 137.143C48.1842 130.461 56.1435 125.17 64.8993 121.572C73.6552 117.974 83.0352 116.14 92.5015 116.175H143.777C160.401 79.6 198.688 54 243.261 54C303.088 54 351.588 100.115 351.588 157C351.588 213.885 303.088 260 243.261 260C240.781 260 238.322 259.922 235.882 259.765Z" fill="url(#paint0_linear_7_1024)"/>
<path d="M243.261 259C250.547 259 257.828 258.302 264.902 256.926C271.795 255.585 278.575 253.584 285.054 250.978C291.415 248.42 297.55 245.254 303.288 241.568C308.971 237.917 314.315 233.725 319.171 229.107C324.027 224.49 328.435 219.411 332.273 214.009C336.147 208.557 339.474 202.728 342.162 196.686C344.9 190.532 347.002 184.093 348.411 177.547C349.856 170.831 350.589 163.917 350.589 157C350.589 150.082 349.856 143.169 348.411 136.452C347.002 129.906 344.9 123.467 342.162 117.314C339.474 111.272 336.147 105.443 332.273 99.991C328.435 94.5893 324.027 89.5095 319.172 84.8928C314.315 80.2752 308.971 76.0829 303.288 72.4323C297.55 68.7461 291.415 65.5801 285.054 63.0221C278.575 60.4165 271.795 58.4154 264.902 57.0742C257.828 55.6979 250.547 55 243.261 55C221.891 55 201.251 60.9523 183.575 72.2135C175.055 77.6418 167.398 84.1939 160.818 91.6878C154.197 99.2291 148.77 107.607 144.688 116.588L144.421 117.175H143.777H92.5015C82.928 117.175 73.6413 119.049 64.8995 122.747C60.6979 124.524 56.6453 126.724 52.8544 129.285C49.0992 131.822 45.568 134.735 42.3588 137.945C39.1496 141.154 36.236 144.685 33.6991 148.44C31.138 152.231 28.9383 156.284 27.1612 160.485C23.4637 169.227 21.5889 178.514 21.5889 188.087C21.5889 197.661 23.4637 206.948 27.1612 215.689C28.9383 219.891 31.138 223.944 33.6991 227.735C36.236 231.49 39.1496 235.021 42.3588 238.23C45.568 241.439 49.0992 244.353 52.8544 246.89C56.6453 249.451 60.6979 251.651 64.8995 253.428C73.6413 257.125 82.928 259 92.5015 259H230.026C231.949 259 233.893 258.922 235.803 258.768L235.875 258.762L235.947 258.767C238.366 258.922 240.827 259 243.261 259ZM243.261 260C240.782 260 238.321 259.921 235.883 259.765C233.953 259.92 231.997 260 230.026 260H92.5015C52.7854 260 20.5889 227.803 20.5889 188.087C20.5889 148.371 52.7854 116.175 92.5015 116.175H143.777C160.402 79.5954 198.687 54 243.261 54C303.089 54 351.589 100.115 351.589 157C351.589 213.885 303.089 260 243.261 260Z" fill="white" fill-opacity="0.5"/>
</g>
</g>
<defs>
<filter id="filter0_f_7_1024" x="86.2461" y="228.823" width="180.127" height="98.8521" filterUnits="userSpaceOnUse" color-interpolation-filters="sRGB">
<feFlood flood-opacity="0" result="BackgroundImageFix"/>
<feBlend mode="normal" in="SourceGraphic" in2="BackgroundImageFix" result="shape"/>
<feGaussianBlur stdDeviation="2" result="effect1_foregroundBlur_7_1024"/>
</filter>
<filter id="filter1_f_7_1024" x="38" y="20" width="155" height="155" filterUnits="userSpaceOnUse" color-interpolation-filters="sRGB">
<feFlood flood-opacity="0" result="BackgroundImageFix"/>
<feBlend mode="normal" in="SourceGraphic" in2="BackgroundImageFix" result="shape"/>
<feGaussianBlur stdDeviation="2" result="effect1_foregroundBlur_7_1024"/>
</filter>
<filter id="filter2_f_7_1024" x="18" y="0" width="195" height="195" filterUnits="userSpaceOnUse" color-interpolation-filters="sRGB">
<feFlood flood-opacity="0" result="BackgroundImageFix"/>
<feBlend mode="normal" in="SourceGraphic" in2="BackgroundImageFix" result="shape"/>
<feGaussianBlur stdDeviation="1" result="effect1_foregroundBlur_7_1024"/>
</filter>
<filter id="filter3_f_7_1024" x="24.9209" y="0.0239258" width="137.411" height="112.56" filterUnits="userSpaceOnUse" color-interpolation-filters="sRGB">
<feFlood flood-opacity="0" result="BackgroundImageFix"/>
<feBlend mode="normal" in="SourceGraphic" in2="BackgroundImageFix" result="shape"/>
<feGaussianBlur stdDeviation="10" result="effect1_foregroundBlur_7_1024"/>
</filter>
<filter id="filter4_df_7_1024" x="0.320312" y="26" width="391.269" height="266" filterUnits="userSpaceOnUse" color-interpolation-filters="sRGB">
<feFlood flood-opacity="0" result="BackgroundImageFix"/>
<feColorMatrix in="SourceAlpha" type="matrix" values="0 0 0 0 0 0 0 0 0 0 0 0 0 0 0 0 0 0 127 0" result="hardAlpha"/>
<feOffset dx="10" dy="2"/>
<feGaussianBlur stdDeviation="15"/>
<feColorMatrix type="matrix" values="0 0 0 0 0.258824 0 0 0 0 0.627451 0 0 0 0 0.941176 0 0 0 0.596 0"/>
<feBlend mode="normal" in2="BackgroundImageFix" result="effect1_dropShadow_7_1024"/>
<feBlend mode="normal" in="SourceGraphic" in2="effect1_dropShadow_7_1024" result="shape"/>
<feGaussianBlur stdDeviation="2" result="effect2_foregroundBlur_7_1024"/>
</filter>
<filter id="filter5_d_7_1024" x="0.320312" y="26" width="391.269" height="266" filterUnits="userSpaceOnUse" color-interpolation-filters="sRGB">
<feFlood flood-opacity="0" result="BackgroundImageFix"/>
<feColorMatrix in="SourceAlpha" type="matrix" values="0 0 0 0 0 0 0 0 0 0 0 0 0 0 0 0 0 0 127 0" result="hardAlpha"/>
<feOffset dx="10" dy="2"/>
<feGaussianBlur stdDeviation="15"/>
<feColorMatrix type="matrix" values="0 0 0 0 0.501961 0 0 0 0 0.501961 0 0 0 0 0.501961 0 0 0 0.302 0"/>
<feBlend mode="normal" in2="BackgroundImageFix" result="effect1_dropShadow_7_1024"/>
<feBlend mode="normal" in="SourceGraphic" in2="effect1_dropShadow_7_1024" result="shape"/>
</filter>
<linearGradient id="paint0_linear_7_1024" x1="154.484" y1="79.9561" x2="220.526" y2="271.168" gradientUnits="userSpaceOnUse">
<stop stop-color="white" stop-opacity="0.596"/>
<stop offset="1" stop-color="#F7F7F7" stop-opacity="0.204"/>
</linearGradient>
</defs>
</svg>
