<svg width="392" height="328" viewBox="0 0 392 328" fill="none" xmlns="http://www.w3.org/2000/svg">
<g filter="url(#filter0_f_7_139)">
<path d="M126.387 232.833C126.916 233.317 115.847 257.125 109.415 264.524C102.983 271.923 95.0742 275.574 91.7474 272.682C88.4207 269.79 90.9344 261.451 97.3671 254.051C103.8 246.651 125.859 232.35 126.387 232.833Z" fill="#42A0F0"/>
<path d="M98.5119 259.022C99.1581 260.056 101.395 259.824 103.508 258.503C105.622 257.183 106.811 255.274 106.165 254.24C105.518 253.206 103.281 253.438 101.168 254.758C99.055 256.079 97.8657 257.988 98.5119 259.022Z" fill="white"/>
<path d="M194.387 232.833C194.916 233.317 183.847 257.125 177.415 264.524C170.983 271.923 163.074 275.574 159.747 272.682C156.421 269.79 158.934 261.451 165.367 254.051C171.8 246.651 193.859 232.35 194.387 232.833Z" fill="#42A0F0"/>
<path d="M166.512 259.022C167.158 260.056 169.395 259.824 171.508 258.503C173.622 257.183 174.811 255.274 174.165 254.24C173.518 253.206 171.281 253.438 169.168 254.758C167.055 256.079 165.866 257.988 166.512 259.022Z" fill="white"/>
<path d="M202.387 282.833C202.916 283.317 191.847 307.125 185.415 314.524C178.983 321.923 171.074 325.574 167.747 322.682C164.421 319.79 166.934 311.451 173.367 304.051C179.8 296.651 201.859 282.35 202.387 282.833Z" fill="#42A0F0"/>
<path d="M174.512 309.022C175.158 310.056 177.395 309.824 179.508 308.503C181.622 307.183 182.811 305.274 182.165 304.24C181.518 303.206 179.281 303.438 177.168 304.758C175.055 306.079 173.866 307.988 174.512 309.022Z" fill="white"/>
<path d="M126.387 282.833C126.916 283.317 115.847 307.125 109.415 314.524C102.983 321.923 95.0742 325.574 91.7474 322.682C88.4207 319.79 90.9344 311.451 97.3671 304.051C103.8 296.651 125.859 282.35 126.387 282.833Z" fill="#42A0F0"/>
<path d="M98.5119 309.022C99.1581 310.056 101.395 309.824 103.508 308.503C105.622 307.183 106.811 305.274 106.165 304.24C105.518 303.206 103.281 303.438 101.168 304.758C99.055 306.079 97.8657 307.988 98.5119 309.022Z" fill="white"/>
</g>
<g filter="url(#filter1_f_7_139)">
<path d="M256.667 238.557H288.174L270.061 265.157L291.239 265.557L246.788 318.168L257.559 278.057H237.841L256.667 238.557Z" fill="url(#paint0_linear_7_139)"/>
</g>
<g filter="url(#filter2_f_7_139)">
<path d="M115.5 171C156.093 171 189 138.093 189 97.5C189 56.9071 156.093 24 115.5 24C74.9071 24 42 56.9071 42 97.5C42 138.093 74.9071 171 115.5 171Z" fill="#FA9E42"/>
</g>
<g filter="url(#filter3_f_7_139)">
<path d="M115.5 188C165.482 188 206 147.482 206 97.5C206 47.5182 165.482 7 115.5 7C65.5182 7 25 47.5182 25 97.5C25 147.482 65.5182 188 115.5 188Z" stroke="#FA9E42" stroke-width="10" stroke-linecap="round" stroke-dasharray="1 66"/>
</g>
<g filter="url(#filter4_f_7_139)">
<path d="M107.745 82.824C133.487 69.151 148.049 46.1934 140.27 31.5468C132.49 16.9002 105.315 16.1109 79.5728 29.7839C53.8303 43.4569 39.2684 66.4144 47.0479 81.061C54.8273 95.7076 82.0022 96.4969 107.745 82.824Z" fill="#F8E36F"/>
</g>
<g filter="url(#filter5_df_7_139)">
<g filter="url(#filter6_d_7_139)">
<path d="M235.914 259.765C233.981 259.92 232.029 259.999 230.057 260H92.5332C83.067 260.035 73.6869 258.201 64.9311 254.603C56.1752 251.005 48.2159 245.714 41.5098 239.032C34.8036 232.351 29.4825 224.412 25.8518 215.669C22.221 206.927 20.3521 197.554 20.3521 188.087C20.3521 178.621 22.221 169.248 25.8518 160.506C29.4825 151.763 34.8036 143.824 41.5098 137.143C48.2159 130.461 56.1752 125.17 64.9311 121.572C73.6869 117.974 83.067 116.14 92.5332 116.175H143.809C160.433 79.6 198.72 54 243.293 54C303.12 54 351.62 100.115 351.62 157C351.62 213.885 303.12 260 243.293 260C240.813 260 238.354 259.922 235.914 259.765Z" fill="url(#paint1_linear_7_139)"/>
<path d="M243.293 259C250.579 259 257.86 258.302 264.933 256.926C271.827 255.585 278.607 253.584 285.085 250.978C291.446 248.42 297.581 245.254 303.319 241.568C309.002 237.917 314.346 233.725 319.203 229.107C324.058 224.49 328.466 219.411 332.304 214.009C336.178 208.557 339.506 202.728 342.194 196.686C344.931 190.532 347.033 184.093 348.442 177.547C349.887 170.831 350.62 163.917 350.62 157C350.62 150.082 349.887 143.169 348.442 136.452C347.033 129.906 344.931 123.467 342.194 117.314C339.506 111.272 336.178 105.443 332.304 99.991C328.466 94.5893 324.058 89.5095 319.203 84.8928C314.346 80.2752 309.002 76.0829 303.319 72.4323C297.581 68.7461 291.446 65.5801 285.085 63.0221C278.607 60.4165 271.827 58.4154 264.933 57.0742C257.86 55.6979 250.579 55 243.293 55C221.922 55 201.283 60.9523 183.607 72.2135C175.086 77.6418 167.429 84.1939 160.849 91.6878C154.228 99.2291 148.801 107.607 144.719 116.588L144.452 117.175H143.808H92.5328C82.9592 117.175 73.6726 119.049 64.9307 122.747C60.7291 124.524 56.6765 126.724 52.8856 129.285C49.1305 131.822 45.5992 134.735 42.39 137.945C39.1808 141.154 36.2673 144.685 33.7303 148.44C31.1692 152.231 28.9696 156.284 27.1924 160.485C23.4949 169.227 21.6201 178.514 21.6201 188.087C21.6201 197.661 23.4949 206.948 27.1924 215.689C28.9696 219.891 31.1692 223.944 33.7303 227.735C36.2673 231.49 39.1808 235.021 42.39 238.23C45.5992 241.439 49.1305 244.353 52.8856 246.89C56.6765 249.451 60.7291 251.651 64.9307 253.428C73.6726 257.125 82.9592 259 92.5328 259H230.057C231.98 259 233.924 258.922 235.834 258.768L235.906 258.762L235.978 258.767C238.398 258.922 240.859 259 243.293 259ZM243.293 260C240.813 260 238.352 259.921 235.915 259.765C233.984 259.92 232.028 260 230.057 260H92.5328C52.8167 260 20.6201 227.803 20.6201 188.087C20.6201 148.371 52.8167 116.175 92.5328 116.175H143.808C160.433 79.5954 198.718 54 243.293 54C303.12 54 351.62 100.115 351.62 157C351.62 213.885 303.12 260 243.293 260Z" fill="white" fill-opacity="0.5"/>
</g>
</g>
<defs>
<filter id="filter0_f_7_139" x="86.2783" y="228.821" width="120.127" height="98.8516" filterUnits="userSpaceOnUse" color-interpolation-filters="sRGB">
<feFlood flood-opacity="0" result="BackgroundImageFix"/>
<feBlend mode="normal" in="SourceGraphic" in2="BackgroundImageFix" result="shape"/>
<feGaussianBlur stdDeviation="2" result="effect1_foregroundBlur_7_139"/>
</filter>
<filter id="filter1_f_7_139" x="233.841" y="234.557" width="61.3979" height="87.6113" filterUnits="userSpaceOnUse" color-interpolation-filters="sRGB">
<feFlood flood-opacity="0" result="BackgroundImageFix"/>
<feBlend mode="normal" in="SourceGraphic" in2="BackgroundImageFix" result="shape"/>
<feGaussianBlur stdDeviation="2" result="effect1_foregroundBlur_7_139"/>
</filter>
<filter id="filter2_f_7_139" x="38" y="20" width="155" height="155" filterUnits="userSpaceOnUse" color-interpolation-filters="sRGB">
<feFlood flood-opacity="0" result="BackgroundImageFix"/>
<feBlend mode="normal" in="SourceGraphic" in2="BackgroundImageFix" result="shape"/>
<feGaussianBlur stdDeviation="2" result="effect1_foregroundBlur_7_139"/>
</filter>
<filter id="filter3_f_7_139" x="18" y="0" width="195" height="195" filterUnits="userSpaceOnUse" color-interpolation-filters="sRGB">
<feFlood flood-opacity="0" result="BackgroundImageFix"/>
<feBlend mode="normal" in="SourceGraphic" in2="BackgroundImageFix" result="shape"/>
<feGaussianBlur stdDeviation="1" result="effect1_foregroundBlur_7_139"/>
</filter>
<filter id="filter4_f_7_139" x="24.9531" y="0.0244141" width="137.411" height="112.56" filterUnits="userSpaceOnUse" color-interpolation-filters="sRGB">
<feFlood flood-opacity="0" result="BackgroundImageFix"/>
<feBlend mode="normal" in="SourceGraphic" in2="BackgroundImageFix" result="shape"/>
<feGaussianBlur stdDeviation="10" result="effect1_foregroundBlur_7_139"/>
</filter>
<filter id="filter5_df_7_139" x="0.352051" y="26" width="391.268" height="266.001" filterUnits="userSpaceOnUse" color-interpolation-filters="sRGB">
<feFlood flood-opacity="0" result="BackgroundImageFix"/>
<feColorMatrix in="SourceAlpha" type="matrix" values="0 0 0 0 0 0 0 0 0 0 0 0 0 0 0 0 0 0 127 0" result="hardAlpha"/>
<feOffset dx="10" dy="2"/>
<feGaussianBlur stdDeviation="15"/>
<feColorMatrix type="matrix" values="0 0 0 0 0.258824 0 0 0 0 0.627451 0 0 0 0 0.941176 0 0 0 0.596 0"/>
<feBlend mode="normal" in2="BackgroundImageFix" result="effect1_dropShadow_7_139"/>
<feBlend mode="normal" in="SourceGraphic" in2="effect1_dropShadow_7_139" result="shape"/>
<feGaussianBlur stdDeviation="2" result="effect2_foregroundBlur_7_139"/>
</filter>
<filter id="filter6_d_7_139" x="0.352051" y="26" width="391.268" height="266.001" filterUnits="userSpaceOnUse" color-interpolation-filters="sRGB">
<feFlood flood-opacity="0" result="BackgroundImageFix"/>
<feColorMatrix in="SourceAlpha" type="matrix" values="0 0 0 0 0 0 0 0 0 0 0 0 0 0 0 0 0 0 127 0" result="hardAlpha"/>
<feOffset dx="10" dy="2"/>
<feGaussianBlur stdDeviation="15"/>
<feColorMatrix type="matrix" values="0 0 0 0 0.501961 0 0 0 0 0.501961 0 0 0 0 0.501961 0 0 0 0.302 0"/>
<feBlend mode="normal" in2="BackgroundImageFix" result="effect1_dropShadow_7_139"/>
<feBlend mode="normal" in="SourceGraphic" in2="effect1_dropShadow_7_139" result="shape"/>
</filter>
<linearGradient id="paint0_linear_7_139" x1="259.627" y1="278.362" x2="234.685" y2="269.218" gradientUnits="userSpaceOnUse">
<stop stop-color="#FFD100"/>
<stop offset="1" stop-color="#FFF0AA"/>
</linearGradient>
<linearGradient id="paint1_linear_7_139" x1="154.516" y1="79.9561" x2="220.558" y2="271.168" gradientUnits="userSpaceOnUse">
<stop stop-color="white" stop-opacity="0.596"/>
<stop offset="1" stop-color="#F7F7F7" stop-opacity="0.204"/>
</linearGradient>
</defs>
</svg>
