<svg width="403" height="299" viewBox="0 0 403 299" fill="none" xmlns="http://www.w3.org/2000/svg">
<g filter="url(#filter0_f_6_657)">
<path d="M186.9 213.282C186.9 213.282 244.483 216.394 270.019 208.982C295.555 201.57 295.519 163.082 270.019 153.59C244.519 144.098 235.801 178.015 235.801 178.015" stroke="#D0D0D0" stroke-width="16" stroke-linecap="round"/>
<path d="M87.8501 254.857C87.8501 254.857 174.404 247.037 212.562 254.857C250.72 262.677 238.57 285.112 220.486 286.137C202.402 287.162 185.715 275.28 185.715 275.28" stroke="#D0D0D0" stroke-width="16" stroke-linecap="round"/>
<path d="M272.074 254.794H306.486" stroke="#D0D0D0" stroke-width="16" stroke-linecap="round"/>
</g>
<g filter="url(#filter1_f_6_657)">
<path d="M90.102 180.558C74.946 180.577 60.1357 176.03 47.602 167.509C36.2188 159.795 27.1237 149.158 21.2727 136.714C15.4218 124.271 13.0311 110.481 14.352 96.7942C15.6728 83.1073 20.6564 70.0291 28.7789 58.9341C36.9014 47.8391 47.8628 39.1371 60.511 33.7428C69.8677 29.7633 79.9342 27.7222 90.102 27.7428C93.0692 27.7431 96.0338 27.9154 98.981 28.2588C97.2618 32.0177 95.9464 35.9483 95.057 39.9848C94.1431 44.1502 93.6828 48.4023 93.684 52.6668C93.6663 64.3701 97.1618 75.8093 103.718 85.5038C107.943 91.7568 113.328 97.142 119.581 101.368C122.724 103.491 126.065 105.304 129.557 106.783C136.789 109.844 144.565 111.413 152.418 111.398C156.963 111.4 161.493 110.877 165.918 109.84C164.875 124.212 159.781 137.995 151.226 149.592C148.459 153.344 145.356 156.837 141.956 160.027C127.922 173.233 109.373 180.578 90.102 180.558Z" fill="#713FFD"/>
</g>
<g filter="url(#filter2_f_6_657)">
<path d="M76.7253 93.6415C93.7901 78.2763 99.1022 56.3562 88.5904 44.6816C78.0785 33.007 55.7232 35.9988 38.6585 51.3639C21.5937 66.7291 16.2816 88.6492 26.7934 100.324C37.3053 111.998 59.6606 109.007 76.7253 93.6415Z" fill="#A586FC"/>
</g>
<g filter="url(#filter3_f_6_657)">
<path d="M53.159 8L55.699 14.27L62.566 16.589L55.699 18.908L53.159 25.178L50.619 18.908L43.752 16.589L50.619 14.27L53.159 8Z" fill="url(#paint0_linear_6_657)"/>
<path d="M166.861 154.422L168.961 159.498L174.634 161.375L168.959 163.252L166.859 168.328L164.763 163.252L159.09 161.375L164.763 159.498L166.861 154.422Z" fill="url(#paint1_linear_6_657)"/>
<path d="M132.921 27.5225L136.447 32.1416L142.73 32.5156L137.476 35.9825L136.734 41.7459L133.209 37.1267L126.926 36.7528L132.179 33.2859L132.921 27.5225Z" fill="url(#paint2_linear_6_657)"/>
<path d="M7.15709 143.022L10.959 146.6L16.8747 146.009L12.339 149.856L12.2727 155.076L8.47075 151.498L2.5587 152.087L7.09264 148.242L7.15709 143.022Z" fill="url(#paint3_linear_6_657)"/>
<path d="M129.597 78.7361L125.418 79.5848L122.944 83.9164L122.619 78.9388L119.235 76.344L123.414 75.4953L125.888 71.1638L126.213 76.1414L129.597 78.7361Z" fill="url(#paint4_linear_6_657)"/>
</g>
<g filter="url(#filter4_df_6_657)">
<g filter="url(#filter5_d_6_657)">
<path d="M246.78 233.765C244.847 233.92 242.894 233.999 240.923 234H103.399C93.9328 234.035 84.5527 232.201 75.7968 228.603C67.041 225.005 59.0817 219.714 52.3756 213.032C45.6694 206.351 40.3483 198.412 36.7176 189.669C33.0868 180.927 31.2178 171.554 31.2178 162.087C31.2178 152.621 33.0868 143.248 36.7176 134.506C40.3483 125.763 45.6694 117.824 52.3756 111.143C59.0817 104.461 67.041 99.17 75.7968 95.5718C84.5527 91.9737 93.9328 90.1397 103.399 90.175H154.675C171.299 53.6 209.586 28 254.159 28C313.986 28 362.486 74.115 362.486 131C362.486 187.885 313.986 234 254.159 234C251.679 234 249.219 233.922 246.78 233.765Z" fill="url(#paint5_linear_6_657)"/>
<path d="M254.159 233C261.445 233 268.726 232.302 275.799 230.926C282.692 229.585 289.473 227.584 295.951 224.978C302.312 222.42 308.447 219.254 314.185 215.568C319.868 211.917 325.212 207.725 330.069 203.107C334.924 198.49 339.332 193.411 343.17 188.009C347.044 182.557 350.372 176.728 353.06 170.686C355.797 164.532 357.899 158.093 359.308 151.547C360.753 144.831 361.486 137.917 361.486 131C361.486 124.082 360.753 117.169 359.308 110.452C357.899 103.906 355.797 97.4673 353.06 91.3142C350.372 85.2716 347.044 79.4433 343.17 73.991C339.332 68.5893 334.924 63.5095 330.069 58.8928C325.212 54.2752 319.868 50.0829 314.185 46.4323C308.447 42.7461 302.312 39.5801 295.951 37.0221C289.473 34.4165 282.692 32.4154 275.799 31.0742C268.726 29.6979 261.445 29 254.159 29C232.788 29 212.149 34.9523 194.472 46.2135C185.952 51.6418 178.295 58.1939 171.715 65.6878C165.094 73.2291 159.667 81.6069 155.585 90.5885L155.318 91.1747H154.674H103.399C93.8251 91.1747 84.5385 93.0495 75.7966 96.747C71.595 98.5242 67.5424 100.724 63.7515 103.285C59.9964 105.822 56.4651 108.735 53.2559 111.945C50.0467 115.154 47.1332 118.685 44.5962 122.44C42.0351 126.231 39.8355 130.284 38.0583 134.485C34.3608 143.227 32.486 152.514 32.486 162.087C32.486 171.661 34.3608 180.948 38.0583 189.689C39.8355 193.891 42.0351 197.944 44.5962 201.735C47.1332 205.49 50.0467 209.021 53.2559 212.23C56.4651 215.439 59.9964 218.353 63.7515 220.89C67.5424 223.451 71.595 225.651 75.7966 227.428C84.5385 231.125 93.8251 233 103.399 233H240.923C242.846 233 244.79 232.922 246.7 232.768L246.772 232.762L246.844 232.767C249.264 232.922 251.725 233 254.159 233ZM254.159 234C251.679 234 249.218 233.921 246.78 233.765C244.85 233.92 242.894 234 240.923 234H103.399C63.6826 234 31.486 201.803 31.486 162.087C31.486 122.371 63.6826 90.1747 103.399 90.1747H154.674C171.299 53.5954 209.584 28 254.159 28C313.986 28 362.486 74.1151 362.486 131C362.486 187.885 313.986 234 254.159 234Z" fill="white" fill-opacity="0.5"/>
</g>
</g>
<defs>
<filter id="filter0_f_6_657" x="75.8496" y="139.914" width="242.636" height="158.286" filterUnits="userSpaceOnUse" color-interpolation-filters="sRGB">
<feFlood flood-opacity="0" result="BackgroundImageFix"/>
<feBlend mode="normal" in="SourceGraphic" in2="BackgroundImageFix" result="shape"/>
<feGaussianBlur stdDeviation="2" result="effect1_foregroundBlur_6_657"/>
</filter>
<filter id="filter1_f_6_657" x="9.99799" y="23.7427" width="159.92" height="160.815" filterUnits="userSpaceOnUse" color-interpolation-filters="sRGB">
<feFlood flood-opacity="0" result="BackgroundImageFix"/>
<feBlend mode="normal" in="SourceGraphic" in2="BackgroundImageFix" result="shape"/>
<feGaussianBlur stdDeviation="2" result="effect1_foregroundBlur_6_657"/>
</filter>
<filter id="filter2_f_6_657" x="1.39648" y="17.5601" width="112.591" height="109.885" filterUnits="userSpaceOnUse" color-interpolation-filters="sRGB">
<feFlood flood-opacity="0" result="BackgroundImageFix"/>
<feBlend mode="normal" in="SourceGraphic" in2="BackgroundImageFix" result="shape"/>
<feGaussianBlur stdDeviation="10" result="effect1_foregroundBlur_6_657"/>
</filter>
<filter id="filter3_f_6_657" x="0.558716" y="6" width="176.075" height="164.328" filterUnits="userSpaceOnUse" color-interpolation-filters="sRGB">
<feFlood flood-opacity="0" result="BackgroundImageFix"/>
<feBlend mode="normal" in="SourceGraphic" in2="BackgroundImageFix" result="shape"/>
<feGaussianBlur stdDeviation="1" result="effect1_foregroundBlur_6_657"/>
</filter>
<filter id="filter4_df_6_657" x="11.2178" y="0" width="391.268" height="266" filterUnits="userSpaceOnUse" color-interpolation-filters="sRGB">
<feFlood flood-opacity="0" result="BackgroundImageFix"/>
<feColorMatrix in="SourceAlpha" type="matrix" values="0 0 0 0 0 0 0 0 0 0 0 0 0 0 0 0 0 0 127 0" result="hardAlpha"/>
<feOffset dx="10" dy="2"/>
<feGaussianBlur stdDeviation="15"/>
<feColorMatrix type="matrix" values="0 0 0 0 0 0 0 0 0 0 0 0 0 0 0 0 0 0 0.25 0"/>
<feBlend mode="normal" in2="BackgroundImageFix" result="effect1_dropShadow_6_657"/>
<feBlend mode="normal" in="SourceGraphic" in2="effect1_dropShadow_6_657" result="shape"/>
<feGaussianBlur stdDeviation="2" result="effect2_foregroundBlur_6_657"/>
</filter>
<filter id="filter5_d_6_657" x="11.2178" y="0" width="391.268" height="266" filterUnits="userSpaceOnUse" color-interpolation-filters="sRGB">
<feFlood flood-opacity="0" result="BackgroundImageFix"/>
<feColorMatrix in="SourceAlpha" type="matrix" values="0 0 0 0 0 0 0 0 0 0 0 0 0 0 0 0 0 0 127 0" result="hardAlpha"/>
<feOffset dx="10" dy="2"/>
<feGaussianBlur stdDeviation="15"/>
<feColorMatrix type="matrix" values="0 0 0 0 0.501961 0 0 0 0 0.501961 0 0 0 0 0.501961 0 0 0 0.302 0"/>
<feBlend mode="normal" in2="BackgroundImageFix" result="effect1_dropShadow_6_657"/>
<feBlend mode="normal" in="SourceGraphic" in2="effect1_dropShadow_6_657" result="shape"/>
</filter>
<linearGradient id="paint0_linear_6_657" x1="53.159" y1="8" x2="53.159" y2="25.178" gradientUnits="userSpaceOnUse">
<stop stop-color="#6B38FC"/>
<stop offset="1" stop-color="#9F7EFD"/>
</linearGradient>
<linearGradient id="paint1_linear_6_657" x1="166.862" y1="154.422" x2="166.862" y2="168.328" gradientUnits="userSpaceOnUse">
<stop stop-color="#6B38FC"/>
<stop offset="1" stop-color="#9F7EFD"/>
</linearGradient>
<linearGradient id="paint2_linear_6_657" x1="132.921" y1="27.5225" x2="136.734" y2="41.7459" gradientUnits="userSpaceOnUse">
<stop stop-color="#6B38FC"/>
<stop offset="1" stop-color="#9F7EFD"/>
</linearGradient>
<linearGradient id="paint3_linear_6_657" x1="7.15801" y1="143.021" x2="12.2754" y2="155.075" gradientUnits="userSpaceOnUse">
<stop stop-color="#6B38FC"/>
<stop offset="1" stop-color="#9F7EFD"/>
</linearGradient>
<linearGradient id="paint4_linear_6_657" x1="129.597" y1="78.7361" x2="119.235" y2="76.344" gradientUnits="userSpaceOnUse">
<stop stop-color="#6B38FC"/>
<stop offset="1" stop-color="#9F7EFD"/>
</linearGradient>
<linearGradient id="paint5_linear_6_657" x1="165.381" y1="53.9561" x2="231.424" y2="245.168" gradientUnits="userSpaceOnUse">
<stop stop-color="white" stop-opacity="0.596"/>
<stop offset="1" stop-color="#F7F7F7" stop-opacity="0.204"/>
</linearGradient>
</defs>
</svg>
