<svg width="397" height="325" viewBox="0 0 397 325" fill="none" xmlns="http://www.w3.org/2000/svg">
<g filter="url(#filter0_f_6_698)">
<path d="M191.651 177.204V306.75" stroke="#42A0F0" stroke-width="10" stroke-linecap="round"/>
<path d="M191.391 208.87L213.702 185.84" stroke="#42A0F0" stroke-width="10" stroke-linecap="round"/>
<path d="M191.391 208.87L168.361 185.84" stroke="#42A0F0" stroke-width="10" stroke-linecap="round"/>
<path d="M191.391 277.962L213.702 300.992" stroke="#42A0F0" stroke-width="10" stroke-linecap="round"/>
<path d="M191.391 277.962L168.361 300.992" stroke="#42A0F0" stroke-width="10" stroke-linecap="round"/>
<path d="M247.436 210.127L135.246 274.9" stroke="#42A0F0" stroke-width="10" stroke-linecap="round"/>
<path d="M219.882 225.734L250.982 233.541" stroke="#42A0F0" stroke-width="10" stroke-linecap="round"/>
<path d="M219.882 225.734L228.312 194.275" stroke="#42A0F0" stroke-width="10" stroke-linecap="round"/>
<path d="M160.047 260.28L151.258 291.117" stroke="#42A0F0" stroke-width="10" stroke-linecap="round"/>
<path d="M160.047 260.281L128.587 251.851" stroke="#42A0F0" stroke-width="10" stroke-linecap="round"/>
<path d="M246.817 274.9L134.627 210.127" stroke="#42A0F0" stroke-width="10" stroke-linecap="round"/>
<path d="M219.523 258.841L228.313 289.678" stroke="#42A0F0" stroke-width="10" stroke-linecap="round"/>
<path d="M219.523 258.842L250.983 250.412" stroke="#42A0F0" stroke-width="10" stroke-linecap="round"/>
<path d="M159.688 224.295L128.588 232.102" stroke="#42A0F0" stroke-width="10" stroke-linecap="round"/>
<path d="M159.688 224.296L151.258 192.836" stroke="#42A0F0" stroke-width="10" stroke-linecap="round"/>
</g>
<g filter="url(#filter1_f_6_698)">
<path d="M144.083 151.295V160.143" stroke="#42A0F0" stroke-linecap="round"/>
<path d="M143.891 153.454L145.33 152.734" stroke="#42A0F0" stroke-linecap="round"/>
<path d="M143.891 153.454L141.732 152.734" stroke="#42A0F0" stroke-linecap="round"/>
<path d="M143.891 158.492L145.33 159.212" stroke="#42A0F0" stroke-linecap="round"/>
<path d="M143.891 158.492L141.732 159.212" stroke="#42A0F0" stroke-linecap="round"/>
<path d="M147.893 153.544L140.23 157.968" stroke="#42A0F0" stroke-linecap="round"/>
<path d="M146.011 154.61L148.135 155.143" stroke="#42A0F0" stroke-linecap="round"/>
<path d="M146.01 154.61L146.586 152.461" stroke="#42A0F0" stroke-linecap="round"/>
<path d="M141.924 156.969L141.324 159.076" stroke="#42A0F0" stroke-linecap="round"/>
<path d="M141.924 156.969L139.775 156.393" stroke="#42A0F0" stroke-linecap="round"/>
<path d="M147.85 157.968L140.187 153.544" stroke="#42A0F0" stroke-linecap="round"/>
<path d="M145.985 156.871L146.585 158.977" stroke="#42A0F0" stroke-linecap="round"/>
<path d="M145.985 156.871L148.134 156.295" stroke="#42A0F0" stroke-linecap="round"/>
<path d="M141.898 154.511L139.774 155.045" stroke="#42A0F0" stroke-linecap="round"/>
<path d="M141.899 154.511L141.323 152.362" stroke="#42A0F0" stroke-linecap="round"/>
</g>
<g filter="url(#filter2_f_6_698)">
<path d="M266.153 170.885V186.053" stroke="#42A0F0" stroke-linecap="round"/>
<path d="M265.521 174.326L268.4 173.606" stroke="#42A0F0" stroke-linecap="round"/>
<path d="M265.521 174.326L261.922 173.606" stroke="#42A0F0" stroke-linecap="round"/>
<path d="M265.521 182.962L268.4 184.401" stroke="#42A0F0" stroke-linecap="round"/>
<path d="M265.521 182.962L261.922 184.401" stroke="#42A0F0" stroke-linecap="round"/>
<path d="M272.685 174.74L259.549 182.324" stroke="#42A0F0" stroke-linecap="round"/>
<path d="M269.459 176.566L273.099 177.48" stroke="#42A0F0" stroke-linecap="round"/>
<path d="M269.459 176.566L270.446 172.883" stroke="#42A0F0" stroke-linecap="round"/>
<path d="M262.452 180.611L261.424 184.221" stroke="#42A0F0" stroke-linecap="round"/>
<path d="M262.452 180.611L258.77 179.624" stroke="#42A0F0" stroke-linecap="round"/>
<path d="M272.611 182.324L259.475 174.74" stroke="#42A0F0" stroke-linecap="round"/>
<path d="M269.417 180.444L270.445 184.054" stroke="#42A0F0" stroke-linecap="round"/>
<path d="M269.417 180.443L273.099 179.457" stroke="#42A0F0" stroke-linecap="round"/>
<path d="M262.41 176.398L258.77 177.312" stroke="#42A0F0" stroke-linecap="round"/>
<path d="M262.41 176.398L261.423 172.715" stroke="#42A0F0" stroke-linecap="round"/>
</g>
<g filter="url(#filter3_f_6_698)">
<path d="M256.809 282.439V294.892" stroke="#42A0F0" stroke-linecap="round"/>
<path d="M256.164 285.16L258.323 284.44" stroke="#42A0F0" stroke-linecap="round"/>
<path d="M256.164 285.16L253.285 284.44" stroke="#42A0F0" stroke-linecap="round"/>
<path d="M256.164 292.357L258.323 293.796" stroke="#42A0F0" stroke-linecap="round"/>
<path d="M256.164 292.357L253.285 293.796" stroke="#42A0F0" stroke-linecap="round"/>
<path d="M262.171 285.604L251.387 291.831" stroke="#42A0F0" stroke-linecap="round"/>
<path d="M259.523 287.105L262.513 287.855" stroke="#42A0F0" stroke-linecap="round"/>
<path d="M259.523 287.104L260.333 284.08" stroke="#42A0F0" stroke-linecap="round"/>
<path d="M253.771 290.425L252.927 293.389" stroke="#42A0F0" stroke-linecap="round"/>
<path d="M253.772 290.425L250.747 289.614" stroke="#42A0F0" stroke-linecap="round"/>
<path d="M262.112 291.83L251.327 285.604" stroke="#42A0F0" stroke-linecap="round"/>
<path d="M259.488 290.287L260.333 293.251" stroke="#42A0F0" stroke-linecap="round"/>
<path d="M259.488 290.286L262.512 289.476" stroke="#42A0F0" stroke-linecap="round"/>
<path d="M253.737 286.966L250.747 287.717" stroke="#42A0F0" stroke-linecap="round"/>
<path d="M253.737 286.966L252.926 283.942" stroke="#42A0F0" stroke-linecap="round"/>
</g>
<g filter="url(#filter4_f_6_698)">
<path d="M154.552 311.227V322.196" stroke="#42A0F0" stroke-linecap="round"/>
<path d="M153.966 313.948L156.125 313.228" stroke="#42A0F0" stroke-linecap="round"/>
<path d="M153.966 313.948L151.807 313.228" stroke="#42A0F0" stroke-linecap="round"/>
<path d="M153.966 319.705L156.125 321.144" stroke="#42A0F0" stroke-linecap="round"/>
<path d="M153.966 319.705L151.807 321.144" stroke="#42A0F0" stroke-linecap="round"/>
<path d="M159.276 314.015L149.777 319.5" stroke="#42A0F0" stroke-linecap="round"/>
<path d="M156.943 315.337L159.577 315.998" stroke="#42A0F0" stroke-linecap="round"/>
<path d="M156.943 315.337L157.657 312.673" stroke="#42A0F0" stroke-linecap="round"/>
<path d="M151.876 318.262L151.132 320.873" stroke="#42A0F0" stroke-linecap="round"/>
<path d="M151.876 318.262L149.212 317.548" stroke="#42A0F0" stroke-linecap="round"/>
<path d="M159.223 319.499L149.723 314.015" stroke="#42A0F0" stroke-linecap="round"/>
<path d="M156.912 318.139L157.656 320.75" stroke="#42A0F0" stroke-linecap="round"/>
<path d="M156.912 318.139L159.576 317.425" stroke="#42A0F0" stroke-linecap="round"/>
<path d="M151.845 315.214L149.212 315.875" stroke="#42A0F0" stroke-linecap="round"/>
<path d="M151.845 315.214L151.131 312.55" stroke="#42A0F0" stroke-linecap="round"/>
</g>
<g filter="url(#filter5_f_6_698)">
<path d="M113.161 265.166V274.063" stroke="#42A0F0" stroke-linecap="round"/>
<path d="M112.944 267.167L114.383 266.447" stroke="#42A0F0" stroke-linecap="round"/>
<path d="M112.944 267.167L110.785 266.447" stroke="#42A0F0" stroke-linecap="round"/>
<path d="M112.944 272.205L114.383 272.925" stroke="#42A0F0" stroke-linecap="round"/>
<path d="M112.944 272.205L110.785 272.925" stroke="#42A0F0" stroke-linecap="round"/>
<path d="M116.992 267.427L109.287 271.875" stroke="#42A0F0" stroke-linecap="round"/>
<path d="M115.099 268.499L117.235 269.035" stroke="#42A0F0" stroke-linecap="round"/>
<path d="M115.099 268.499L115.678 266.338" stroke="#42A0F0" stroke-linecap="round"/>
<path d="M110.99 270.872L110.386 272.99" stroke="#42A0F0" stroke-linecap="round"/>
<path d="M110.99 270.872L108.829 270.293" stroke="#42A0F0" stroke-linecap="round"/>
<path d="M116.949 271.875L109.244 267.426" stroke="#42A0F0" stroke-linecap="round"/>
<path d="M115.074 270.773L115.678 272.891" stroke="#42A0F0" stroke-linecap="round"/>
<path d="M115.074 270.773L117.235 270.194" stroke="#42A0F0" stroke-linecap="round"/>
<path d="M110.965 268.4L108.829 268.936" stroke="#42A0F0" stroke-linecap="round"/>
<path d="M110.965 268.4L110.386 266.239" stroke="#42A0F0" stroke-linecap="round"/>
</g>
<path d="M90.4871 175.295C75.2648 175.315 60.3896 170.748 47.8011 162.19C36.3708 154.443 27.2385 143.759 21.3639 131.263C15.4893 118.767 13.0894 104.919 14.4163 91.1742C15.7433 77.4297 20.7481 64.2965 28.9048 53.1548C37.0615 42.0131 48.0689 33.2743 60.7701 27.8568C70.1664 23.8588 80.2757 21.8075 90.4871 21.8268C93.468 21.8269 96.4463 21.9998 99.4071 22.3448C97.6809 26.1194 96.3602 30.0665 95.4671 34.1198C94.5492 38.3033 94.0869 42.5738 94.0881 46.8568C94.069 58.6099 97.578 70.0983 104.161 79.8348C108.405 86.1147 113.813 91.5229 120.093 95.7668C123.249 97.8987 126.605 99.7198 130.112 101.205C137.375 104.279 145.184 105.855 153.071 105.84C157.634 105.841 162.182 105.316 166.624 104.275C165.576 118.709 160.46 132.551 151.869 144.197C149.09 147.965 145.974 151.472 142.559 154.676C128.467 167.938 109.839 175.314 90.4871 175.295Z" fill="#713FFD"/>
<g filter="url(#filter6_f_6_698)">
<path d="M77.0538 88.0074C94.1916 72.5764 99.5265 50.5624 88.9695 38.8377C78.4126 27.1131 55.9615 30.1176 38.8237 45.5486C21.6859 60.9795 16.3511 82.9935 26.908 94.7182C37.465 106.443 59.916 103.438 77.0538 88.0074Z" fill="#A586FC"/>
</g>
<g filter="url(#filter7_f_6_698)">
<path d="M52.9861 2L55.5511 8.2L62.4861 10.5L55.5511 12.8L52.9861 19L50.4211 12.8L43.4861 10.5L50.4211 8.2L52.9861 2Z" fill="url(#paint0_linear_6_698)"/>
<path d="M167.486 149L169.646 154.11L175.486 156L169.646 157.89L167.486 163L165.326 157.89L159.486 156L165.326 154.11L167.486 149Z" fill="url(#paint1_linear_6_698)"/>
<path d="M133.489 21.6052L137.03 26.2472L143.344 26.6252L138.066 30.1112L137.322 35.902L133.781 31.2497L127.467 30.8716L132.745 27.3856L133.489 21.6052Z" fill="url(#paint2_linear_6_698)"/>
<path d="M7.1838 137.601L11.0048 141.196L16.9482 140.602L12.3921 144.464L12.3231 149.707L8.51299 146.109L2.56965 146.704L7.1265 142.843L7.1838 137.601Z" fill="url(#paint3_linear_6_698)"/>
<path d="M130.152 73.0383L125.952 73.8895L123.468 78.2421L123.142 73.2408L119.741 70.6349L123.943 69.7863L126.427 65.4335L126.75 70.4344L130.152 73.0383Z" fill="url(#paint4_linear_6_698)"/>
</g>
<g filter="url(#filter8_d_6_698)">
<g filter="url(#filter9_d_6_698)">
<path d="M240.78 236.765C238.847 236.92 236.894 236.999 234.923 237H97.3989C87.9327 237.035 78.5526 235.201 69.7968 231.603C61.041 228.005 53.0817 222.714 46.3755 216.032C39.6693 209.351 34.3483 201.412 30.7175 192.669C27.0868 183.927 25.2178 174.554 25.2178 165.087C25.2178 155.621 27.0868 146.248 30.7175 137.506C34.3483 128.763 39.6693 120.824 46.3755 114.143C53.0817 107.461 61.041 102.17 69.7968 98.5718C78.5526 94.9737 87.9327 93.1397 97.3989 93.175H148.675C165.299 56.6 203.586 31 248.159 31C307.986 31 356.486 77.115 356.486 134C356.486 190.885 307.986 237 248.159 237C245.679 237 243.219 236.922 240.78 236.765Z" fill="url(#paint5_linear_6_698)"/>
<path d="M248.159 236C255.445 236 262.726 235.302 269.799 233.926C276.693 232.585 283.473 230.584 289.951 227.978C296.312 225.42 302.447 222.254 308.185 218.568C313.868 214.917 319.212 210.725 324.069 206.107C328.924 201.49 333.332 196.411 337.17 191.009C341.044 185.557 344.372 179.728 347.06 173.686C349.797 167.532 351.899 161.093 353.308 154.547C354.753 147.831 355.486 140.917 355.486 134C355.486 127.082 354.753 120.169 353.308 113.452C351.899 106.906 349.797 100.467 347.06 94.3142C344.372 88.2716 341.044 82.4433 337.17 76.991C333.332 71.5893 328.924 66.5095 324.069 61.8928C319.212 57.2752 313.868 53.0829 308.185 49.4323C302.447 45.7461 296.312 42.5801 289.951 40.0221C283.473 37.4165 276.693 35.4154 269.799 34.0742C262.726 32.6979 255.445 32 248.159 32C226.788 32 206.149 37.9523 188.472 49.2135C179.952 54.6418 172.295 61.1939 165.715 68.6878C159.094 76.2291 153.667 84.6069 149.585 93.5885L149.318 94.1747H148.674H97.3988C87.8252 94.1747 78.5385 96.0495 69.7967 99.747C65.5951 101.524 61.5425 103.724 57.7516 106.285C53.9964 108.822 50.4652 111.735 47.256 114.945C44.0468 118.154 41.1333 121.685 38.5963 125.44C36.0352 129.231 33.8355 133.284 32.0584 137.485C28.3609 146.227 26.4861 155.514 26.4861 165.087C26.4861 174.661 28.3609 183.948 32.0584 192.689C33.8355 196.891 36.0352 200.944 38.5963 204.735C41.1333 208.49 44.0468 212.021 47.256 215.23C50.4652 218.439 53.9964 221.353 57.7516 223.89C61.5425 226.451 65.5951 228.651 69.7967 230.428C78.5385 234.125 87.8252 236 97.3988 236H234.923C236.846 236 238.79 235.922 240.7 235.768L240.772 235.762L240.844 235.767C243.264 235.922 245.725 236 248.159 236ZM248.159 237C245.679 237 243.218 236.921 240.78 236.765C238.85 236.92 236.894 237 234.923 237H97.3988C57.6827 237 25.4861 204.803 25.4861 165.087C25.4861 125.371 57.6827 93.1747 97.3988 93.1747H148.674C165.299 56.5954 203.584 31 248.159 31C307.986 31 356.486 77.1151 356.486 134C356.486 190.885 307.986 237 248.159 237Z" fill="white" fill-opacity="0.5"/>
</g>
</g>
<defs>
<filter id="filter0_f_6_698" x="119.586" y="168.204" width="140.398" height="147.546" filterUnits="userSpaceOnUse" color-interpolation-filters="sRGB">
<feFlood flood-opacity="0" result="BackgroundImageFix"/>
<feBlend mode="normal" in="SourceGraphic" in2="BackgroundImageFix" result="shape"/>
<feGaussianBlur stdDeviation="2" result="effect1_foregroundBlur_6_698"/>
</filter>
<filter id="filter1_f_6_698" x="137.274" y="148.795" width="13.3608" height="13.8481" filterUnits="userSpaceOnUse" color-interpolation-filters="sRGB">
<feFlood flood-opacity="0" result="BackgroundImageFix"/>
<feBlend mode="normal" in="SourceGraphic" in2="BackgroundImageFix" result="shape"/>
<feGaussianBlur stdDeviation="1" result="effect1_foregroundBlur_6_698"/>
</filter>
<filter id="filter2_f_6_698" x="256.27" y="168.385" width="19.3301" height="20.168" filterUnits="userSpaceOnUse" color-interpolation-filters="sRGB">
<feFlood flood-opacity="0" result="BackgroundImageFix"/>
<feBlend mode="normal" in="SourceGraphic" in2="BackgroundImageFix" result="shape"/>
<feGaussianBlur stdDeviation="1" result="effect1_foregroundBlur_6_698"/>
</filter>
<filter id="filter3_f_6_698" x="248.247" y="279.939" width="16.7661" height="17.4531" filterUnits="userSpaceOnUse" color-interpolation-filters="sRGB">
<feFlood flood-opacity="0" result="BackgroundImageFix"/>
<feBlend mode="normal" in="SourceGraphic" in2="BackgroundImageFix" result="shape"/>
<feGaussianBlur stdDeviation="1" result="effect1_foregroundBlur_6_698"/>
</filter>
<filter id="filter4_f_6_698" x="146.712" y="308.727" width="15.365" height="15.9692" filterUnits="userSpaceOnUse" color-interpolation-filters="sRGB">
<feFlood flood-opacity="0" result="BackgroundImageFix"/>
<feBlend mode="normal" in="SourceGraphic" in2="BackgroundImageFix" result="shape"/>
<feGaussianBlur stdDeviation="1" result="effect1_foregroundBlur_6_698"/>
</filter>
<filter id="filter5_f_6_698" x="106.329" y="262.666" width="13.4067" height="13.897" filterUnits="userSpaceOnUse" color-interpolation-filters="sRGB">
<feFlood flood-opacity="0" result="BackgroundImageFix"/>
<feBlend mode="normal" in="SourceGraphic" in2="BackgroundImageFix" result="shape"/>
<feGaussianBlur stdDeviation="1" result="effect1_foregroundBlur_6_698"/>
</filter>
<filter id="filter6_f_6_698" x="1.48804" y="11.6855" width="112.902" height="110.185" filterUnits="userSpaceOnUse" color-interpolation-filters="sRGB">
<feFlood flood-opacity="0" result="BackgroundImageFix"/>
<feBlend mode="normal" in="SourceGraphic" in2="BackgroundImageFix" result="shape"/>
<feGaussianBlur stdDeviation="10" result="effect1_foregroundBlur_6_698"/>
</filter>
<filter id="filter7_f_6_698" x="0.569702" y="0" width="176.916" height="165" filterUnits="userSpaceOnUse" color-interpolation-filters="sRGB">
<feFlood flood-opacity="0" result="BackgroundImageFix"/>
<feBlend mode="normal" in="SourceGraphic" in2="BackgroundImageFix" result="shape"/>
<feGaussianBlur stdDeviation="1" result="effect1_foregroundBlur_6_698"/>
</filter>
<filter id="filter8_d_6_698" x="5.21777" y="3" width="391.269" height="266" filterUnits="userSpaceOnUse" color-interpolation-filters="sRGB">
<feFlood flood-opacity="0" result="BackgroundImageFix"/>
<feColorMatrix in="SourceAlpha" type="matrix" values="0 0 0 0 0 0 0 0 0 0 0 0 0 0 0 0 0 0 127 0" result="hardAlpha"/>
<feOffset dx="10" dy="2"/>
<feGaussianBlur stdDeviation="15"/>
<feColorMatrix type="matrix" values="0 0 0 0 0 0 0 0 0 0 0 0 0 0 0 0 0 0 0.25 0"/>
<feBlend mode="normal" in2="BackgroundImageFix" result="effect1_dropShadow_6_698"/>
<feBlend mode="normal" in="SourceGraphic" in2="effect1_dropShadow_6_698" result="shape"/>
</filter>
<filter id="filter9_d_6_698" x="5.21777" y="3" width="391.269" height="266" filterUnits="userSpaceOnUse" color-interpolation-filters="sRGB">
<feFlood flood-opacity="0" result="BackgroundImageFix"/>
<feColorMatrix in="SourceAlpha" type="matrix" values="0 0 0 0 0 0 0 0 0 0 0 0 0 0 0 0 0 0 127 0" result="hardAlpha"/>
<feOffset dx="10" dy="2"/>
<feGaussianBlur stdDeviation="15"/>
<feColorMatrix type="matrix" values="0 0 0 0 0.501961 0 0 0 0 0.501961 0 0 0 0 0.501961 0 0 0 0.302 0"/>
<feBlend mode="normal" in2="BackgroundImageFix" result="effect1_dropShadow_6_698"/>
<feBlend mode="normal" in="SourceGraphic" in2="effect1_dropShadow_6_698" result="shape"/>
</filter>
<linearGradient id="paint0_linear_6_698" x1="52.9861" y1="2" x2="52.9861" y2="19" gradientUnits="userSpaceOnUse">
<stop stop-color="#6B38FC"/>
<stop offset="1" stop-color="#9F7EFD"/>
</linearGradient>
<linearGradient id="paint1_linear_6_698" x1="167.486" y1="149" x2="167.486" y2="163" gradientUnits="userSpaceOnUse">
<stop stop-color="#6B38FC"/>
<stop offset="1" stop-color="#9F7EFD"/>
</linearGradient>
<linearGradient id="paint2_linear_6_698" x1="133.49" y1="21.6048" x2="137.323" y2="35.9016" gradientUnits="userSpaceOnUse">
<stop stop-color="#6B38FC"/>
<stop offset="1" stop-color="#9F7EFD"/>
</linearGradient>
<linearGradient id="paint3_linear_6_698" x1="7.18887" y1="137.599" x2="12.3282" y2="149.705" gradientUnits="userSpaceOnUse">
<stop stop-color="#6B38FC"/>
<stop offset="1" stop-color="#9F7EFD"/>
</linearGradient>
<linearGradient id="paint4_linear_6_698" x1="130.151" y1="73.0393" x2="119.741" y2="70.6359" gradientUnits="userSpaceOnUse">
<stop stop-color="#6B38FC"/>
<stop offset="1" stop-color="#9F7EFD"/>
</linearGradient>
<linearGradient id="paint5_linear_6_698" x1="159.381" y1="56.9561" x2="225.424" y2="248.168" gradientUnits="userSpaceOnUse">
<stop stop-color="white" stop-opacity="0.596"/>
<stop offset="1" stop-color="#F7F7F7" stop-opacity="0.204"/>
</linearGradient>
</defs>
</svg>
