<svg width="392" height="334" viewBox="0 0 392 334" fill="none" xmlns="http://www.w3.org/2000/svg">
<g filter="url(#filter0_f_6_1243)">
<path d="M124.054 202.835C124.583 203.318 113.514 227.126 107.082 234.526C100.65 241.925 92.7411 245.575 89.4143 242.683C86.0876 239.792 88.6013 231.452 95.034 224.052C101.467 216.652 123.526 202.351 124.054 202.835Z" fill="#42A0F0"/>
<path d="M96.1789 229.023C96.8251 230.057 99.0621 229.825 101.175 228.505C103.289 227.184 104.478 225.275 103.832 224.241C103.185 223.207 100.948 223.439 98.8352 224.76C96.722 226.08 95.5327 227.989 96.1789 229.023Z" fill="white"/>
<path d="M192.054 202.835C192.583 203.318 181.514 227.126 175.082 234.526C168.65 241.925 160.741 245.575 157.414 242.683C154.088 239.792 156.601 231.452 163.034 224.052C169.467 216.652 191.526 202.351 192.054 202.835Z" fill="#42A0F0"/>
<path d="M164.179 229.023C164.825 230.057 167.062 229.825 169.175 228.505C171.289 227.184 172.478 225.275 171.832 224.241C171.185 223.207 168.948 223.439 166.835 224.76C164.722 226.08 163.533 227.989 164.179 229.023Z" fill="white"/>
<path d="M200.054 252.835C200.583 253.318 189.514 277.126 183.082 284.526C176.65 291.925 168.741 295.575 165.414 292.683C162.088 289.792 164.601 281.452 171.034 274.052C177.467 266.652 199.526 252.351 200.054 252.835Z" fill="#42A0F0"/>
<path d="M172.179 279.023C172.825 280.057 175.062 279.825 177.175 278.505C179.289 277.184 180.478 275.275 179.832 274.241C179.185 273.207 176.948 273.439 174.835 274.76C172.722 276.08 171.533 277.989 172.179 279.023Z" fill="white"/>
<path d="M283.054 252.835C283.583 253.318 272.514 277.126 266.082 284.526C259.65 291.925 251.741 295.575 248.414 292.683C245.088 289.792 247.601 281.452 254.034 274.052C260.467 266.652 282.526 252.351 283.054 252.835Z" fill="#42A0F0"/>
<path d="M255.179 279.023C255.825 280.057 258.062 279.825 260.175 278.505C262.289 277.184 263.478 275.275 262.832 274.241C262.185 273.207 259.948 273.439 257.835 274.76C255.722 276.08 254.533 277.989 255.179 279.023Z" fill="white"/>
<path d="M223.054 288.835C223.583 289.318 212.514 313.126 206.082 320.526C199.65 327.925 191.741 331.575 188.414 328.683C185.088 325.792 187.601 317.452 194.034 310.052C200.467 302.652 222.526 288.351 223.054 288.835Z" fill="#42A0F0"/>
<path d="M195.179 315.023C195.825 316.057 198.062 315.825 200.175 314.505C202.289 313.184 203.478 311.275 202.832 310.241C202.185 309.207 199.948 309.439 197.835 310.76C195.722 312.08 194.533 313.989 195.179 315.023Z" fill="white"/>
<path d="M147.054 288.835C147.583 289.318 136.514 313.126 130.082 320.526C123.65 327.925 115.741 331.575 112.414 328.683C109.088 325.792 111.601 317.452 118.034 310.052C124.467 302.652 146.526 288.351 147.054 288.835Z" fill="#42A0F0"/>
<path d="M119.179 315.023C119.825 316.057 122.062 315.825 124.175 314.505C126.289 313.184 127.478 311.275 126.832 310.241C126.185 309.207 123.948 309.439 121.835 310.76C119.722 312.08 118.533 313.989 119.179 315.023Z" fill="white"/>
</g>
<path d="M113.787 245.557H134.337L122.523 262.905L136.336 263.167L107.348 297.481L114.368 271.319H101.508L113.787 245.557Z" fill="url(#paint0_linear_6_1243)"/>
<path d="M233.787 214.557H254.337L242.523 231.905L256.336 232.167L227.348 266.481L234.368 240.319H221.508L233.787 214.557Z" fill="url(#paint1_linear_6_1243)"/>
<g filter="url(#filter1_df_6_1243)">
<g filter="url(#filter2_d_6_1243)">
<path d="M235.562 233.765C233.629 233.92 231.676 233.999 229.705 234H92.1812C82.7149 234.035 73.3348 232.201 64.579 228.603C55.8232 225.005 47.8639 219.714 41.1577 213.032C34.4516 206.351 29.1305 198.412 25.4997 189.669C21.869 180.927 20 171.554 20 162.087C20 152.621 21.869 143.248 25.4997 134.506C29.1305 125.763 34.4516 117.824 41.1577 111.143C47.8639 104.461 55.8232 99.17 64.579 95.5718C73.3348 91.9737 82.7149 90.1397 92.1812 90.175H143.456C160.081 53.6 198.368 28 242.941 28C302.768 28 351.268 74.115 351.268 131C351.268 187.885 302.768 234 242.941 234C240.461 234 238.001 233.922 235.562 233.765Z" fill="url(#paint2_linear_6_1243)"/>
<path d="M242.941 233C250.227 233 257.508 232.302 264.582 230.926C271.475 229.585 278.255 227.584 284.734 224.978C291.094 222.42 297.229 219.254 302.967 215.568C308.65 211.917 313.994 207.725 318.851 203.108C323.706 198.491 328.114 193.411 331.953 188.009C335.827 182.557 339.154 176.729 341.842 170.686C344.579 164.533 346.681 158.094 348.09 151.548C349.535 144.832 350.268 137.918 350.268 131C350.268 124.083 349.535 117.169 348.09 110.453C346.681 103.907 344.579 97.4678 341.842 91.3146C339.154 85.272 335.827 79.4435 331.953 73.9912C328.114 68.5895 323.706 63.5097 318.851 58.8929C313.994 54.2753 308.65 50.083 302.967 46.4323C297.229 42.7462 291.094 39.5801 284.734 37.0221C278.255 34.4165 271.475 32.4154 264.582 31.0742C257.508 29.6979 250.227 29 242.941 29C221.57 29 200.931 34.9523 183.254 46.2134C174.734 51.6416 167.077 58.1937 160.497 65.6877C153.876 73.229 148.448 81.6068 144.366 90.5885L144.1 91.1747H143.456H92.1809C82.6073 91.1747 73.3206 93.0495 64.5788 96.747C60.3772 98.5242 56.3246 100.724 52.5337 103.285C48.7785 105.822 45.2473 108.735 42.0381 111.945C38.8289 115.154 35.9154 118.685 33.3784 122.44C30.8173 126.231 28.6176 130.284 26.8405 134.485C23.143 143.227 21.2682 152.514 21.2682 162.087C21.2682 171.661 23.143 180.948 26.8405 189.689C28.6176 193.891 30.8173 197.944 33.3784 201.735C35.9154 205.49 38.8289 209.021 42.0381 212.23C45.2473 215.439 48.7785 218.353 52.5337 220.89C56.3246 223.451 60.3772 225.651 64.5788 227.428C73.3206 231.125 82.6073 233 92.1809 233H229.705C231.628 233 233.572 232.922 235.482 232.768L235.554 232.762L235.626 232.767C238.046 232.922 240.507 233 242.941 233ZM242.941 234C240.461 234 238 233.921 235.563 233.765C233.632 233.92 231.676 234 229.705 234H92.1809C52.4648 234 20.2682 201.803 20.2682 162.087C20.2682 122.371 52.4648 90.1747 92.1809 90.1747H143.456C160.081 53.595 198.366 28 242.941 28C302.768 28 351.268 74.1151 351.268 131C351.268 187.886 302.768 234 242.941 234Z" fill="white" fill-opacity="0.5"/>
</g>
</g>
<defs>
<filter id="filter0_f_6_1243" x="83.9453" y="198.823" width="203.127" height="134.852" filterUnits="userSpaceOnUse" color-interpolation-filters="sRGB">
<feFlood flood-opacity="0" result="BackgroundImageFix"/>
<feBlend mode="normal" in="SourceGraphic" in2="BackgroundImageFix" result="shape"/>
<feGaussianBlur stdDeviation="2" result="effect1_foregroundBlur_6_1243"/>
</filter>
<filter id="filter1_df_6_1243" x="0" y="0" width="391.268" height="266" filterUnits="userSpaceOnUse" color-interpolation-filters="sRGB">
<feFlood flood-opacity="0" result="BackgroundImageFix"/>
<feColorMatrix in="SourceAlpha" type="matrix" values="0 0 0 0 0 0 0 0 0 0 0 0 0 0 0 0 0 0 127 0" result="hardAlpha"/>
<feOffset dx="10" dy="2"/>
<feGaussianBlur stdDeviation="15"/>
<feColorMatrix type="matrix" values="0 0 0 0 0 0 0 0 0 0 0 0 0 0 0 0 0 0 0.25 0"/>
<feBlend mode="normal" in2="BackgroundImageFix" result="effect1_dropShadow_6_1243"/>
<feBlend mode="normal" in="SourceGraphic" in2="effect1_dropShadow_6_1243" result="shape"/>
<feGaussianBlur stdDeviation="2" result="effect2_foregroundBlur_6_1243"/>
</filter>
<filter id="filter2_d_6_1243" x="0" y="0" width="391.268" height="266" filterUnits="userSpaceOnUse" color-interpolation-filters="sRGB">
<feFlood flood-opacity="0" result="BackgroundImageFix"/>
<feColorMatrix in="SourceAlpha" type="matrix" values="0 0 0 0 0 0 0 0 0 0 0 0 0 0 0 0 0 0 127 0" result="hardAlpha"/>
<feOffset dx="10" dy="2"/>
<feGaussianBlur stdDeviation="15"/>
<feColorMatrix type="matrix" values="0 0 0 0 0.501961 0 0 0 0 0.501961 0 0 0 0 0.501961 0 0 0 0.302 0"/>
<feBlend mode="normal" in2="BackgroundImageFix" result="effect1_dropShadow_6_1243"/>
<feBlend mode="normal" in="SourceGraphic" in2="effect1_dropShadow_6_1243" result="shape"/>
</filter>
<linearGradient id="paint0_linear_6_1243" x1="115.718" y1="271.519" x2="99.4497" y2="265.555" gradientUnits="userSpaceOnUse">
<stop stop-color="#FFD100"/>
<stop offset="1" stop-color="#FFF0AA"/>
</linearGradient>
<linearGradient id="paint1_linear_6_1243" x1="235.718" y1="240.519" x2="219.45" y2="234.555" gradientUnits="userSpaceOnUse">
<stop stop-color="#FFD100"/>
<stop offset="1" stop-color="#FFF0AA"/>
</linearGradient>
<linearGradient id="paint2_linear_6_1243" x1="154.164" y1="53.9561" x2="220.206" y2="245.168" gradientUnits="userSpaceOnUse">
<stop stop-color="white" stop-opacity="0.596"/>
<stop offset="1" stop-color="#F7F7F7" stop-opacity="0.204"/>
</linearGradient>
</defs>
</svg>
