<svg width="392" height="301" viewBox="0 0 392 301" fill="none" xmlns="http://www.w3.org/2000/svg">
<g filter="url(#filter0_f_6_1274)">
<path d="M114.961 212.283C114.961 212.283 172.544 215.395 198.08 207.983C223.616 200.571 223.58 162.083 198.08 152.591C172.58 143.099 163.862 177.016 163.862 177.016" stroke="#D0D0D0" stroke-width="16" stroke-linecap="round"/>
<path d="M39.9113 256.858C39.9113 256.858 126.465 249.038 164.623 256.858C202.781 264.678 190.631 287.113 172.547 288.138C154.463 289.163 137.776 277.281 137.776 277.281" stroke="#D0D0D0" stroke-width="16" stroke-linecap="round"/>
</g>
<g filter="url(#filter1_f_6_1274)">
<path d="M356.631 183.295V192.143" stroke="#42A0F0" stroke-linecap="round"/>
<path d="M356.439 185.454L357.878 184.734" stroke="#42A0F0" stroke-linecap="round"/>
<path d="M356.439 185.454L354.28 184.734" stroke="#42A0F0" stroke-linecap="round"/>
<path d="M356.439 190.492L357.878 191.212" stroke="#42A0F0" stroke-linecap="round"/>
<path d="M356.439 190.492L354.28 191.212" stroke="#42A0F0" stroke-linecap="round"/>
<path d="M360.44 185.544L352.778 189.968" stroke="#42A0F0" stroke-linecap="round"/>
<path d="M358.558 186.61L360.683 187.143" stroke="#42A0F0" stroke-linecap="round"/>
<path d="M358.558 186.61L359.134 184.461" stroke="#42A0F0" stroke-linecap="round"/>
<path d="M354.472 188.969L353.871 191.076" stroke="#42A0F0" stroke-linecap="round"/>
<path d="M354.472 188.969L352.323 188.393" stroke="#42A0F0" stroke-linecap="round"/>
<path d="M360.397 189.968L352.735 185.544" stroke="#42A0F0" stroke-linecap="round"/>
<path d="M358.533 188.871L359.133 190.977" stroke="#42A0F0" stroke-linecap="round"/>
<path d="M358.533 188.871L360.682 188.295" stroke="#42A0F0" stroke-linecap="round"/>
<path d="M354.446 186.511L352.322 187.045" stroke="#42A0F0" stroke-linecap="round"/>
<path d="M354.446 186.511L353.871 184.362" stroke="#42A0F0" stroke-linecap="round"/>
</g>
<g filter="url(#filter2_f_6_1274)">
<path d="M327.701 134.885V150.053" stroke="#42A0F0" stroke-linecap="round"/>
<path d="M327.069 138.326L329.948 137.606" stroke="#42A0F0" stroke-linecap="round"/>
<path d="M327.069 138.326L323.47 137.606" stroke="#42A0F0" stroke-linecap="round"/>
<path d="M327.069 146.962L329.948 148.401" stroke="#42A0F0" stroke-linecap="round"/>
<path d="M327.069 146.962L323.47 148.401" stroke="#42A0F0" stroke-linecap="round"/>
<path d="M334.233 138.74L321.097 146.324" stroke="#42A0F0" stroke-linecap="round"/>
<path d="M331.007 140.566L334.648 141.48" stroke="#42A0F0" stroke-linecap="round"/>
<path d="M331.007 140.566L331.994 136.883" stroke="#42A0F0" stroke-linecap="round"/>
<path d="M324 144.611L322.972 148.221" stroke="#42A0F0" stroke-linecap="round"/>
<path d="M324.001 144.611L320.318 143.624" stroke="#42A0F0" stroke-linecap="round"/>
<path d="M334.159 146.324L321.024 138.74" stroke="#42A0F0" stroke-linecap="round"/>
<path d="M330.965 144.444L331.994 148.054" stroke="#42A0F0" stroke-linecap="round"/>
<path d="M330.965 144.443L334.647 143.457" stroke="#42A0F0" stroke-linecap="round"/>
<path d="M323.958 140.398L320.318 141.312" stroke="#42A0F0" stroke-linecap="round"/>
<path d="M323.958 140.398L322.972 136.715" stroke="#42A0F0" stroke-linecap="round"/>
</g>
<g filter="url(#filter3_f_6_1274)">
<path d="M220.357 228.439V240.892" stroke="#42A0F0" stroke-linecap="round"/>
<path d="M219.712 231.16L221.871 230.44" stroke="#42A0F0" stroke-linecap="round"/>
<path d="M219.712 231.16L216.833 230.44" stroke="#42A0F0" stroke-linecap="round"/>
<path d="M219.712 238.357L221.871 239.796" stroke="#42A0F0" stroke-linecap="round"/>
<path d="M219.712 238.357L216.833 239.796" stroke="#42A0F0" stroke-linecap="round"/>
<path d="M225.719 231.604L214.935 237.831" stroke="#42A0F0" stroke-linecap="round"/>
<path d="M223.071 233.105L226.061 233.855" stroke="#42A0F0" stroke-linecap="round"/>
<path d="M223.071 233.104L223.881 230.08" stroke="#42A0F0" stroke-linecap="round"/>
<path d="M217.32 236.425L216.475 239.389" stroke="#42A0F0" stroke-linecap="round"/>
<path d="M217.32 236.425L214.295 235.614" stroke="#42A0F0" stroke-linecap="round"/>
<path d="M225.66 237.83L214.875 231.604" stroke="#42A0F0" stroke-linecap="round"/>
<path d="M223.036 236.287L223.881 239.251" stroke="#42A0F0" stroke-linecap="round"/>
<path d="M223.036 236.286L226.06 235.476" stroke="#42A0F0" stroke-linecap="round"/>
<path d="M217.285 232.966L214.295 233.717" stroke="#42A0F0" stroke-linecap="round"/>
<path d="M217.285 232.966L216.474 229.942" stroke="#42A0F0" stroke-linecap="round"/>
</g>
<g filter="url(#filter4_f_6_1274)">
<path d="M251.709 254.166V263.063" stroke="#42A0F0" stroke-linecap="round"/>
<path d="M251.492 256.166L252.931 255.446" stroke="#42A0F0" stroke-linecap="round"/>
<path d="M251.492 256.166L249.333 255.446" stroke="#42A0F0" stroke-linecap="round"/>
<path d="M251.492 261.205L252.931 261.925" stroke="#42A0F0" stroke-linecap="round"/>
<path d="M251.492 261.205L249.333 261.925" stroke="#42A0F0" stroke-linecap="round"/>
<path d="M255.54 256.426L247.835 260.875" stroke="#42A0F0" stroke-linecap="round"/>
<path d="M253.648 257.499L255.784 258.035" stroke="#42A0F0" stroke-linecap="round"/>
<path d="M253.648 257.499L254.227 255.338" stroke="#42A0F0" stroke-linecap="round"/>
<path d="M249.538 259.872L248.934 261.989" stroke="#42A0F0" stroke-linecap="round"/>
<path d="M249.538 259.872L247.377 259.292" stroke="#42A0F0" stroke-linecap="round"/>
<path d="M255.498 260.875L247.793 256.426" stroke="#42A0F0" stroke-linecap="round"/>
<path d="M253.622 259.772L254.226 261.89" stroke="#42A0F0" stroke-linecap="round"/>
<path d="M253.622 259.772L255.783 259.193" stroke="#42A0F0" stroke-linecap="round"/>
<path d="M249.513 257.4L247.377 257.936" stroke="#42A0F0" stroke-linecap="round"/>
<path d="M249.513 257.4L248.934 255.239" stroke="#42A0F0" stroke-linecap="round"/>
</g>
<g filter="url(#filter5_f_6_1274)">
<path d="M334.683 216.54V274.602" stroke="#42A0F0" stroke-width="4" stroke-linecap="round"/>
<path d="M334.567 230.733L344.567 220.411" stroke="#42A0F0" stroke-width="4" stroke-linecap="round"/>
<path d="M334.567 230.733L324.245 220.411" stroke="#42A0F0" stroke-width="4" stroke-linecap="round"/>
<path d="M334.567 261.7L344.567 272.022" stroke="#42A0F0" stroke-width="4" stroke-linecap="round"/>
<path d="M334.567 261.7L324.245 272.022" stroke="#42A0F0" stroke-width="4" stroke-linecap="round"/>
<path d="M359.686 231.295L309.403 260.326" stroke="#42A0F0" stroke-width="4" stroke-linecap="round"/>
<path d="M347.337 238.291L361.276 241.791" stroke="#42A0F0" stroke-width="4" stroke-linecap="round"/>
<path d="M347.337 238.292L351.115 224.191" stroke="#42A0F0" stroke-width="4" stroke-linecap="round"/>
<path d="M320.518 253.775L316.579 267.596" stroke="#42A0F0" stroke-width="4" stroke-linecap="round"/>
<path d="M320.518 253.775L306.418 249.997" stroke="#42A0F0" stroke-width="4" stroke-linecap="round"/>
<path d="M359.409 260.327L309.126 231.296" stroke="#42A0F0" stroke-width="4" stroke-linecap="round"/>
<path d="M347.176 253.13L351.115 266.951" stroke="#42A0F0" stroke-width="4" stroke-linecap="round"/>
<path d="M347.176 253.13L361.276 249.352" stroke="#42A0F0" stroke-width="4" stroke-linecap="round"/>
<path d="M320.357 237.646L306.418 241.145" stroke="#42A0F0" stroke-width="4" stroke-linecap="round"/>
<path d="M320.357 237.646L316.579 223.546" stroke="#42A0F0" stroke-width="4" stroke-linecap="round"/>
<path d="M268.902 150.003V208.065" stroke="#42A0F0" stroke-width="4" stroke-linecap="round"/>
<path d="M268.786 164.196L278.786 153.874" stroke="#42A0F0" stroke-width="4" stroke-linecap="round"/>
<path d="M268.786 164.196L258.464 153.874" stroke="#42A0F0" stroke-width="4" stroke-linecap="round"/>
<path d="M268.786 195.163L278.786 205.485" stroke="#42A0F0" stroke-width="4" stroke-linecap="round"/>
<path d="M268.786 195.163L258.464 205.485" stroke="#42A0F0" stroke-width="4" stroke-linecap="round"/>
<path d="M293.905 164.758L243.622 193.789" stroke="#42A0F0" stroke-width="4" stroke-linecap="round"/>
<path d="M281.556 171.754L295.495 175.254" stroke="#42A0F0" stroke-width="4" stroke-linecap="round"/>
<path d="M281.556 171.754L285.334 157.654" stroke="#42A0F0" stroke-width="4" stroke-linecap="round"/>
<path d="M254.737 187.238L250.798 201.059" stroke="#42A0F0" stroke-width="4" stroke-linecap="round"/>
<path d="M254.737 187.238L240.637 183.46" stroke="#42A0F0" stroke-width="4" stroke-linecap="round"/>
<path d="M293.628 193.79L243.345 164.759" stroke="#42A0F0" stroke-width="4" stroke-linecap="round"/>
<path d="M281.395 186.592L285.334 200.414" stroke="#42A0F0" stroke-width="4" stroke-linecap="round"/>
<path d="M281.395 186.593L295.495 182.814" stroke="#42A0F0" stroke-width="4" stroke-linecap="round"/>
<path d="M254.576 171.109L240.637 174.608" stroke="#42A0F0" stroke-width="4" stroke-linecap="round"/>
<path d="M254.576 171.109L250.798 157.009" stroke="#42A0F0" stroke-width="4" stroke-linecap="round"/>
</g>
<g filter="url(#filter6_df_6_1274)">
<g filter="url(#filter7_d_6_1274)">
<path d="M235.562 233.765C233.629 233.92 231.676 233.999 229.705 234H92.1812C82.7149 234.035 73.3348 232.201 64.579 228.603C55.8232 225.005 47.8639 219.714 41.1577 213.032C34.4516 206.351 29.1305 198.412 25.4997 189.669C21.869 180.927 20 171.554 20 162.087C20 152.621 21.869 143.248 25.4997 134.506C29.1305 125.763 34.4516 117.824 41.1577 111.143C47.8639 104.461 55.8232 99.17 64.579 95.5718C73.3348 91.9737 82.7149 90.1397 92.1812 90.175H143.456C160.08 53.6 198.368 28 242.941 28C302.768 28 351.268 74.115 351.268 131C351.268 187.885 302.768 234 242.941 234C240.461 234 238.001 233.922 235.562 233.765Z" fill="url(#paint0_linear_6_1274)"/>
<path d="M242.941 233C250.227 233 257.508 232.302 264.582 230.926C271.475 229.585 278.255 227.584 284.734 224.978C291.094 222.42 297.229 219.254 302.967 215.568C308.65 211.917 313.994 207.725 318.851 203.107C323.706 198.49 328.114 193.411 331.953 188.009C335.827 182.557 339.154 176.728 341.842 170.686C344.579 164.532 346.681 158.093 348.09 151.547C349.535 144.831 350.268 137.917 350.268 131C350.268 124.082 349.535 117.169 348.09 110.452C346.681 103.906 344.579 97.4673 341.842 91.3142C339.154 85.2716 335.827 79.4433 331.953 73.991C328.114 68.5893 323.706 63.5095 318.851 58.8928C313.994 54.2752 308.65 50.0829 302.967 46.4323C297.229 42.7461 291.094 39.5801 284.734 37.0221C278.255 34.4165 271.475 32.4154 264.582 31.0742C257.508 29.6979 250.227 29 242.941 29C221.57 29 200.931 34.9523 183.254 46.2135C174.734 51.6418 167.077 58.1939 160.497 65.6878C153.875 73.2291 148.448 81.6069 144.366 90.5885L144.1 91.1747H143.456H92.1809C82.6073 91.1747 73.3206 93.0495 64.5788 96.747C60.3772 98.5242 56.3246 100.724 52.5337 103.285C48.7785 105.822 45.2473 108.735 42.0381 111.945C38.8289 115.154 35.9154 118.685 33.3784 122.44C30.8173 126.231 28.6176 130.284 26.8405 134.485C23.143 143.227 21.2682 152.514 21.2682 162.087C21.2682 171.661 23.143 180.948 26.8405 189.689C28.6176 193.891 30.8173 197.944 33.3784 201.735C35.9154 205.49 38.8289 209.021 42.0381 212.23C45.2473 215.439 48.7785 218.353 52.5337 220.89C56.3246 223.451 60.3772 225.651 64.5788 227.428C73.3206 231.125 82.6073 233 92.1809 233H229.705C231.628 233 233.572 232.922 235.482 232.768L235.554 232.762L235.626 232.767C238.046 232.922 240.507 233 242.941 233ZM242.941 234C240.461 234 238 233.921 235.563 233.765C233.632 233.92 231.676 234 229.705 234H92.1809C52.4648 234 20.2682 201.803 20.2682 162.087C20.2682 122.371 52.4648 90.1747 92.1809 90.1747H143.456C160.081 53.5954 198.366 28 242.941 28C302.768 28 351.268 74.1151 351.268 131C351.268 187.885 302.768 234 242.941 234Z" fill="white" fill-opacity="0.5"/>
</g>
</g>
<defs>
<filter id="filter0_f_6_1274" x="27.9108" y="138.915" width="201.308" height="161.286" filterUnits="userSpaceOnUse" color-interpolation-filters="sRGB">
<feFlood flood-opacity="0" result="BackgroundImageFix"/>
<feBlend mode="normal" in="SourceGraphic" in2="BackgroundImageFix" result="shape"/>
<feGaussianBlur stdDeviation="2" result="effect1_foregroundBlur_6_1274"/>
</filter>
<filter id="filter1_f_6_1274" x="349.822" y="180.795" width="13.3608" height="13.8481" filterUnits="userSpaceOnUse" color-interpolation-filters="sRGB">
<feFlood flood-opacity="0" result="BackgroundImageFix"/>
<feBlend mode="normal" in="SourceGraphic" in2="BackgroundImageFix" result="shape"/>
<feGaussianBlur stdDeviation="1" result="effect1_foregroundBlur_6_1274"/>
</filter>
<filter id="filter2_f_6_1274" x="317.818" y="132.385" width="19.3301" height="20.168" filterUnits="userSpaceOnUse" color-interpolation-filters="sRGB">
<feFlood flood-opacity="0" result="BackgroundImageFix"/>
<feBlend mode="normal" in="SourceGraphic" in2="BackgroundImageFix" result="shape"/>
<feGaussianBlur stdDeviation="1" result="effect1_foregroundBlur_6_1274"/>
</filter>
<filter id="filter3_f_6_1274" x="211.795" y="225.939" width="16.7661" height="17.4531" filterUnits="userSpaceOnUse" color-interpolation-filters="sRGB">
<feFlood flood-opacity="0" result="BackgroundImageFix"/>
<feBlend mode="normal" in="SourceGraphic" in2="BackgroundImageFix" result="shape"/>
<feGaussianBlur stdDeviation="1" result="effect1_foregroundBlur_6_1274"/>
</filter>
<filter id="filter4_f_6_1274" x="244.877" y="251.666" width="13.4067" height="13.897" filterUnits="userSpaceOnUse" color-interpolation-filters="sRGB">
<feFlood flood-opacity="0" result="BackgroundImageFix"/>
<feBlend mode="normal" in="SourceGraphic" in2="BackgroundImageFix" result="shape"/>
<feGaussianBlur stdDeviation="1" result="effect1_foregroundBlur_6_1274"/>
</filter>
<filter id="filter5_f_6_1274" x="234.637" y="144.003" width="132.639" height="136.599" filterUnits="userSpaceOnUse" color-interpolation-filters="sRGB">
<feFlood flood-opacity="0" result="BackgroundImageFix"/>
<feBlend mode="normal" in="SourceGraphic" in2="BackgroundImageFix" result="shape"/>
<feGaussianBlur stdDeviation="2" result="effect1_foregroundBlur_6_1274"/>
</filter>
<filter id="filter6_df_6_1274" x="0" y="0" width="391.268" height="266" filterUnits="userSpaceOnUse" color-interpolation-filters="sRGB">
<feFlood flood-opacity="0" result="BackgroundImageFix"/>
<feColorMatrix in="SourceAlpha" type="matrix" values="0 0 0 0 0 0 0 0 0 0 0 0 0 0 0 0 0 0 127 0" result="hardAlpha"/>
<feOffset dx="10" dy="2"/>
<feGaussianBlur stdDeviation="15"/>
<feColorMatrix type="matrix" values="0 0 0 0 0 0 0 0 0 0 0 0 0 0 0 0 0 0 0.25 0"/>
<feBlend mode="normal" in2="BackgroundImageFix" result="effect1_dropShadow_6_1274"/>
<feBlend mode="normal" in="SourceGraphic" in2="effect1_dropShadow_6_1274" result="shape"/>
<feGaussianBlur stdDeviation="2" result="effect2_foregroundBlur_6_1274"/>
</filter>
<filter id="filter7_d_6_1274" x="0" y="0" width="391.268" height="266" filterUnits="userSpaceOnUse" color-interpolation-filters="sRGB">
<feFlood flood-opacity="0" result="BackgroundImageFix"/>
<feColorMatrix in="SourceAlpha" type="matrix" values="0 0 0 0 0 0 0 0 0 0 0 0 0 0 0 0 0 0 127 0" result="hardAlpha"/>
<feOffset dx="10" dy="2"/>
<feGaussianBlur stdDeviation="15"/>
<feColorMatrix type="matrix" values="0 0 0 0 0.501961 0 0 0 0 0.501961 0 0 0 0 0.501961 0 0 0 0.302 0"/>
<feBlend mode="normal" in2="BackgroundImageFix" result="effect1_dropShadow_6_1274"/>
<feBlend mode="normal" in="SourceGraphic" in2="effect1_dropShadow_6_1274" result="shape"/>
</filter>
<linearGradient id="paint0_linear_6_1274" x1="154.164" y1="53.9561" x2="220.206" y2="245.168" gradientUnits="userSpaceOnUse">
<stop stop-color="white" stop-opacity="0.596"/>
<stop offset="1" stop-color="#F7F7F7" stop-opacity="0.204"/>
</linearGradient>
</defs>
</svg>
