<svg width="252" height="263" viewBox="0 0 252 263" fill="none" xmlns="http://www.w3.org/2000/svg">
<g filter="url(#filter0_f_2_730)">
<path d="M126.89 41.2212L126.89 237.324" stroke="#42A0F0" stroke-width="10" stroke-linecap="round"/>
<path d="M126.499 89.1584L160.272 54.2954" stroke="#42A0F0" stroke-width="10" stroke-linecap="round"/>
<path d="M126.498 89.1584L91.6355 54.2954" stroke="#42A0F0" stroke-width="10" stroke-linecap="round"/>
<path d="M126.499 193.746L160.272 228.609" stroke="#42A0F0" stroke-width="10" stroke-linecap="round"/>
<path d="M126.498 193.746L91.6355 228.609" stroke="#42A0F0" stroke-width="10" stroke-linecap="round"/>
<path d="M211.337 91.0581L41.5067 189.11" stroke="#42A0F0" stroke-width="10" stroke-linecap="round"/>
<path d="M169.626 114.687L216.705 126.504" stroke="#42A0F0" stroke-width="10" stroke-linecap="round"/>
<path d="M169.626 114.687L182.387 67.0635" stroke="#42A0F0" stroke-width="10" stroke-linecap="round"/>
<path d="M79.0503 166.981L65.7446 213.661" stroke="#42A0F0" stroke-width="10" stroke-linecap="round"/>
<path d="M79.0504 166.981L31.4267 154.221" stroke="#42A0F0" stroke-width="10" stroke-linecap="round"/>
<path d="M210.401 189.11L40.5709 91.0584" stroke="#42A0F0" stroke-width="10" stroke-linecap="round"/>
<path d="M169.082 164.802L182.388 211.482" stroke="#42A0F0" stroke-width="10" stroke-linecap="round"/>
<path d="M169.082 164.802L216.706 152.041" stroke="#42A0F0" stroke-width="10" stroke-linecap="round"/>
<path d="M78.5066 112.508L31.4279 124.325" stroke="#42A0F0" stroke-width="10" stroke-linecap="round"/>
<path d="M78.5065 112.508L65.7457 64.8839" stroke="#42A0F0" stroke-width="10" stroke-linecap="round"/>
</g>
<g filter="url(#filter1_f_2_730)">
<path d="M54.8838 2V15.394" stroke="#42A0F0" stroke-linecap="round"/>
<path d="M54.5938 5.2682L56.7727 4.1792" stroke="#42A0F0" stroke-linecap="round"/>
<path d="M54.5937 5.2682L51.3257 4.1792" stroke="#42A0F0" stroke-linecap="round"/>
<path d="M54.5938 12.895L56.7727 13.984" stroke="#42A0F0" stroke-linecap="round"/>
<path d="M54.5937 12.895L51.3257 13.984" stroke="#42A0F0" stroke-linecap="round"/>
<path d="M60.6519 5.4043L49.0523 12.1013" stroke="#42A0F0" stroke-linecap="round"/>
<path d="M57.8027 7.01765L61.0182 7.82507" stroke="#42A0F0" stroke-linecap="round"/>
<path d="M57.8028 7.01764L58.6743 3.76514" stroke="#42A0F0" stroke-linecap="round"/>
<path d="M51.616 10.5898L50.7075 13.7783" stroke="#42A0F0" stroke-linecap="round"/>
<path d="M51.616 10.5898L48.3635 9.71833" stroke="#42A0F0" stroke-linecap="round"/>
<path d="M60.5876 12.1016L48.9881 5.40456" stroke="#42A0F0" stroke-linecap="round"/>
<path d="M57.7659 10.4413L58.6744 13.6298" stroke="#42A0F0" stroke-linecap="round"/>
<path d="M57.7658 10.4413L61.0183 9.56982" stroke="#42A0F0" stroke-linecap="round"/>
<path d="M51.5791 6.86914L48.3636 7.67656" stroke="#42A0F0" stroke-linecap="round"/>
<path d="M51.579 6.86914L50.7075 3.61663" stroke="#42A0F0" stroke-linecap="round"/>
</g>
<g filter="url(#filter2_f_2_730)">
<path d="M239.67 31.6548V54.6148" stroke="#42A0F0" stroke-linecap="round"/>
<path d="M238.713 36.8629L243.071 35.7739" stroke="#42A0F0" stroke-linecap="round"/>
<path d="M238.713 36.8629L233.266 35.7739" stroke="#42A0F0" stroke-linecap="round"/>
<path d="M238.713 49.937L243.071 52.116" stroke="#42A0F0" stroke-linecap="round"/>
<path d="M238.713 49.937L233.266 52.116" stroke="#42A0F0" stroke-linecap="round"/>
<path d="M249.557 37.4897L229.673 48.9697" stroke="#42A0F0" stroke-linecap="round"/>
<path d="M244.673 40.2563L250.185 41.6396" stroke="#42A0F0" stroke-linecap="round"/>
<path d="M244.673 40.2563L246.167 34.6802" stroke="#42A0F0" stroke-linecap="round"/>
<path d="M234.068 46.3789L232.51 51.8442" stroke="#42A0F0" stroke-linecap="round"/>
<path d="M234.068 46.3789L228.492 44.8847" stroke="#42A0F0" stroke-linecap="round"/>
<path d="M249.447 48.9712L229.563 37.4912" stroke="#42A0F0" stroke-linecap="round"/>
<path d="M244.609 46.1245L246.167 51.5898" stroke="#42A0F0" stroke-linecap="round"/>
<path d="M244.609 46.1245L250.185 44.6304" stroke="#42A0F0" stroke-linecap="round"/>
<path d="M234.004 40.002L228.492 41.3852" stroke="#42A0F0" stroke-linecap="round"/>
<path d="M234.004 40.0019L232.51 34.4258" stroke="#42A0F0" stroke-linecap="round"/>
</g>
<g filter="url(#filter3_f_2_730)">
<path d="M225.527 200.522V219.372" stroke="#42A0F0" stroke-linecap="round"/>
<path d="M224.55 204.64L227.818 203.551" stroke="#42A0F0" stroke-linecap="round"/>
<path d="M224.55 204.64L220.192 203.551" stroke="#42A0F0" stroke-linecap="round"/>
<path d="M224.55 215.535L227.818 217.714" stroke="#42A0F0" stroke-linecap="round"/>
<path d="M224.55 215.535L220.192 217.714" stroke="#42A0F0" stroke-linecap="round"/>
<path d="M233.644 205.313L217.319 214.738" stroke="#42A0F0" stroke-linecap="round"/>
<path d="M229.634 207.584L234.159 208.719" stroke="#42A0F0" stroke-linecap="round"/>
<path d="M229.634 207.584L230.861 203.006" stroke="#42A0F0" stroke-linecap="round"/>
<path d="M220.928 212.61L219.649 217.097" stroke="#42A0F0" stroke-linecap="round"/>
<path d="M220.928 212.611L216.351 211.384" stroke="#42A0F0" stroke-linecap="round"/>
<path d="M233.554 214.738L217.229 205.313" stroke="#42A0F0" stroke-linecap="round"/>
<path d="M229.582 212.401L230.861 216.887" stroke="#42A0F0" stroke-linecap="round"/>
<path d="M229.582 212.401L234.16 211.174" stroke="#42A0F0" stroke-linecap="round"/>
<path d="M220.876 207.374L216.351 208.51" stroke="#42A0F0" stroke-linecap="round"/>
<path d="M220.876 207.374L219.65 202.797" stroke="#42A0F0" stroke-linecap="round"/>
</g>
<g filter="url(#filter4_f_2_730)">
<path d="M70.7327 244.1V260.705" stroke="#42A0F0" stroke-linecap="round"/>
<path d="M69.8457 248.218L73.1137 247.129" stroke="#42A0F0" stroke-linecap="round"/>
<path d="M69.8456 248.218L66.5776 247.129" stroke="#42A0F0" stroke-linecap="round"/>
<path d="M69.8457 256.934L73.1137 259.113" stroke="#42A0F0" stroke-linecap="round"/>
<path d="M69.8456 256.934L66.5776 259.113" stroke="#42A0F0" stroke-linecap="round"/>
<path d="M77.8831 248.32L63.5027 256.622" stroke="#42A0F0" stroke-linecap="round"/>
<path d="M74.3515 250.321L78.338 251.322" stroke="#42A0F0" stroke-linecap="round"/>
<path d="M74.3514 250.321L75.4319 246.289" stroke="#42A0F0" stroke-linecap="round"/>
<path d="M66.6819 254.749L65.5554 258.702" stroke="#42A0F0" stroke-linecap="round"/>
<path d="M66.6818 254.749L62.6493 253.668" stroke="#42A0F0" stroke-linecap="round"/>
<path d="M77.8042 256.622L63.4238 248.32" stroke="#42A0F0" stroke-linecap="round"/>
<path d="M74.3053 254.564L75.4318 258.517" stroke="#42A0F0" stroke-linecap="round"/>
<path d="M74.3054 254.564L78.3379 253.483" stroke="#42A0F0" stroke-linecap="round"/>
<path d="M66.6357 250.136L62.6492 251.137" stroke="#42A0F0" stroke-linecap="round"/>
<path d="M66.6358 250.136L65.5553 246.104" stroke="#42A0F0" stroke-linecap="round"/>
</g>
<g filter="url(#filter5_f_2_730)">
<path d="M8.07544 174.374V187.842" stroke="#42A0F0" stroke-linecap="round"/>
<path d="M7.74658 177.403L9.92558 176.314" stroke="#42A0F0" stroke-linecap="round"/>
<path d="M7.74652 177.403L4.47852 176.314" stroke="#42A0F0" stroke-linecap="round"/>
<path d="M7.74658 185.029L9.92558 186.118" stroke="#42A0F0" stroke-linecap="round"/>
<path d="M7.74652 185.029L4.47852 186.118" stroke="#42A0F0" stroke-linecap="round"/>
<path d="M13.874 177.797L2.21039 184.531" stroke="#42A0F0" stroke-linecap="round"/>
<path d="M11.0097 179.42L14.2425 180.231" stroke="#42A0F0" stroke-linecap="round"/>
<path d="M11.0097 179.42L11.886 176.149" stroke="#42A0F0" stroke-linecap="round"/>
<path d="M4.78906 183.011L3.8753 186.216" stroke="#42A0F0" stroke-linecap="round"/>
<path d="M4.78904 183.011L1.51878 182.135" stroke="#42A0F0" stroke-linecap="round"/>
<path d="M13.8103 184.531L2.14667 177.797" stroke="#42A0F0" stroke-linecap="round"/>
<path d="M10.9729 182.861L11.8866 186.066" stroke="#42A0F0" stroke-linecap="round"/>
<path d="M10.9729 182.861L14.2432 181.985" stroke="#42A0F0" stroke-linecap="round"/>
<path d="M4.7522 179.27L1.51943 180.081" stroke="#42A0F0" stroke-linecap="round"/>
<path d="M4.75222 179.27L3.87595 176" stroke="#42A0F0" stroke-linecap="round"/>
</g>
<defs>
<filter id="filter0_f_2_730" x="22.4253" y="32.2212" width="203.282" height="214.103" filterUnits="userSpaceOnUse" color-interpolation-filters="sRGB">
<feFlood flood-opacity="0" result="BackgroundImageFix"/>
<feBlend mode="normal" in="SourceGraphic" in2="BackgroundImageFix" result="shape"/>
<feGaussianBlur stdDeviation="2" result="effect1_foregroundBlur_2_730"/>
</filter>
<filter id="filter1_f_2_730" x="46.8635" y="0.5" width="15.655" height="16.394" filterUnits="userSpaceOnUse" color-interpolation-filters="sRGB">
<feFlood flood-opacity="0" result="BackgroundImageFix"/>
<feBlend mode="normal" in="SourceGraphic" in2="BackgroundImageFix" result="shape"/>
<feGaussianBlur stdDeviation="0.5" result="effect1_foregroundBlur_2_730"/>
</filter>
<filter id="filter2_f_2_730" x="226.992" y="30.1548" width="24.6931" height="25.96" filterUnits="userSpaceOnUse" color-interpolation-filters="sRGB">
<feFlood flood-opacity="0" result="BackgroundImageFix"/>
<feBlend mode="normal" in="SourceGraphic" in2="BackgroundImageFix" result="shape"/>
<feGaussianBlur stdDeviation="0.5" result="effect1_foregroundBlur_2_730"/>
</filter>
<filter id="filter3_f_2_730" x="214.851" y="199.022" width="20.8096" height="21.8501" filterUnits="userSpaceOnUse" color-interpolation-filters="sRGB">
<feFlood flood-opacity="0" result="BackgroundImageFix"/>
<feBlend mode="normal" in="SourceGraphic" in2="BackgroundImageFix" result="shape"/>
<feGaussianBlur stdDeviation="0.5" result="effect1_foregroundBlur_2_730"/>
</filter>
<filter id="filter4_f_2_730" x="61.1492" y="242.6" width="18.689" height="19.605" filterUnits="userSpaceOnUse" color-interpolation-filters="sRGB">
<feFlood flood-opacity="0" result="BackgroundImageFix"/>
<feBlend mode="normal" in="SourceGraphic" in2="BackgroundImageFix" result="shape"/>
<feGaussianBlur stdDeviation="0.5" result="effect1_foregroundBlur_2_730"/>
</filter>
<filter id="filter5_f_2_730" x="0.0185547" y="172.874" width="15.7249" height="16.4678" filterUnits="userSpaceOnUse" color-interpolation-filters="sRGB">
<feFlood flood-opacity="0" result="BackgroundImageFix"/>
<feBlend mode="normal" in="SourceGraphic" in2="BackgroundImageFix" result="shape"/>
<feGaussianBlur stdDeviation="0.5" result="effect1_foregroundBlur_2_730"/>
</filter>
</defs>
</svg>
