<svg width="409" height="347" viewBox="0 0 409 347" fill="none" xmlns="http://www.w3.org/2000/svg">
<g filter="url(#filter0_f_6_865)">
<path d="M156.083 148.295V157.143" stroke="#42A0F0" stroke-linecap="round"/>
<path d="M155.891 150.454L157.33 149.734" stroke="#42A0F0" stroke-linecap="round"/>
<path d="M155.891 150.454L153.732 149.734" stroke="#42A0F0" stroke-linecap="round"/>
<path d="M155.891 155.492L157.33 156.212" stroke="#42A0F0" stroke-linecap="round"/>
<path d="M155.891 155.492L153.732 156.212" stroke="#42A0F0" stroke-linecap="round"/>
<path d="M159.893 150.544L152.23 154.968" stroke="#42A0F0" stroke-linecap="round"/>
<path d="M158.011 151.61L160.135 152.143" stroke="#42A0F0" stroke-linecap="round"/>
<path d="M158.01 151.61L158.586 149.461" stroke="#42A0F0" stroke-linecap="round"/>
<path d="M153.924 153.969L153.324 156.076" stroke="#42A0F0" stroke-linecap="round"/>
<path d="M153.924 153.969L151.775 153.393" stroke="#42A0F0" stroke-linecap="round"/>
<path d="M159.85 154.968L152.187 150.544" stroke="#42A0F0" stroke-linecap="round"/>
<path d="M157.985 153.871L158.585 155.977" stroke="#42A0F0" stroke-linecap="round"/>
<path d="M157.985 153.871L160.134 153.295" stroke="#42A0F0" stroke-linecap="round"/>
<path d="M153.898 151.511L151.774 152.045" stroke="#42A0F0" stroke-linecap="round"/>
<path d="M153.899 151.511L153.323 149.362" stroke="#42A0F0" stroke-linecap="round"/>
</g>
<g filter="url(#filter1_f_6_865)">
<path d="M278.153 167.885V183.053" stroke="#42A0F0" stroke-linecap="round"/>
<path d="M277.521 171.326L280.4 170.606" stroke="#42A0F0" stroke-linecap="round"/>
<path d="M277.521 171.326L273.922 170.606" stroke="#42A0F0" stroke-linecap="round"/>
<path d="M277.521 179.962L280.4 181.401" stroke="#42A0F0" stroke-linecap="round"/>
<path d="M277.521 179.962L273.922 181.401" stroke="#42A0F0" stroke-linecap="round"/>
<path d="M284.685 171.74L271.549 179.324" stroke="#42A0F0" stroke-linecap="round"/>
<path d="M281.459 173.566L285.099 174.48" stroke="#42A0F0" stroke-linecap="round"/>
<path d="M281.459 173.566L282.446 169.883" stroke="#42A0F0" stroke-linecap="round"/>
<path d="M274.452 177.611L273.424 181.221" stroke="#42A0F0" stroke-linecap="round"/>
<path d="M274.452 177.611L270.77 176.624" stroke="#42A0F0" stroke-linecap="round"/>
<path d="M284.611 179.324L271.475 171.74" stroke="#42A0F0" stroke-linecap="round"/>
<path d="M281.417 177.444L282.445 181.054" stroke="#42A0F0" stroke-linecap="round"/>
<path d="M281.417 177.443L285.099 176.457" stroke="#42A0F0" stroke-linecap="round"/>
<path d="M274.41 173.398L270.77 174.312" stroke="#42A0F0" stroke-linecap="round"/>
<path d="M274.41 173.398L273.423 169.715" stroke="#42A0F0" stroke-linecap="round"/>
</g>
<g filter="url(#filter2_f_6_865)">
<path d="M366.809 191.439V203.892" stroke="#42A0F0" stroke-linecap="round"/>
<path d="M366.164 194.16L368.323 193.44" stroke="#42A0F0" stroke-linecap="round"/>
<path d="M366.164 194.16L363.285 193.44" stroke="#42A0F0" stroke-linecap="round"/>
<path d="M366.164 201.357L368.323 202.796" stroke="#42A0F0" stroke-linecap="round"/>
<path d="M366.164 201.357L363.285 202.796" stroke="#42A0F0" stroke-linecap="round"/>
<path d="M372.171 194.604L361.387 200.831" stroke="#42A0F0" stroke-linecap="round"/>
<path d="M369.523 196.105L372.513 196.855" stroke="#42A0F0" stroke-linecap="round"/>
<path d="M369.523 196.104L370.333 193.08" stroke="#42A0F0" stroke-linecap="round"/>
<path d="M363.771 199.425L362.927 202.389" stroke="#42A0F0" stroke-linecap="round"/>
<path d="M363.772 199.425L360.747 198.614" stroke="#42A0F0" stroke-linecap="round"/>
<path d="M372.112 200.83L361.327 194.604" stroke="#42A0F0" stroke-linecap="round"/>
<path d="M369.488 199.287L370.333 202.251" stroke="#42A0F0" stroke-linecap="round"/>
<path d="M369.488 199.286L372.512 198.476" stroke="#42A0F0" stroke-linecap="round"/>
<path d="M363.737 195.966L360.747 196.717" stroke="#42A0F0" stroke-linecap="round"/>
<path d="M363.737 195.966L362.926 192.942" stroke="#42A0F0" stroke-linecap="round"/>
</g>
<g filter="url(#filter3_f_6_865)">
<path d="M60.5522 244.227V255.196" stroke="#42A0F0" stroke-linecap="round"/>
<path d="M59.9661 246.948L62.1251 246.228" stroke="#42A0F0" stroke-linecap="round"/>
<path d="M59.9661 246.948L57.8071 246.228" stroke="#42A0F0" stroke-linecap="round"/>
<path d="M59.9661 252.705L62.1251 254.144" stroke="#42A0F0" stroke-linecap="round"/>
<path d="M59.9661 252.705L57.8071 254.144" stroke="#42A0F0" stroke-linecap="round"/>
<path d="M65.2761 247.015L55.7767 252.5" stroke="#42A0F0" stroke-linecap="round"/>
<path d="M62.9433 248.337L65.5766 248.998" stroke="#42A0F0" stroke-linecap="round"/>
<path d="M62.9432 248.337L63.657 245.673" stroke="#42A0F0" stroke-linecap="round"/>
<path d="M57.8762 251.262L57.132 253.873" stroke="#42A0F0" stroke-linecap="round"/>
<path d="M57.8761 251.262L55.2124 250.548" stroke="#42A0F0" stroke-linecap="round"/>
<path d="M65.2229 252.499L55.7235 247.015" stroke="#42A0F0" stroke-linecap="round"/>
<path d="M62.9121 251.139L63.6563 253.75" stroke="#42A0F0" stroke-linecap="round"/>
<path d="M62.9122 251.139L65.5759 250.425" stroke="#42A0F0" stroke-linecap="round"/>
<path d="M57.845 248.214L55.2117 248.875" stroke="#42A0F0" stroke-linecap="round"/>
<path d="M57.8451 248.214L57.1313 245.55" stroke="#42A0F0" stroke-linecap="round"/>
</g>
<g filter="url(#filter4_f_6_865)">
<path d="M216.161 286.166V295.063" stroke="#42A0F0" stroke-linecap="round"/>
<path d="M215.944 288.167L217.383 287.447" stroke="#42A0F0" stroke-linecap="round"/>
<path d="M215.944 288.167L213.785 287.447" stroke="#42A0F0" stroke-linecap="round"/>
<path d="M215.944 293.205L217.383 293.925" stroke="#42A0F0" stroke-linecap="round"/>
<path d="M215.944 293.205L213.785 293.925" stroke="#42A0F0" stroke-linecap="round"/>
<path d="M219.992 288.427L212.287 292.875" stroke="#42A0F0" stroke-linecap="round"/>
<path d="M218.099 289.499L220.235 290.035" stroke="#42A0F0" stroke-linecap="round"/>
<path d="M218.099 289.499L218.678 287.338" stroke="#42A0F0" stroke-linecap="round"/>
<path d="M213.99 291.872L213.386 293.99" stroke="#42A0F0" stroke-linecap="round"/>
<path d="M213.99 291.872L211.829 291.293" stroke="#42A0F0" stroke-linecap="round"/>
<path d="M219.949 292.875L212.244 288.426" stroke="#42A0F0" stroke-linecap="round"/>
<path d="M218.074 291.773L218.678 293.891" stroke="#42A0F0" stroke-linecap="round"/>
<path d="M218.074 291.773L220.235 291.194" stroke="#42A0F0" stroke-linecap="round"/>
<path d="M213.965 289.4L211.829 289.936" stroke="#42A0F0" stroke-linecap="round"/>
<path d="M213.965 289.4L213.386 287.239" stroke="#42A0F0" stroke-linecap="round"/>
</g>
<g filter="url(#filter5_f_6_865)">
<path d="M299.194 263.003V339.795" stroke="#42A0F0" stroke-width="6" stroke-linecap="round"/>
<path d="M299.04 281.774L312.265 268.122" stroke="#42A0F0" stroke-width="6" stroke-linecap="round"/>
<path d="M299.04 281.774L285.388 268.122" stroke="#42A0F0" stroke-width="6" stroke-linecap="round"/>
<path d="M299.04 322.73L312.265 336.382" stroke="#42A0F0" stroke-width="6" stroke-linecap="round"/>
<path d="M299.04 322.73L285.388 336.382" stroke="#42A0F0" stroke-width="6" stroke-linecap="round"/>
<path d="M332.262 282.52L265.758 320.916" stroke="#42A0F0" stroke-width="6" stroke-linecap="round"/>
<path d="M315.929 291.771L334.364 296.398" stroke="#42A0F0" stroke-width="6" stroke-linecap="round"/>
<path d="M315.929 291.772L320.926 273.123" stroke="#42A0F0" stroke-width="6" stroke-linecap="round"/>
<path d="M280.46 312.249L275.249 330.528" stroke="#42A0F0" stroke-width="6" stroke-linecap="round"/>
<path d="M280.46 312.249L261.811 307.252" stroke="#42A0F0" stroke-width="6" stroke-linecap="round"/>
<path d="M331.894 320.916L265.39 282.52" stroke="#42A0F0" stroke-width="6" stroke-linecap="round"/>
<path d="M315.715 311.396L320.926 329.675" stroke="#42A0F0" stroke-width="6" stroke-linecap="round"/>
<path d="M315.715 311.396L334.364 306.399" stroke="#42A0F0" stroke-width="6" stroke-linecap="round"/>
<path d="M280.246 290.918L261.811 295.546" stroke="#42A0F0" stroke-width="6" stroke-linecap="round"/>
<path d="M280.246 290.919L275.249 272.27" stroke="#42A0F0" stroke-width="6" stroke-linecap="round"/>
<path d="M212.194 175.003V251.795" stroke="#42A0F0" stroke-width="6" stroke-linecap="round"/>
<path d="M212.04 193.774L225.265 180.122" stroke="#42A0F0" stroke-width="6" stroke-linecap="round"/>
<path d="M212.04 193.774L198.388 180.122" stroke="#42A0F0" stroke-width="6" stroke-linecap="round"/>
<path d="M212.04 234.73L225.265 248.382" stroke="#42A0F0" stroke-width="6" stroke-linecap="round"/>
<path d="M212.04 234.73L198.388 248.382" stroke="#42A0F0" stroke-width="6" stroke-linecap="round"/>
<path d="M245.262 194.52L178.758 232.916" stroke="#42A0F0" stroke-width="6" stroke-linecap="round"/>
<path d="M228.929 203.771L247.364 208.398" stroke="#42A0F0" stroke-width="6" stroke-linecap="round"/>
<path d="M228.929 203.772L233.926 185.123" stroke="#42A0F0" stroke-width="6" stroke-linecap="round"/>
<path d="M193.46 224.249L188.249 242.528" stroke="#42A0F0" stroke-width="6" stroke-linecap="round"/>
<path d="M193.46 224.249L174.811 219.252" stroke="#42A0F0" stroke-width="6" stroke-linecap="round"/>
<path d="M244.894 232.916L178.39 194.52" stroke="#42A0F0" stroke-width="6" stroke-linecap="round"/>
<path d="M228.715 223.396L233.926 241.675" stroke="#42A0F0" stroke-width="6" stroke-linecap="round"/>
<path d="M228.715 223.396L247.364 218.399" stroke="#42A0F0" stroke-width="6" stroke-linecap="round"/>
<path d="M193.246 202.918L174.811 207.546" stroke="#42A0F0" stroke-width="6" stroke-linecap="round"/>
<path d="M193.246 202.919L188.249 184.27" stroke="#42A0F0" stroke-width="6" stroke-linecap="round"/>
<path d="M143.194 263.003V339.795" stroke="#42A0F0" stroke-width="6" stroke-linecap="round"/>
<path d="M143.04 281.774L156.265 268.122" stroke="#42A0F0" stroke-width="6" stroke-linecap="round"/>
<path d="M143.04 281.774L129.388 268.122" stroke="#42A0F0" stroke-width="6" stroke-linecap="round"/>
<path d="M143.04 322.73L156.265 336.382" stroke="#42A0F0" stroke-width="6" stroke-linecap="round"/>
<path d="M143.04 322.73L129.388 336.382" stroke="#42A0F0" stroke-width="6" stroke-linecap="round"/>
<path d="M176.262 282.52L109.758 320.916" stroke="#42A0F0" stroke-width="6" stroke-linecap="round"/>
<path d="M159.929 291.771L178.364 296.398" stroke="#42A0F0" stroke-width="6" stroke-linecap="round"/>
<path d="M159.929 291.772L164.926 273.123" stroke="#42A0F0" stroke-width="6" stroke-linecap="round"/>
<path d="M124.46 312.249L119.249 330.528" stroke="#42A0F0" stroke-width="6" stroke-linecap="round"/>
<path d="M124.46 312.249L105.811 307.252" stroke="#42A0F0" stroke-width="6" stroke-linecap="round"/>
<path d="M175.894 320.916L109.39 282.52" stroke="#42A0F0" stroke-width="6" stroke-linecap="round"/>
<path d="M159.715 311.396L164.926 329.675" stroke="#42A0F0" stroke-width="6" stroke-linecap="round"/>
<path d="M159.715 311.396L178.364 306.399" stroke="#42A0F0" stroke-width="6" stroke-linecap="round"/>
<path d="M124.246 290.918L105.811 295.546" stroke="#42A0F0" stroke-width="6" stroke-linecap="round"/>
<path d="M124.246 290.919L119.249 272.27" stroke="#42A0F0" stroke-width="6" stroke-linecap="round"/>
</g>
<g filter="url(#filter6_f_6_865)">
<path d="M90.4871 178.295C75.2648 178.315 60.3896 173.748 47.8011 165.19C36.3708 157.443 27.2385 146.759 21.3639 134.263C15.4893 121.767 13.0894 107.919 14.4163 94.1742C15.7433 80.4297 20.7481 67.2965 28.9048 56.1548C37.0615 45.0131 48.0689 36.2743 60.7701 30.8568C70.1664 26.8588 80.2757 24.8075 90.4871 24.8268C93.468 24.8269 96.4463 24.9998 99.4071 25.3448C97.6809 29.1194 96.3602 33.0665 95.4671 37.1198C94.5492 41.3033 94.0869 45.5738 94.0881 49.8568C94.069 61.6099 97.578 73.0983 104.161 82.8348C108.405 89.1147 113.813 94.5229 120.093 98.7668C123.249 100.899 126.605 102.72 130.112 104.205C137.375 107.279 145.184 108.855 153.071 108.84C157.634 108.841 162.182 108.316 166.624 107.275C165.576 121.709 160.46 135.551 151.869 147.197C149.09 150.965 145.974 154.472 142.559 157.676C128.467 170.938 109.839 178.314 90.4871 178.295Z" fill="#713FFD"/>
</g>
<g filter="url(#filter7_f_6_865)">
<path d="M77.0538 91.0074C94.1916 75.5764 99.5265 53.5624 88.9695 41.8377C78.4126 30.1131 55.9615 33.1176 38.8237 48.5486C21.6859 63.9795 16.3511 85.9935 26.908 97.7182C37.465 109.443 59.916 106.438 77.0538 91.0074Z" fill="#A586FC"/>
</g>
<g filter="url(#filter8_f_6_865)">
<path d="M52.9861 5L55.5511 11.2L62.4861 13.5L55.5511 15.8L52.9861 22L50.4211 15.8L43.4861 13.5L50.4211 11.2L52.9861 5Z" fill="url(#paint0_linear_6_865)"/>
<path d="M167.486 152L169.646 157.11L175.486 159L169.646 160.89L167.486 166L165.326 160.89L159.486 159L165.326 157.11L167.486 152Z" fill="url(#paint1_linear_6_865)"/>
<path d="M133.489 24.6052L137.03 29.2472L143.344 29.6252L138.066 33.1112L137.322 38.902L133.781 34.2497L127.467 33.8716L132.745 30.3856L133.489 24.6052Z" fill="url(#paint2_linear_6_865)"/>
<path d="M7.1838 140.601L11.0048 144.196L16.9482 143.602L12.3921 147.464L12.3231 152.707L8.51299 149.109L2.56965 149.704L7.1265 145.843L7.1838 140.601Z" fill="url(#paint3_linear_6_865)"/>
<path d="M130.152 76.0383L125.952 76.8895L123.468 81.2421L123.142 76.2408L119.741 73.6349L123.943 72.7863L126.427 68.4335L126.75 73.4344L130.152 76.0383Z" fill="url(#paint4_linear_6_865)"/>
</g>
<g filter="url(#filter9_d_6_865)">
<g filter="url(#filter10_d_6_865)">
<path d="M252.78 233.765C250.847 233.92 248.894 233.999 246.923 234H109.399C99.9327 234.035 90.5526 232.201 81.7968 228.603C73.041 225.005 65.0817 219.714 58.3755 213.032C51.6693 206.351 46.3483 198.412 42.7175 189.669C39.0868 180.927 37.2178 171.554 37.2178 162.087C37.2178 152.621 39.0868 143.248 42.7175 134.506C46.3483 125.763 51.6693 117.824 58.3755 111.143C65.0817 104.461 73.041 99.17 81.7968 95.5718C90.5526 91.9737 99.9327 90.1397 109.399 90.175H160.675C177.299 53.6 215.586 28 260.159 28C319.986 28 368.486 74.115 368.486 131C368.486 187.885 319.986 234 260.159 234C257.679 234 255.219 233.922 252.78 233.765Z" fill="url(#paint5_linear_6_865)"/>
<path d="M260.159 233C267.445 233 274.726 232.302 281.799 230.926C288.693 229.585 295.473 227.584 301.951 224.978C308.312 222.42 314.447 219.254 320.185 215.568C325.868 211.917 331.212 207.725 336.069 203.107C340.924 198.49 345.332 193.411 349.17 188.009C353.044 182.557 356.372 176.728 359.06 170.686C361.797 164.532 363.899 158.093 365.308 151.547C366.753 144.831 367.486 137.917 367.486 131C367.486 124.082 366.753 117.169 365.308 110.452C363.899 103.906 361.797 97.4673 359.06 91.3142C356.372 85.2716 353.044 79.4433 349.17 73.991C345.332 68.5893 340.924 63.5095 336.069 58.8928C331.212 54.2752 325.868 50.0829 320.185 46.4323C314.447 42.7461 308.312 39.5801 301.951 37.0221C295.473 34.4165 288.693 32.4154 281.799 31.0742C274.726 29.6979 267.445 29 260.159 29C238.788 29 218.149 34.9523 200.472 46.2135C191.952 51.6418 184.295 58.1939 177.715 65.6878C171.094 73.2291 165.667 81.6069 161.585 90.5885L161.318 91.1747H160.674H109.399C99.8252 91.1747 90.5385 93.0495 81.7967 96.747C77.5951 98.5242 73.5425 100.724 69.7516 103.285C65.9964 105.822 62.4652 108.735 59.256 111.945C56.0468 115.154 53.1333 118.685 50.5963 122.44C48.0352 126.231 45.8355 130.284 44.0584 134.485C40.3609 143.227 38.4861 152.514 38.4861 162.087C38.4861 171.661 40.3609 180.948 44.0584 189.689C45.8355 193.891 48.0352 197.944 50.5963 201.735C53.1333 205.49 56.0468 209.021 59.256 212.23C62.4652 215.439 65.9964 218.353 69.7516 220.89C73.5425 223.451 77.5951 225.651 81.7967 227.428C90.5385 231.125 99.8252 233 109.399 233H246.923C248.846 233 250.79 232.922 252.7 232.768L252.772 232.762L252.844 232.767C255.264 232.922 257.725 233 260.159 233ZM260.159 234C257.679 234 255.218 233.921 252.78 233.765C250.85 233.92 248.894 234 246.923 234H109.399C69.6827 234 37.4861 201.803 37.4861 162.087C37.4861 122.371 69.6827 90.1747 109.399 90.1747H160.674C177.299 53.5954 215.584 28 260.159 28C319.986 28 368.486 74.1151 368.486 131C368.486 187.885 319.986 234 260.159 234Z" fill="white" fill-opacity="0.5"/>
</g>
</g>
<defs>
<filter id="filter0_f_6_865" x="149.274" y="145.795" width="13.3608" height="13.8481" filterUnits="userSpaceOnUse" color-interpolation-filters="sRGB">
<feFlood flood-opacity="0" result="BackgroundImageFix"/>
<feBlend mode="normal" in="SourceGraphic" in2="BackgroundImageFix" result="shape"/>
<feGaussianBlur stdDeviation="1" result="effect1_foregroundBlur_6_865"/>
</filter>
<filter id="filter1_f_6_865" x="268.27" y="165.385" width="19.3301" height="20.168" filterUnits="userSpaceOnUse" color-interpolation-filters="sRGB">
<feFlood flood-opacity="0" result="BackgroundImageFix"/>
<feBlend mode="normal" in="SourceGraphic" in2="BackgroundImageFix" result="shape"/>
<feGaussianBlur stdDeviation="1" result="effect1_foregroundBlur_6_865"/>
</filter>
<filter id="filter2_f_6_865" x="358.247" y="188.939" width="16.7661" height="17.4531" filterUnits="userSpaceOnUse" color-interpolation-filters="sRGB">
<feFlood flood-opacity="0" result="BackgroundImageFix"/>
<feBlend mode="normal" in="SourceGraphic" in2="BackgroundImageFix" result="shape"/>
<feGaussianBlur stdDeviation="1" result="effect1_foregroundBlur_6_865"/>
</filter>
<filter id="filter3_f_6_865" x="52.7117" y="241.727" width="15.365" height="15.9692" filterUnits="userSpaceOnUse" color-interpolation-filters="sRGB">
<feFlood flood-opacity="0" result="BackgroundImageFix"/>
<feBlend mode="normal" in="SourceGraphic" in2="BackgroundImageFix" result="shape"/>
<feGaussianBlur stdDeviation="1" result="effect1_foregroundBlur_6_865"/>
</filter>
<filter id="filter4_f_6_865" x="209.329" y="283.666" width="13.4067" height="13.897" filterUnits="userSpaceOnUse" color-interpolation-filters="sRGB">
<feFlood flood-opacity="0" result="BackgroundImageFix"/>
<feBlend mode="normal" in="SourceGraphic" in2="BackgroundImageFix" result="shape"/>
<feGaussianBlur stdDeviation="1" result="effect1_foregroundBlur_6_865"/>
</filter>
<filter id="filter5_f_6_865" x="98.8098" y="168.003" width="242.555" height="178.792" filterUnits="userSpaceOnUse" color-interpolation-filters="sRGB">
<feFlood flood-opacity="0" result="BackgroundImageFix"/>
<feBlend mode="normal" in="SourceGraphic" in2="BackgroundImageFix" result="shape"/>
<feGaussianBlur stdDeviation="2" result="effect1_foregroundBlur_6_865"/>
</filter>
<filter id="filter6_f_6_865" x="10.0605" y="20.8267" width="160.563" height="161.468" filterUnits="userSpaceOnUse" color-interpolation-filters="sRGB">
<feFlood flood-opacity="0" result="BackgroundImageFix"/>
<feBlend mode="normal" in="SourceGraphic" in2="BackgroundImageFix" result="shape"/>
<feGaussianBlur stdDeviation="2" result="effect1_foregroundBlur_6_865"/>
</filter>
<filter id="filter7_f_6_865" x="1.48804" y="14.6855" width="112.902" height="110.185" filterUnits="userSpaceOnUse" color-interpolation-filters="sRGB">
<feFlood flood-opacity="0" result="BackgroundImageFix"/>
<feBlend mode="normal" in="SourceGraphic" in2="BackgroundImageFix" result="shape"/>
<feGaussianBlur stdDeviation="10" result="effect1_foregroundBlur_6_865"/>
</filter>
<filter id="filter8_f_6_865" x="0.56958" y="3" width="176.917" height="165" filterUnits="userSpaceOnUse" color-interpolation-filters="sRGB">
<feFlood flood-opacity="0" result="BackgroundImageFix"/>
<feBlend mode="normal" in="SourceGraphic" in2="BackgroundImageFix" result="shape"/>
<feGaussianBlur stdDeviation="1" result="effect1_foregroundBlur_6_865"/>
</filter>
<filter id="filter9_d_6_865" x="17.2178" y="0" width="391.269" height="266" filterUnits="userSpaceOnUse" color-interpolation-filters="sRGB">
<feFlood flood-opacity="0" result="BackgroundImageFix"/>
<feColorMatrix in="SourceAlpha" type="matrix" values="0 0 0 0 0 0 0 0 0 0 0 0 0 0 0 0 0 0 127 0" result="hardAlpha"/>
<feOffset dx="10" dy="2"/>
<feGaussianBlur stdDeviation="15"/>
<feColorMatrix type="matrix" values="0 0 0 0 0 0 0 0 0 0 0 0 0 0 0 0 0 0 0.25 0"/>
<feBlend mode="normal" in2="BackgroundImageFix" result="effect1_dropShadow_6_865"/>
<feBlend mode="normal" in="SourceGraphic" in2="effect1_dropShadow_6_865" result="shape"/>
</filter>
<filter id="filter10_d_6_865" x="17.2178" y="0" width="391.269" height="266" filterUnits="userSpaceOnUse" color-interpolation-filters="sRGB">
<feFlood flood-opacity="0" result="BackgroundImageFix"/>
<feColorMatrix in="SourceAlpha" type="matrix" values="0 0 0 0 0 0 0 0 0 0 0 0 0 0 0 0 0 0 127 0" result="hardAlpha"/>
<feOffset dx="10" dy="2"/>
<feGaussianBlur stdDeviation="15"/>
<feColorMatrix type="matrix" values="0 0 0 0 0.501961 0 0 0 0 0.501961 0 0 0 0 0.501961 0 0 0 0.302 0"/>
<feBlend mode="normal" in2="BackgroundImageFix" result="effect1_dropShadow_6_865"/>
<feBlend mode="normal" in="SourceGraphic" in2="effect1_dropShadow_6_865" result="shape"/>
</filter>
<linearGradient id="paint0_linear_6_865" x1="52.9861" y1="5" x2="52.9861" y2="22" gradientUnits="userSpaceOnUse">
<stop stop-color="#6B38FC"/>
<stop offset="1" stop-color="#9F7EFD"/>
</linearGradient>
<linearGradient id="paint1_linear_6_865" x1="167.486" y1="152" x2="167.486" y2="166" gradientUnits="userSpaceOnUse">
<stop stop-color="#6B38FC"/>
<stop offset="1" stop-color="#9F7EFD"/>
</linearGradient>
<linearGradient id="paint2_linear_6_865" x1="133.49" y1="24.6048" x2="137.323" y2="38.9016" gradientUnits="userSpaceOnUse">
<stop stop-color="#6B38FC"/>
<stop offset="1" stop-color="#9F7EFD"/>
</linearGradient>
<linearGradient id="paint3_linear_6_865" x1="7.18887" y1="140.599" x2="12.3282" y2="152.705" gradientUnits="userSpaceOnUse">
<stop stop-color="#6B38FC"/>
<stop offset="1" stop-color="#9F7EFD"/>
</linearGradient>
<linearGradient id="paint4_linear_6_865" x1="130.151" y1="76.0393" x2="119.741" y2="73.6359" gradientUnits="userSpaceOnUse">
<stop stop-color="#6B38FC"/>
<stop offset="1" stop-color="#9F7EFD"/>
</linearGradient>
<linearGradient id="paint5_linear_6_865" x1="171.381" y1="53.9561" x2="237.424" y2="245.168" gradientUnits="userSpaceOnUse">
<stop stop-color="white" stop-opacity="0.596"/>
<stop offset="1" stop-color="#F7F7F7" stop-opacity="0.204"/>
</linearGradient>
</defs>
</svg>
