<svg width="392" height="334" viewBox="0 0 392 334" fill="none" xmlns="http://www.w3.org/2000/svg">
<g filter="url(#filter0_f_6_1160)">
<path d="M124.253 202.834C124.782 203.317 113.713 227.125 107.281 234.525C100.849 241.924 92.9399 245.574 89.6132 242.683C86.2864 239.791 88.8002 231.451 95.2328 224.051C101.665 216.651 123.725 202.351 124.253 202.834Z" fill="#42A0F0"/>
<path d="M96.3776 229.022C97.0238 230.056 99.2608 229.824 101.374 228.504C103.487 227.183 104.677 225.274 104.03 224.24C103.384 223.206 101.147 223.438 99.034 224.759C96.9207 226.079 95.7314 227.988 96.3776 229.022Z" fill="white"/>
<path d="M192.253 202.834C192.782 203.317 181.713 227.125 175.281 234.525C168.849 241.924 160.94 245.574 157.613 242.683C154.286 239.791 156.8 231.451 163.233 224.051C169.665 216.651 191.725 202.351 192.253 202.834Z" fill="#42A0F0"/>
<path d="M164.378 229.022C165.024 230.056 167.261 229.824 169.374 228.504C171.487 227.183 172.677 225.274 172.03 224.24C171.384 223.206 169.147 223.438 167.034 224.759C164.921 226.079 163.731 227.988 164.378 229.022Z" fill="white"/>
<path d="M260.253 202.834C260.782 203.317 249.713 227.125 243.281 234.525C236.849 241.924 228.94 245.574 225.613 242.683C222.286 239.791 224.8 231.451 231.233 224.051C237.665 216.651 259.725 202.351 260.253 202.834Z" fill="#42A0F0"/>
<path d="M232.378 229.022C233.024 230.056 235.261 229.824 237.374 228.504C239.487 227.183 240.677 225.274 240.03 224.24C239.384 223.206 237.147 223.438 235.034 224.759C232.921 226.079 231.731 227.988 232.378 229.022Z" fill="white"/>
<path d="M200.253 252.834C200.782 253.317 189.713 277.125 183.281 284.525C176.849 291.924 168.94 295.574 165.613 292.683C162.286 289.791 164.8 281.451 171.233 274.051C177.665 266.651 199.725 252.351 200.253 252.834Z" fill="#42A0F0"/>
<path d="M172.378 279.022C173.024 280.056 175.261 279.824 177.374 278.504C179.487 277.183 180.677 275.274 180.03 274.24C179.384 273.206 177.147 273.438 175.034 274.759C172.921 276.079 171.731 277.988 172.378 279.022Z" fill="white"/>
<path d="M283.253 252.834C283.782 253.317 272.713 277.125 266.281 284.525C259.849 291.924 251.94 295.574 248.613 292.683C245.286 289.791 247.8 281.451 254.233 274.051C260.665 266.651 282.725 252.351 283.253 252.834Z" fill="#42A0F0"/>
<path d="M255.378 279.022C256.024 280.056 258.261 279.824 260.374 278.504C262.487 277.183 263.677 275.274 263.03 274.24C262.384 273.206 260.147 273.438 258.034 274.759C255.921 276.079 254.731 277.988 255.378 279.022Z" fill="white"/>
<path d="M223.253 288.834C223.782 289.317 212.713 313.125 206.281 320.525C199.849 327.924 191.94 331.574 188.613 328.683C185.286 325.791 187.8 317.451 194.233 310.051C200.665 302.651 222.725 288.351 223.253 288.834Z" fill="#42A0F0"/>
<path d="M195.378 315.022C196.024 316.056 198.261 315.824 200.374 314.504C202.487 313.183 203.677 311.274 203.03 310.24C202.384 309.206 200.147 309.438 198.034 310.759C195.921 312.079 194.731 313.988 195.378 315.022Z" fill="white"/>
<path d="M147.253 288.834C147.782 289.317 136.713 313.125 130.281 320.525C123.849 327.924 115.94 331.574 112.613 328.683C109.286 325.791 111.8 317.451 118.233 310.051C124.665 302.651 146.725 288.351 147.253 288.834Z" fill="#42A0F0"/>
<path d="M119.378 315.022C120.024 316.056 122.261 315.824 124.374 314.504C126.487 313.183 127.677 311.274 127.03 310.24C126.384 309.206 124.147 309.438 122.034 310.759C119.921 312.079 118.731 313.988 119.378 315.022Z" fill="white"/>
<path d="M124.253 252.834C124.782 253.317 113.713 277.125 107.281 284.525C100.849 291.924 92.9399 295.574 89.6132 292.683C86.2864 289.791 88.8002 281.451 95.2328 274.051C101.665 266.651 123.725 252.351 124.253 252.834Z" fill="#42A0F0"/>
<path d="M96.3776 279.022C97.0238 280.056 99.2608 279.824 101.374 278.504C103.487 277.183 104.677 275.274 104.03 274.24C103.384 273.206 101.147 273.438 99.034 274.759C96.9207 276.079 95.7314 277.988 96.3776 279.022Z" fill="white"/>
</g>
<g filter="url(#filter1_f_6_1160)">
<path d="M101.487 178.295C86.2648 178.315 71.3896 173.748 58.8011 165.19C47.3708 157.443 38.2385 146.759 32.3639 134.263C26.4893 121.767 24.0894 107.919 25.4163 94.1742C26.7433 80.4297 31.7481 67.2965 39.9048 56.1548C48.0615 45.0131 59.0689 36.2743 71.7701 30.8568C81.1664 26.8588 91.2757 24.8075 101.487 24.8268C104.468 24.8269 107.446 24.9998 110.407 25.3448C108.681 29.1194 107.36 33.0665 106.467 37.1198C105.549 41.3033 105.087 45.5738 105.088 49.8568C105.069 61.6099 108.578 73.0983 115.161 82.8348C119.405 89.1147 124.813 94.5229 131.093 98.7668C134.249 100.899 137.605 102.72 141.112 104.205C148.375 107.279 156.184 108.855 164.071 108.84C168.634 108.841 173.182 108.316 177.624 107.275C176.576 121.709 171.46 135.551 162.869 147.197C160.09 150.965 156.974 154.472 153.559 157.676C139.467 170.938 120.839 178.314 101.487 178.295Z" fill="#713FFD"/>
</g>
<g filter="url(#filter2_f_6_1160)">
<path d="M88.0538 91.0074C105.192 75.5764 110.526 53.5624 99.9695 41.8377C89.4126 30.1131 66.9615 33.1176 49.8237 48.5486C32.6859 63.9795 27.3511 85.9935 37.908 97.7182C48.465 109.443 70.916 106.438 88.0538 91.0074Z" fill="#A586FC"/>
</g>
<g filter="url(#filter3_f_6_1160)">
<path d="M63.9858 5L66.5508 11.2L73.4858 13.5L66.5508 15.8L63.9858 22L61.4208 15.8L54.4858 13.5L61.4208 11.2L63.9858 5Z" fill="url(#paint0_linear_6_1160)"/>
<path d="M178.486 152L180.646 157.11L186.486 159L180.646 160.89L178.486 166L176.326 160.89L170.486 159L176.326 157.11L178.486 152Z" fill="url(#paint1_linear_6_1160)"/>
<path d="M144.489 24.6052L148.03 29.2472L154.344 29.6252L149.066 33.1112L148.322 38.902L144.781 34.2497L138.467 33.8716L143.745 30.3856L144.489 24.6052Z" fill="url(#paint2_linear_6_1160)"/>
<path d="M18.1838 140.601L22.0048 144.196L27.9482 143.602L23.3921 147.464L23.3231 152.707L19.513 149.109L13.5697 149.704L18.1265 145.843L18.1838 140.601Z" fill="url(#paint3_linear_6_1160)"/>
<path d="M141.152 76.0383L136.952 76.8895L134.468 81.2421L134.142 76.2408L130.741 73.6349L134.943 72.7863L137.427 68.4335L137.75 73.4344L141.152 76.0383Z" fill="url(#paint4_linear_6_1160)"/>
</g>
<g filter="url(#filter4_df_6_1160)">
<g filter="url(#filter5_d_6_1160)">
<path d="M235.78 233.765C233.847 233.92 231.894 233.999 229.923 234H92.3989C82.9327 234.035 73.5526 232.201 64.7968 228.603C56.041 225.005 48.0817 219.714 41.3755 213.032C34.6693 206.351 29.3483 198.412 25.7175 189.669C22.0868 180.927 20.2178 171.554 20.2178 162.087C20.2178 152.621 22.0868 143.248 25.7175 134.506C29.3483 125.763 34.6693 117.824 41.3755 111.143C48.0817 104.461 56.041 99.17 64.7968 95.5718C73.5526 91.9737 82.9327 90.1397 92.3989 90.175H143.675C160.299 53.6 198.586 28 243.159 28C302.986 28 351.486 74.115 351.486 131C351.486 187.885 302.986 234 243.159 234C240.679 234 238.219 233.922 235.78 233.765Z" fill="url(#paint5_linear_6_1160)"/>
<path d="M243.158 233C250.444 233 257.725 232.302 264.799 230.926C271.692 229.585 278.472 227.584 284.951 224.978C291.312 222.42 297.447 219.254 303.185 215.568C308.868 211.917 314.212 207.725 319.068 203.107C323.924 198.49 328.332 193.411 332.17 188.009C336.044 182.557 339.371 176.728 342.059 170.686C344.797 164.532 346.899 158.093 348.308 151.547C349.753 144.831 350.486 137.917 350.486 131C350.486 124.082 349.753 117.169 348.308 110.452C346.899 103.906 344.797 97.4673 342.059 91.3142C339.371 85.2716 336.044 79.4433 332.17 73.991C328.332 68.5893 323.924 63.5095 319.069 58.8928C314.212 54.2752 308.868 50.0829 303.185 46.4323C297.447 42.7461 291.312 39.5801 284.951 37.0221C278.472 34.4165 271.692 32.4154 264.799 31.0742C257.725 29.6979 250.444 29 243.158 29C221.788 29 201.148 34.9523 183.472 46.2135C174.952 51.6418 167.295 58.1939 160.715 65.6878C154.094 73.2291 148.667 81.6069 144.585 90.5885L144.318 91.1747H143.674H92.3985C82.825 91.1747 73.5383 93.0495 64.7965 96.747C60.5948 98.5242 56.5423 100.724 52.7513 103.285C48.9962 105.822 45.465 108.735 42.2558 111.945C39.0465 115.154 36.133 118.685 33.596 122.44C31.035 126.231 28.8353 130.284 27.0581 134.485C23.3606 143.227 21.4858 152.514 21.4858 162.087C21.4858 171.661 23.3606 180.948 27.0581 189.689C28.8353 193.891 31.035 197.944 33.596 201.735C36.133 205.49 39.0465 209.021 42.2558 212.23C45.465 215.439 48.9962 218.353 52.7513 220.89C56.5423 223.451 60.5948 225.651 64.7965 227.428C73.5383 231.125 82.825 233 92.3985 233H229.923C231.846 233 233.79 232.922 235.7 232.768L235.772 232.762L235.844 232.767C238.263 232.922 240.724 233 243.158 233ZM243.158 234C240.679 234 238.218 233.921 235.78 233.765C233.85 233.92 231.894 234 229.923 234H92.3985C52.6824 234 20.4858 201.803 20.4858 162.087C20.4858 122.371 52.6824 90.1747 92.3985 90.1747H143.674C160.299 53.5954 198.584 28 243.158 28C302.986 28 351.486 74.1151 351.486 131C351.486 187.885 302.986 234 243.158 234Z" fill="white" fill-opacity="0.5"/>
</g>
</g>
<defs>
<filter id="filter0_f_6_1160" x="84.144" y="198.822" width="203.127" height="134.852" filterUnits="userSpaceOnUse" color-interpolation-filters="sRGB">
<feFlood flood-opacity="0" result="BackgroundImageFix"/>
<feBlend mode="normal" in="SourceGraphic" in2="BackgroundImageFix" result="shape"/>
<feGaussianBlur stdDeviation="2" result="effect1_foregroundBlur_6_1160"/>
</filter>
<filter id="filter1_f_6_1160" x="21.0605" y="20.8267" width="160.563" height="161.468" filterUnits="userSpaceOnUse" color-interpolation-filters="sRGB">
<feFlood flood-opacity="0" result="BackgroundImageFix"/>
<feBlend mode="normal" in="SourceGraphic" in2="BackgroundImageFix" result="shape"/>
<feGaussianBlur stdDeviation="2" result="effect1_foregroundBlur_6_1160"/>
</filter>
<filter id="filter2_f_6_1160" x="12.4878" y="14.6855" width="112.902" height="110.185" filterUnits="userSpaceOnUse" color-interpolation-filters="sRGB">
<feFlood flood-opacity="0" result="BackgroundImageFix"/>
<feBlend mode="normal" in="SourceGraphic" in2="BackgroundImageFix" result="shape"/>
<feGaussianBlur stdDeviation="10" result="effect1_foregroundBlur_6_1160"/>
</filter>
<filter id="filter3_f_6_1160" x="11.5698" y="3" width="176.916" height="165" filterUnits="userSpaceOnUse" color-interpolation-filters="sRGB">
<feFlood flood-opacity="0" result="BackgroundImageFix"/>
<feBlend mode="normal" in="SourceGraphic" in2="BackgroundImageFix" result="shape"/>
<feGaussianBlur stdDeviation="1" result="effect1_foregroundBlur_6_1160"/>
</filter>
<filter id="filter4_df_6_1160" x="0.217773" y="0" width="391.268" height="266" filterUnits="userSpaceOnUse" color-interpolation-filters="sRGB">
<feFlood flood-opacity="0" result="BackgroundImageFix"/>
<feColorMatrix in="SourceAlpha" type="matrix" values="0 0 0 0 0 0 0 0 0 0 0 0 0 0 0 0 0 0 127 0" result="hardAlpha"/>
<feOffset dx="10" dy="2"/>
<feGaussianBlur stdDeviation="15"/>
<feColorMatrix type="matrix" values="0 0 0 0 0 0 0 0 0 0 0 0 0 0 0 0 0 0 0.25 0"/>
<feBlend mode="normal" in2="BackgroundImageFix" result="effect1_dropShadow_6_1160"/>
<feBlend mode="normal" in="SourceGraphic" in2="effect1_dropShadow_6_1160" result="shape"/>
<feGaussianBlur stdDeviation="2" result="effect2_foregroundBlur_6_1160"/>
</filter>
<filter id="filter5_d_6_1160" x="0.217773" y="0" width="391.268" height="266" filterUnits="userSpaceOnUse" color-interpolation-filters="sRGB">
<feFlood flood-opacity="0" result="BackgroundImageFix"/>
<feColorMatrix in="SourceAlpha" type="matrix" values="0 0 0 0 0 0 0 0 0 0 0 0 0 0 0 0 0 0 127 0" result="hardAlpha"/>
<feOffset dx="10" dy="2"/>
<feGaussianBlur stdDeviation="15"/>
<feColorMatrix type="matrix" values="0 0 0 0 0.501961 0 0 0 0 0.501961 0 0 0 0 0.501961 0 0 0 0.302 0"/>
<feBlend mode="normal" in2="BackgroundImageFix" result="effect1_dropShadow_6_1160"/>
<feBlend mode="normal" in="SourceGraphic" in2="effect1_dropShadow_6_1160" result="shape"/>
</filter>
<linearGradient id="paint0_linear_6_1160" x1="63.9858" y1="5" x2="63.9858" y2="22" gradientUnits="userSpaceOnUse">
<stop stop-color="#6B38FC"/>
<stop offset="1" stop-color="#9F7EFD"/>
</linearGradient>
<linearGradient id="paint1_linear_6_1160" x1="178.486" y1="152" x2="178.486" y2="166" gradientUnits="userSpaceOnUse">
<stop stop-color="#6B38FC"/>
<stop offset="1" stop-color="#9F7EFD"/>
</linearGradient>
<linearGradient id="paint2_linear_6_1160" x1="144.49" y1="24.6048" x2="148.324" y2="38.9016" gradientUnits="userSpaceOnUse">
<stop stop-color="#6B38FC"/>
<stop offset="1" stop-color="#9F7EFD"/>
</linearGradient>
<linearGradient id="paint3_linear_6_1160" x1="18.1889" y1="140.599" x2="23.3282" y2="152.705" gradientUnits="userSpaceOnUse">
<stop stop-color="#6B38FC"/>
<stop offset="1" stop-color="#9F7EFD"/>
</linearGradient>
<linearGradient id="paint4_linear_6_1160" x1="141.151" y1="76.0393" x2="130.741" y2="73.6359" gradientUnits="userSpaceOnUse">
<stop stop-color="#6B38FC"/>
<stop offset="1" stop-color="#9F7EFD"/>
</linearGradient>
<linearGradient id="paint5_linear_6_1160" x1="154.381" y1="53.9561" x2="220.424" y2="245.168" gradientUnits="userSpaceOnUse">
<stop stop-color="white" stop-opacity="0.596"/>
<stop offset="1" stop-color="#F7F7F7" stop-opacity="0.204"/>
</linearGradient>
</defs>
</svg>
