<svg width="403" height="338" viewBox="0 0 403 338" fill="none" xmlns="http://www.w3.org/2000/svg">
<g filter="url(#filter0_f_6_677)">
<path d="M173.748 216.415H220.275L193.528 255.693L224.802 256.285L159.16 333.977L175.06 274.743H145.948L173.748 216.415Z" fill="url(#paint0_linear_6_677)"/>
<path d="M277.945 195.415H309.452L291.339 222.015L312.517 222.415L268.066 275.026L278.837 234.915H259.119L277.945 195.415Z" fill="url(#paint1_linear_6_677)"/>
</g>
<g filter="url(#filter1_f_6_677)">
<path d="M90.756 180.809C75.4884 180.829 60.5689 176.249 47.9429 167.665C36.4789 159.895 27.3196 149.18 21.4276 136.647C15.5356 124.113 13.1285 110.224 14.4593 96.439C15.7902 82.6539 20.8097 69.4818 28.9905 58.307C37.1713 47.1323 48.2112 38.3675 60.9499 32.9339C70.3743 28.9239 80.5139 26.8665 90.756 26.8859C93.7455 26.8862 96.7325 27.0598 99.702 27.4059C97.9705 31.1916 96.6458 35.1505 95.75 39.2159C94.8301 43.4102 94.3667 47.6918 94.368 51.9859C94.3479 63.7736 97.8663 75.2961 104.468 85.0619C108.724 91.3603 114.149 96.7845 120.447 101.041C123.613 103.179 126.978 105.006 130.496 106.495C137.781 109.578 145.613 111.159 153.523 111.144C158.099 111.146 162.66 110.619 167.116 109.575C166.065 124.052 160.933 137.935 152.316 149.615C149.529 153.394 146.403 156.912 142.979 160.125C128.846 173.427 110.164 180.826 90.756 180.809Z" fill="#713FFD"/>
</g>
<g filter="url(#filter2_f_6_677)">
<path d="M77.2828 93.2632C94.4715 77.7864 99.8221 55.7069 89.2338 43.9474C78.6454 32.1878 56.1277 35.2012 38.9389 50.678C21.7502 66.1548 16.3996 88.2342 26.988 99.9938C37.5763 111.753 60.0941 108.74 77.2828 93.2632Z" fill="#A586FC"/>
</g>
<g filter="url(#filter3_f_6_677)">
<path d="M53.544 7L56.102 13.315L63.019 15.651L56.102 17.987L53.544 24.3L50.986 17.987L44.069 15.651L50.986 13.315L53.544 7Z" fill="url(#paint2_linear_6_677)"/>
<path d="M168.071 154.484L170.185 159.597L175.899 161.484L170.185 163.378L168.071 168.491L165.958 163.378L160.244 161.484L165.958 159.597L168.071 154.484Z" fill="url(#paint3_linear_6_677)"/>
<path d="M133.885 26.664L137.436 31.3166L143.765 31.6907L138.472 35.1806L137.726 40.9907L134.176 36.3378L127.847 35.9607L133.139 32.4709L133.885 26.664Z" fill="url(#paint4_linear_6_677)"/>
<path d="M7.20867 143.002L11.0372 146.607L16.9957 146.012L12.4287 149.885L12.3632 155.143L8.53566 151.538L2.57708 152.132L7.1437 148.259L7.20867 143.002Z" fill="url(#paint5_linear_6_677)"/>
<path d="M130.538 78.2492L126.328 79.104L123.837 83.4674L123.512 78.4539L120.103 75.84L124.313 74.9861L126.802 70.6223L127.129 75.6363L130.538 78.2492Z" fill="url(#paint6_linear_6_677)"/>
</g>
<g filter="url(#filter4_df_6_677)">
<g filter="url(#filter5_d_6_677)">
<path d="M247.193 234.624C245.26 234.779 243.307 234.858 241.336 234.859H103.812C94.3458 234.894 84.9657 233.06 76.2099 229.462C67.454 225.864 59.4948 220.572 52.7886 213.891C46.0824 207.21 40.7613 199.271 37.1306 190.528C33.4998 181.786 31.6309 172.413 31.6309 162.946C31.6309 153.48 33.4998 144.107 37.1306 135.365C40.7613 126.622 46.0824 118.683 52.7886 112.001C59.4948 105.32 67.454 100.029 76.2099 96.4307C84.9657 92.8326 94.3458 90.9986 103.812 91.0339H155.088C171.712 54.4589 209.999 28.8589 254.572 28.8589C314.399 28.8589 362.899 74.9739 362.899 131.859C362.899 188.744 314.399 234.859 254.572 234.859C252.092 234.859 249.632 234.781 247.193 234.624Z" fill="url(#paint7_linear_6_677)"/>
<path d="M254.572 233.859C261.858 233.859 269.139 233.161 276.212 231.785C283.105 230.444 289.886 228.442 296.364 225.837C302.725 223.279 308.86 220.113 314.598 216.427C320.281 212.776 325.625 208.584 330.482 203.966C335.337 199.349 339.745 194.269 343.583 188.868C347.457 183.415 350.785 177.587 353.473 171.544C356.21 165.391 358.312 158.952 359.721 152.406C361.166 145.69 361.899 138.776 361.899 131.858C361.899 124.941 361.166 118.028 359.721 111.311C358.312 104.765 356.21 98.3262 353.473 92.1731C350.785 86.1305 347.457 80.3022 343.583 74.8499C339.745 69.4482 335.337 64.3684 330.482 59.7517C325.625 55.1341 320.281 50.9418 314.598 47.2911C308.86 43.605 302.725 40.439 296.364 37.881C289.886 35.2754 283.105 33.2743 276.212 31.9331C269.139 30.5568 261.858 29.8589 254.572 29.8589C233.201 29.8589 212.562 35.8112 194.885 47.0724C186.365 52.5006 178.708 59.0528 172.128 66.5467C165.507 74.088 160.08 82.4658 155.998 91.4473L155.731 92.0336H155.087H103.812C94.2382 92.0336 84.9515 93.9084 76.2097 97.6059C72.008 99.383 67.9555 101.583 64.1645 104.144C60.4094 106.681 56.8782 109.594 53.669 112.804C50.4598 116.013 47.5462 119.544 45.0093 123.299C42.4482 127.09 40.2485 131.143 38.4713 135.344C34.7738 144.086 32.899 153.373 32.899 162.946C32.899 172.52 34.7738 181.806 38.4713 190.548C40.2485 194.75 42.4482 198.803 45.0093 202.593C47.5462 206.349 50.4598 209.88 53.669 213.089C56.8782 216.298 60.4094 219.212 64.1645 221.749C67.9555 224.31 72.008 226.51 76.2097 228.287C84.9515 231.984 94.2382 233.859 103.812 233.859H241.336C243.259 233.859 245.203 233.781 247.113 233.627L247.185 233.621L247.257 233.626C249.677 233.781 252.138 233.859 254.572 233.859ZM254.572 234.859C252.092 234.859 249.631 234.78 247.193 234.624C245.263 234.779 243.307 234.859 241.336 234.859H103.812C64.0956 234.859 31.899 202.662 31.899 162.946C31.899 123.23 64.0956 91.0336 103.812 91.0336H155.087C171.712 54.4543 209.997 28.8589 254.572 28.8589C314.399 28.8589 362.899 74.974 362.899 131.858C362.899 188.744 314.399 234.859 254.572 234.859Z" fill="white" fill-opacity="0.5"/>
</g>
</g>
<defs>
<filter id="filter0_f_6_677" x="141.948" y="191.415" width="174.569" height="146.562" filterUnits="userSpaceOnUse" color-interpolation-filters="sRGB">
<feFlood flood-opacity="0" result="BackgroundImageFix"/>
<feBlend mode="normal" in="SourceGraphic" in2="BackgroundImageFix" result="shape"/>
<feGaussianBlur stdDeviation="2" result="effect1_foregroundBlur_6_677"/>
</filter>
<filter id="filter1_f_6_677" x="10.1025" y="22.8857" width="161.013" height="161.923" filterUnits="userSpaceOnUse" color-interpolation-filters="sRGB">
<feFlood flood-opacity="0" result="BackgroundImageFix"/>
<feBlend mode="normal" in="SourceGraphic" in2="BackgroundImageFix" result="shape"/>
<feGaussianBlur stdDeviation="2" result="effect1_foregroundBlur_6_677"/>
</filter>
<filter id="filter2_f_6_677" x="1.55176" y="16.7739" width="113.118" height="110.394" filterUnits="userSpaceOnUse" color-interpolation-filters="sRGB">
<feFlood flood-opacity="0" result="BackgroundImageFix"/>
<feBlend mode="normal" in="SourceGraphic" in2="BackgroundImageFix" result="shape"/>
<feGaussianBlur stdDeviation="10" result="effect1_foregroundBlur_6_677"/>
</filter>
<filter id="filter3_f_6_677" x="0.577026" y="5" width="177.322" height="165.491" filterUnits="userSpaceOnUse" color-interpolation-filters="sRGB">
<feFlood flood-opacity="0" result="BackgroundImageFix"/>
<feBlend mode="normal" in="SourceGraphic" in2="BackgroundImageFix" result="shape"/>
<feGaussianBlur stdDeviation="1" result="effect1_foregroundBlur_6_677"/>
</filter>
<filter id="filter4_df_6_677" x="11.6309" y="0.858887" width="391.268" height="266" filterUnits="userSpaceOnUse" color-interpolation-filters="sRGB">
<feFlood flood-opacity="0" result="BackgroundImageFix"/>
<feColorMatrix in="SourceAlpha" type="matrix" values="0 0 0 0 0 0 0 0 0 0 0 0 0 0 0 0 0 0 127 0" result="hardAlpha"/>
<feOffset dx="10" dy="2"/>
<feGaussianBlur stdDeviation="15"/>
<feColorMatrix type="matrix" values="0 0 0 0 0 0 0 0 0 0 0 0 0 0 0 0 0 0 0.25 0"/>
<feBlend mode="normal" in2="BackgroundImageFix" result="effect1_dropShadow_6_677"/>
<feBlend mode="normal" in="SourceGraphic" in2="effect1_dropShadow_6_677" result="shape"/>
<feGaussianBlur stdDeviation="2" result="effect2_foregroundBlur_6_677"/>
</filter>
<filter id="filter5_d_6_677" x="11.6309" y="0.858887" width="391.268" height="266" filterUnits="userSpaceOnUse" color-interpolation-filters="sRGB">
<feFlood flood-opacity="0" result="BackgroundImageFix"/>
<feColorMatrix in="SourceAlpha" type="matrix" values="0 0 0 0 0 0 0 0 0 0 0 0 0 0 0 0 0 0 127 0" result="hardAlpha"/>
<feOffset dx="10" dy="2"/>
<feGaussianBlur stdDeviation="15"/>
<feColorMatrix type="matrix" values="0 0 0 0 0.501961 0 0 0 0 0.501961 0 0 0 0 0.501961 0 0 0 0.302 0"/>
<feBlend mode="normal" in2="BackgroundImageFix" result="effect1_dropShadow_6_677"/>
<feBlend mode="normal" in="SourceGraphic" in2="effect1_dropShadow_6_677" result="shape"/>
</filter>
<linearGradient id="paint0_linear_6_677" x1="178.12" y1="275.196" x2="141.287" y2="261.693" gradientUnits="userSpaceOnUse">
<stop stop-color="#FFD100"/>
<stop offset="1" stop-color="#FFF0AA"/>
</linearGradient>
<linearGradient id="paint1_linear_6_677" x1="280.905" y1="235.221" x2="255.963" y2="226.077" gradientUnits="userSpaceOnUse">
<stop stop-color="#FFD100"/>
<stop offset="1" stop-color="#FFF0AA"/>
</linearGradient>
<linearGradient id="paint2_linear_6_677" x1="53.544" y1="7" x2="53.544" y2="24.3" gradientUnits="userSpaceOnUse">
<stop stop-color="#6B38FC"/>
<stop offset="1" stop-color="#9F7EFD"/>
</linearGradient>
<linearGradient id="paint3_linear_6_677" x1="168.072" y1="154.484" x2="168.072" y2="168.491" gradientUnits="userSpaceOnUse">
<stop stop-color="#6B38FC"/>
<stop offset="1" stop-color="#9F7EFD"/>
</linearGradient>
<linearGradient id="paint4_linear_6_677" x1="133.885" y1="26.6638" x2="137.727" y2="40.9906" gradientUnits="userSpaceOnUse">
<stop stop-color="#6B38FC"/>
<stop offset="1" stop-color="#9F7EFD"/>
</linearGradient>
<linearGradient id="paint5_linear_6_677" x1="7.20913" y1="143.001" x2="12.3637" y2="155.143" gradientUnits="userSpaceOnUse">
<stop stop-color="#6B38FC"/>
<stop offset="1" stop-color="#9F7EFD"/>
</linearGradient>
<linearGradient id="paint6_linear_6_677" x1="130.538" y1="78.2497" x2="120.103" y2="75.8405" gradientUnits="userSpaceOnUse">
<stop stop-color="#6B38FC"/>
<stop offset="1" stop-color="#9F7EFD"/>
</linearGradient>
<linearGradient id="paint7_linear_6_677" x1="165.794" y1="54.8149" x2="231.837" y2="246.027" gradientUnits="userSpaceOnUse">
<stop stop-color="white" stop-opacity="0.596"/>
<stop offset="1" stop-color="#F7F7F7" stop-opacity="0.204"/>
</linearGradient>
</defs>
</svg>
