<svg width="254" height="181" viewBox="0 0 254 181" fill="none" xmlns="http://www.w3.org/2000/svg">
<g filter="url(#filter0_f_2_553)">
<path d="M125.062 85.8643C125.062 85.8643 189.973 89.3723 218.762 81.0123C247.551 72.6523 247.51 29.2663 218.762 18.5713C190.014 7.87628 180.189 46.1042 180.189 46.1042" stroke="#D0D0D0" stroke-width="16" stroke-linecap="round"/>
<path d="M13.4082 132.725C13.4082 132.725 110.977 123.91 153.99 132.725C197.003 141.54 183.307 166.825 162.922 167.986C142.537 169.147 123.722 155.748 123.722 155.748" stroke="#D0D0D0" stroke-width="16" stroke-linecap="round"/>
</g>
<g filter="url(#filter1_f_2_553)">
<path d="M222.992 103.354H248.648L233.903 125.012L251.147 125.338L214.947 168.178L223.717 135.516H207.663L222.992 103.354Z" fill="url(#paint0_linear_2_553)"/>
</g>
<g filter="url(#filter2_f_2_553)">
<path d="M24.0681 2.57716C26.0131 2.59916 45.7451 33.4082 45.7451 45.3772C45.7455 51.1263 43.4621 56.64 39.3971 60.7056C35.3322 64.7711 29.8187 67.0553 24.0696 67.0557C18.3205 67.0561 12.8067 64.7726 8.74122 60.7077C4.67571 56.6427 2.39151 51.1293 2.39111 45.3802C2.39111 33.4062 22.1231 2.55616 24.0681 2.57716Z" fill="#42A0F0"/>
<path d="M7.54067 53.4825C9.70662 54.1447 12.4594 51.4207 13.6892 47.3983C14.9189 43.3759 14.16 39.5783 11.9941 38.9161C9.82812 38.2539 7.07534 40.9778 5.84556 45.0003C4.61579 49.0227 5.37471 52.8203 7.54067 53.4825Z" fill="white"/>
<path d="M67.8231 57.5772C69.2081 57.5922 83.2551 79.5252 83.2551 88.0482C83.2551 92.141 81.6292 96.0662 78.7352 98.9602C75.8411 101.854 71.9159 103.48 67.8231 103.48C63.7303 103.48 59.8051 101.854 56.911 98.9602C54.017 96.0662 52.3911 92.141 52.3911 88.0482C52.3911 79.5252 66.4381 57.5622 67.8231 57.5772Z" fill="#42A0F0"/>
<path d="M56.057 93.8159C57.5992 94.2874 59.5591 92.3482 60.4346 89.4846C61.3101 86.6209 60.7697 83.9173 59.2275 83.4458C57.6853 82.9743 55.7253 84.9135 54.8498 87.7771C53.9743 90.6408 54.5148 93.3444 56.057 93.8159Z" fill="white"/>
<path d="M102.438 11.5772C103.519 11.5892 114.485 28.7062 114.485 35.3642C114.485 38.5592 113.216 41.6234 110.957 43.8827C108.697 46.1419 105.633 47.4112 102.438 47.4112C99.243 47.4112 96.1788 46.1419 93.9196 43.8827C91.6603 41.6234 90.3911 38.5592 90.3911 35.3642C90.3911 28.7062 101.357 11.5652 102.438 11.5772Z" fill="#42A0F0"/>
<path d="M93.2525 39.8676C94.4562 40.2356 95.9861 38.7216 96.6696 36.4859C97.3531 34.2502 96.9314 32.1395 95.7278 31.7715C94.5241 31.4035 92.9942 32.9176 92.3107 35.1533C91.6272 37.3889 92.0489 39.4996 93.2525 39.8676Z" fill="white"/>
</g>
<defs>
<filter id="filter0_f_2_553" x="1.40771" y="4.68311" width="250.931" height="175.375" filterUnits="userSpaceOnUse" color-interpolation-filters="sRGB">
<feFlood flood-opacity="0" result="BackgroundImageFix"/>
<feBlend mode="normal" in="SourceGraphic" in2="BackgroundImageFix" result="shape"/>
<feGaussianBlur stdDeviation="2" result="effect1_foregroundBlur_2_553"/>
</filter>
<filter id="filter1_f_2_553" x="205.663" y="101.354" width="47.4839" height="68.824" filterUnits="userSpaceOnUse" color-interpolation-filters="sRGB">
<feFlood flood-opacity="0" result="BackgroundImageFix"/>
<feBlend mode="normal" in="SourceGraphic" in2="BackgroundImageFix" result="shape"/>
<feGaussianBlur stdDeviation="1" result="effect1_foregroundBlur_2_553"/>
</filter>
<filter id="filter2_f_2_553" x="0.391113" y="0.577148" width="116.094" height="104.903" filterUnits="userSpaceOnUse" color-interpolation-filters="sRGB">
<feFlood flood-opacity="0" result="BackgroundImageFix"/>
<feBlend mode="normal" in="SourceGraphic" in2="BackgroundImageFix" result="shape"/>
<feGaussianBlur stdDeviation="1" result="effect1_foregroundBlur_2_553"/>
</filter>
<linearGradient id="paint0_linear_2_553" x1="225.405" y1="135.766" x2="205.093" y2="128.319" gradientUnits="userSpaceOnUse">
<stop stop-color="#FFD100"/>
<stop offset="1" stop-color="#FFF0AA"/>
</linearGradient>
</defs>
</svg>
