<svg width="296" height="204" viewBox="0 0 296 204" fill="none" xmlns="http://www.w3.org/2000/svg">
<g filter="url(#filter0_f_2_353)">
<path d="M149.093 109.243C149.093 109.243 214.004 112.751 242.793 104.391C271.582 96.0312 271.541 52.6452 242.793 41.9502C214.045 31.2552 204.22 69.4831 204.22 69.4831" stroke="#D0D0D0" stroke-width="16" stroke-linecap="round"/>
<path d="M37.439 156.104C37.439 156.104 135.008 147.289 178.021 156.104C221.034 164.919 207.338 190.204 186.953 191.365C166.568 192.526 147.753 179.127 147.753 179.127" stroke="#D0D0D0" stroke-width="16" stroke-linecap="round"/>
<path d="M245.107 156.039H283.899" stroke="#D0D0D0" stroke-width="16" stroke-linecap="round"/>
</g>
<g filter="url(#filter1_f_2_353)">
<path d="M82.1138 30.2385L66.2385 130.471" stroke="#42A0F0" stroke-width="10" stroke-linecap="round"/>
<path d="M78.0327 54.7083L98.1178 39.6236" stroke="#42A0F0" stroke-width="10" stroke-linecap="round"/>
<path d="M78.0328 54.7083L63.0361 34.0671" stroke="#42A0F0" stroke-width="10" stroke-linecap="round"/>
<path d="M69.5659 108.166L84.0065 128.719" stroke="#42A0F0" stroke-width="10" stroke-linecap="round"/>
<path d="M69.566 108.166L48.9248 123.163" stroke="#42A0F0" stroke-width="10" stroke-linecap="round"/>
<path d="M121.242 62.5471L26.5008 98.915" stroke="#42A0F0" stroke-width="10" stroke-linecap="round"/>
<path d="M98.0103 71.2478L121.117 81.0996" stroke="#42A0F0" stroke-width="10" stroke-linecap="round"/>
<path d="M98.0103 71.2477L108.388 47.9397" stroke="#42A0F0" stroke-width="10" stroke-linecap="round"/>
<path d="M47.4812 90.644L36.902 113.426" stroke="#42A0F0" stroke-width="10" stroke-linecap="round"/>
<path d="M47.4812 90.644L24.1731 80.2666" stroke="#42A0F0" stroke-width="10" stroke-linecap="round"/>
<path d="M112.827 112.589L33.9603 48.7239" stroke="#42A0F0" stroke-width="10" stroke-linecap="round"/>
<path d="M93.6758 96.8193L96.697 121.756" stroke="#42A0F0" stroke-width="10" stroke-linecap="round"/>
<path d="M93.6757 96.8193L119.05 94.1523" stroke="#42A0F0" stroke-width="10" stroke-linecap="round"/>
<path d="M51.6135 62.7581L26.5938 64.9874" stroke="#42A0F0" stroke-width="10" stroke-linecap="round"/>
<path d="M51.6135 62.758L48.9466 37.384" stroke="#42A0F0" stroke-width="10" stroke-linecap="round"/>
<path d="M48.4846 4.3623L47.4002 11.209" stroke="#42A0F0" stroke-linecap="round"/>
<path d="M48.0717 6.00994L49.274 5.62934" stroke="#42A0F0" stroke-linecap="round"/>
<path d="M48.0717 6.00982L46.4897 5.18823" stroke="#42A0F0" stroke-linecap="round"/>
<path d="M47.4543 9.90747L48.4802 10.641" stroke="#42A0F0" stroke-linecap="round"/>
<path d="M47.4544 9.90735L45.696 10.1999" stroke="#42A0F0" stroke-linecap="round"/>
<path d="M51.1575 6.5686L44.6859 9.05281" stroke="#42A0F0" stroke-linecap="round"/>
<path d="M49.5708 7.16246L51.1488 7.83564" stroke="#42A0F0" stroke-linecap="round"/>
<path d="M49.5709 7.16248L50.2795 5.5708" stroke="#42A0F0" stroke-linecap="round"/>
<path d="M46.1194 8.4873L45.3971 10.0435" stroke="#42A0F0" stroke-linecap="round"/>
<path d="M46.1195 8.48733L44.5278 7.77867" stroke="#42A0F0" stroke-linecap="round"/>
<path d="M50.5825 9.98657L45.1953 5.62412" stroke="#42A0F0" stroke-linecap="round"/>
<path d="M49.2747 8.90974L49.4808 10.613" stroke="#42A0F0" stroke-linecap="round"/>
<path d="M49.2748 8.90966L51.0076 8.72754" stroke="#42A0F0" stroke-linecap="round"/>
<path d="M46.4016 6.58325L44.6928 6.73584" stroke="#42A0F0" stroke-linecap="round"/>
<path d="M46.4017 6.58318L46.2196 4.85041" stroke="#42A0F0" stroke-linecap="round"/>
<path d="M140.533 34.4783L138.674 46.214" stroke="#42A0F0" stroke-linecap="round"/>
<path d="M139.622 37.0627L141.938 36.8584" stroke="#42A0F0" stroke-linecap="round"/>
<path d="M139.622 37.0627L136.926 36.0647" stroke="#42A0F0" stroke-linecap="round"/>
<path d="M138.564 43.7454L140.614 45.2122" stroke="#42A0F0" stroke-linecap="round"/>
<path d="M138.564 43.7454L135.603 44.4186" stroke="#42A0F0" stroke-linecap="round"/>
<path d="M145.114 38.2615L134.021 42.5196" stroke="#42A0F0" stroke-linecap="round"/>
<path d="M142.394 39.2798L145.099 40.4331" stroke="#42A0F0" stroke-linecap="round"/>
<path d="M142.395 39.2799L143.609 36.5513" stroke="#42A0F0" stroke-linecap="round"/>
<path d="M136.479 41.5508L135.24 44.2178" stroke="#42A0F0" stroke-linecap="round"/>
<path d="M136.479 41.5508L133.75 40.336" stroke="#42A0F0" stroke-linecap="round"/>
<path d="M144.129 44.1204L134.895 36.6428" stroke="#42A0F0" stroke-linecap="round"/>
<path d="M141.887 42.2741L142.241 45.1933" stroke="#42A0F0" stroke-linecap="round"/>
<path d="M141.887 42.2741L144.857 41.9619" stroke="#42A0F0" stroke-linecap="round"/>
<path d="M136.962 38.2864L134.033 38.5473" stroke="#42A0F0" stroke-linecap="round"/>
<path d="M136.962 38.2864L136.65 35.3159" stroke="#42A0F0" stroke-linecap="round"/>
<path d="M119.635 119.646L118.109 129.281" stroke="#42A0F0" stroke-linecap="round"/>
<path d="M118.801 121.672L120.56 121.38" stroke="#42A0F0" stroke-linecap="round"/>
<path d="M118.801 121.672L116.662 120.762" stroke="#42A0F0" stroke-linecap="round"/>
<path d="M117.919 127.24L119.413 128.619" stroke="#42A0F0" stroke-linecap="round"/>
<path d="M117.919 127.24L115.516 128.001" stroke="#42A0F0" stroke-linecap="round"/>
<path d="M123.395 122.751L114.288 126.247" stroke="#42A0F0" stroke-linecap="round"/>
<path d="M121.162 123.587L123.383 124.534" stroke="#42A0F0" stroke-linecap="round"/>
<path d="M121.162 123.587L122.159 121.347" stroke="#42A0F0" stroke-linecap="round"/>
<path d="M116.305 125.452L115.288 127.641" stroke="#42A0F0" stroke-linecap="round"/>
<path d="M116.305 125.452L114.065 124.454" stroke="#42A0F0" stroke-linecap="round"/>
<path d="M122.585 127.562L115.004 121.423" stroke="#42A0F0" stroke-linecap="round"/>
<path d="M120.745 126.046L121.036 128.443" stroke="#42A0F0" stroke-linecap="round"/>
<path d="M120.745 126.046L123.184 125.79" stroke="#42A0F0" stroke-linecap="round"/>
<path d="M116.702 122.772L114.297 122.986" stroke="#42A0F0" stroke-linecap="round"/>
<path d="M116.702 122.772L116.445 120.333" stroke="#42A0F0" stroke-linecap="round"/>
<path d="M36.9868 129.389L35.6426 137.876" stroke="#42A0F0" stroke-linecap="round"/>
<path d="M36.1999 131.423L37.9583 131.13" stroke="#42A0F0" stroke-linecap="round"/>
<path d="M36.1999 131.422L34.6179 130.601" stroke="#42A0F0" stroke-linecap="round"/>
<path d="M35.4944 135.877L36.9881 137.256" stroke="#42A0F0" stroke-linecap="round"/>
<path d="M35.4944 135.877L33.6478 136.727" stroke="#42A0F0" stroke-linecap="round"/>
<path d="M40.3 132.125L32.2778 135.204" stroke="#42A0F0" stroke-linecap="round"/>
<path d="M38.3325 132.862L40.2894 133.696" stroke="#42A0F0" stroke-linecap="round"/>
<path d="M38.3325 132.862L39.2114 130.888" stroke="#42A0F0" stroke-linecap="round"/>
<path d="M34.0549 134.504L33.1588 136.433" stroke="#42A0F0" stroke-linecap="round"/>
<path d="M34.0549 134.504L32.0808 133.625" stroke="#42A0F0" stroke-linecap="round"/>
<path d="M39.5864 136.361L32.9084 130.953" stroke="#42A0F0" stroke-linecap="round"/>
<path d="M37.9644 135.026L38.2205 137.137" stroke="#42A0F0" stroke-linecap="round"/>
<path d="M37.9644 135.026L40.1135 134.8" stroke="#42A0F0" stroke-linecap="round"/>
<path d="M34.4036 132.142L32.2847 132.331" stroke="#42A0F0" stroke-linecap="round"/>
<path d="M34.4036 132.142L34.1778 129.993" stroke="#42A0F0" stroke-linecap="round"/>
<path d="M10.6057 88.6775L9.51536 95.5617" stroke="#42A0F0" stroke-linecap="round"/>
<path d="M10.1925 90.1999L11.3949 89.8193" stroke="#42A0F0" stroke-linecap="round"/>
<path d="M10.1925 90.1998L8.6106 89.3782" stroke="#42A0F0" stroke-linecap="round"/>
<path d="M9.5752 94.0972L10.6011 94.8307" stroke="#42A0F0" stroke-linecap="round"/>
<path d="M9.57521 94.0971L7.8168 94.3896" stroke="#42A0F0" stroke-linecap="round"/>
<path d="M13.293 90.8962L6.78591 93.3941" stroke="#42A0F0" stroke-linecap="round"/>
<path d="M11.6973 91.4941L13.284 92.1703" stroke="#42A0F0" stroke-linecap="round"/>
<path d="M11.6972 91.494L12.4099 89.8933" stroke="#42A0F0" stroke-linecap="round"/>
<path d="M8.22705 92.8259L7.50039 94.3902" stroke="#42A0F0" stroke-linecap="round"/>
<path d="M8.22698 92.8259L6.62625 92.1132" stroke="#42A0F0" stroke-linecap="round"/>
<path d="M12.7144 94.3333L7.29765 89.9469" stroke="#42A0F0" stroke-linecap="round"/>
<path d="M11.3989 93.2498L11.6066 94.9621" stroke="#42A0F0" stroke-linecap="round"/>
<path d="M11.399 93.2498L13.1416 93.0667" stroke="#42A0F0" stroke-linecap="round"/>
<path d="M8.51025 90.9106L6.79219 91.0635" stroke="#42A0F0" stroke-linecap="round"/>
<path d="M8.51031 90.9106L8.32716 89.168" stroke="#42A0F0" stroke-linecap="round"/>
</g>
<defs>
<filter id="filter0_f_2_353" x="25.4385" y="28.062" width="270.46" height="175.375" filterUnits="userSpaceOnUse" color-interpolation-filters="sRGB">
<feFlood flood-opacity="0" result="BackgroundImageFix"/>
<feBlend mode="normal" in="SourceGraphic" in2="BackgroundImageFix" result="shape"/>
<feGaussianBlur stdDeviation="2" result="effect1_foregroundBlur_2_353"/>
</filter>
<filter id="filter1_f_2_353" x="4.12622" y="1.8623" width="143.488" height="138.514" filterUnits="userSpaceOnUse" color-interpolation-filters="sRGB">
<feFlood flood-opacity="0" result="BackgroundImageFix"/>
<feBlend mode="normal" in="SourceGraphic" in2="BackgroundImageFix" result="shape"/>
<feGaussianBlur stdDeviation="1" result="effect1_foregroundBlur_2_353"/>
</filter>
</defs>
</svg>
