<svg width="392" height="317" viewBox="0 0 392 317" fill="none" xmlns="http://www.w3.org/2000/svg">
<g filter="url(#filter0_f_6_640)">
<path d="M98.561 202.145C98.561 202.145 113.261 215.381 124.754 214.945C139.154 214.383 141.625 202.845 154.972 202.145C168.942 202.284 170.372 214.245 185.511 214.945C199.078 214.784 204.826 202.363 217.758 202.145C230.69 201.927 244.477 214.944 244.477 214.944" stroke="white" stroke-width="16" stroke-linecap="round"/>
<path d="M151.561 247.145C151.561 247.145 166.261 260.381 177.754 259.945C192.154 259.383 194.625 247.845 207.972 247.145C221.942 247.284 223.372 259.245 238.511 259.945C252.078 259.784 257.826 247.363 270.758 247.145C283.69 246.927 297.477 259.944 297.477 259.944" stroke="white" stroke-width="16" stroke-linecap="round"/>
<path d="M67.561 292.145C67.561 292.145 82.261 305.381 93.754 304.945C108.154 304.383 110.625 292.845 123.972 292.145C137.942 292.284 139.372 304.245 154.511 304.945C168.078 304.784 173.826 292.363 186.758 292.145C199.69 291.927 213.477 304.944 213.477 304.944" stroke="white" stroke-width="16" stroke-linecap="round"/>
</g>
<g filter="url(#filter1_f_6_640)">
<path d="M102.5 171C143.093 171 176 138.093 176 97.5C176 56.9071 143.093 24 102.5 24C61.9071 24 29 56.9071 29 97.5C29 138.093 61.9071 171 102.5 171Z" fill="#FA9E42"/>
</g>
<g filter="url(#filter2_f_6_640)">
<path d="M102.5 188C152.482 188 193 147.482 193 97.5C193 47.5182 152.482 7 102.5 7C52.5182 7 12 47.5182 12 97.5C12 147.482 52.5182 188 102.5 188Z" stroke="#FA9E42" stroke-width="10" stroke-linecap="round" stroke-dasharray="1 66"/>
</g>
<g filter="url(#filter3_f_6_640)">
<path d="M94.3609 82.824C120.103 69.151 134.665 46.1934 126.886 31.5468C119.106 16.9002 91.9315 16.1109 66.189 29.7839C40.4465 43.4569 25.8846 66.4144 33.6641 81.061C41.4435 95.7076 68.6184 96.4969 94.3609 82.824Z" fill="#F8E36F"/>
</g>
<g filter="url(#filter4_df_6_640)">
<g filter="url(#filter5_d_6_640)">
<path d="M236.294 259.765C234.361 259.92 232.408 259.999 230.437 260H92.9131C83.4469 260.035 74.0668 258.201 65.3109 254.603C56.5551 251.005 48.5958 245.714 41.8897 239.032C35.1835 232.351 29.8624 224.412 26.2317 215.669C22.6009 206.927 20.7319 197.554 20.7319 188.087C20.7319 178.621 22.6009 169.248 26.2317 160.506C29.8624 151.763 35.1835 143.824 41.8897 137.143C48.5958 130.461 56.5551 125.17 65.3109 121.572C74.0668 117.974 83.4469 116.14 92.9131 116.175H144.188C160.812 79.6 199.1 54 243.673 54C303.5 54 352 100.115 352 157C352 213.885 303.5 260 243.673 260C241.193 260 238.733 259.922 236.294 259.765Z" fill="url(#paint0_linear_6_640)"/>
<path d="M243.673 259C250.958 259 258.239 258.302 265.313 256.926C272.206 255.585 278.987 253.584 285.465 250.978C291.826 248.42 297.961 245.254 303.699 241.568C309.382 237.917 314.726 233.725 319.583 229.107C324.438 224.49 328.846 219.411 332.684 214.009C336.558 208.557 339.886 202.728 342.574 196.686C345.311 190.532 347.413 184.093 348.822 177.547C350.267 170.831 351 163.917 351 157C351 150.082 350.267 143.169 348.822 136.452C347.413 129.906 345.311 123.467 342.574 117.314C339.886 111.272 336.558 105.443 332.684 99.991C328.846 94.5893 324.438 89.5095 319.583 84.8928C314.726 80.2752 309.382 76.0829 303.699 72.4323C297.961 68.7461 291.826 65.5801 285.465 63.0221C278.987 60.4165 272.206 58.4154 265.313 57.0742C258.239 55.6979 250.958 55 243.673 55C222.302 55 201.662 60.9523 183.986 72.2135C175.466 77.6418 167.809 84.1939 161.229 91.6878C154.607 99.2291 149.18 107.607 145.098 116.588L144.832 117.175H144.188H92.9127C83.3391 117.175 74.0525 119.049 65.3106 122.747C61.109 124.524 57.0564 126.724 53.2655 129.285C49.5103 131.822 45.9791 134.735 42.7699 137.945C39.5607 141.154 36.6472 144.685 34.1102 148.44C31.5491 152.231 29.3495 156.284 27.5723 160.485C23.8748 169.227 22 178.514 22 188.087C22 197.661 23.8748 206.948 27.5723 215.689C29.3495 219.891 31.5491 223.944 34.1102 227.735C36.6472 231.49 39.5607 235.021 42.7699 238.23C45.9791 241.439 49.5103 244.353 53.2655 246.89C57.0564 249.451 61.109 251.651 65.3106 253.428C74.0525 257.125 83.3391 259 92.9127 259H230.437C232.36 259 234.304 258.922 236.214 258.768L236.286 258.762L236.358 258.767C238.778 258.922 241.238 259 243.673 259ZM243.673 260C241.193 260 238.732 259.921 236.294 259.765C234.364 259.92 232.408 260 230.437 260H92.9127C53.1966 260 21 227.803 21 188.087C21 148.371 53.1966 116.175 92.9127 116.175H144.188C160.812 79.5954 199.098 54 243.673 54C303.5 54 352 100.115 352 157C352 213.885 303.5 260 243.673 260Z" fill="white" fill-opacity="0.5"/>
</g>
</g>
<defs>
<filter id="filter0_f_6_640" x="55.561" y="190.142" width="253.916" height="126.813" filterUnits="userSpaceOnUse" color-interpolation-filters="sRGB">
<feFlood flood-opacity="0" result="BackgroundImageFix"/>
<feBlend mode="normal" in="SourceGraphic" in2="BackgroundImageFix" result="shape"/>
<feGaussianBlur stdDeviation="2" result="effect1_foregroundBlur_6_640"/>
</filter>
<filter id="filter1_f_6_640" x="25" y="20" width="155" height="155" filterUnits="userSpaceOnUse" color-interpolation-filters="sRGB">
<feFlood flood-opacity="0" result="BackgroundImageFix"/>
<feBlend mode="normal" in="SourceGraphic" in2="BackgroundImageFix" result="shape"/>
<feGaussianBlur stdDeviation="2" result="effect1_foregroundBlur_6_640"/>
</filter>
<filter id="filter2_f_6_640" x="5" y="0" width="195" height="195" filterUnits="userSpaceOnUse" color-interpolation-filters="sRGB">
<feFlood flood-opacity="0" result="BackgroundImageFix"/>
<feBlend mode="normal" in="SourceGraphic" in2="BackgroundImageFix" result="shape"/>
<feGaussianBlur stdDeviation="1" result="effect1_foregroundBlur_6_640"/>
</filter>
<filter id="filter3_f_6_640" x="11.5693" y="0.0239258" width="137.411" height="112.56" filterUnits="userSpaceOnUse" color-interpolation-filters="sRGB">
<feFlood flood-opacity="0" result="BackgroundImageFix"/>
<feBlend mode="normal" in="SourceGraphic" in2="BackgroundImageFix" result="shape"/>
<feGaussianBlur stdDeviation="10" result="effect1_foregroundBlur_6_640"/>
</filter>
<filter id="filter4_df_6_640" x="0.731934" y="26" width="391.268" height="266" filterUnits="userSpaceOnUse" color-interpolation-filters="sRGB">
<feFlood flood-opacity="0" result="BackgroundImageFix"/>
<feColorMatrix in="SourceAlpha" type="matrix" values="0 0 0 0 0 0 0 0 0 0 0 0 0 0 0 0 0 0 127 0" result="hardAlpha"/>
<feOffset dx="10" dy="2"/>
<feGaussianBlur stdDeviation="15"/>
<feColorMatrix type="matrix" values="0 0 0 0 0 0 0 0 0 0 0 0 0 0 0 0 0 0 0.25 0"/>
<feBlend mode="normal" in2="BackgroundImageFix" result="effect1_dropShadow_6_640"/>
<feBlend mode="normal" in="SourceGraphic" in2="effect1_dropShadow_6_640" result="shape"/>
<feGaussianBlur stdDeviation="2" result="effect2_foregroundBlur_6_640"/>
</filter>
<filter id="filter5_d_6_640" x="0.731934" y="26" width="391.268" height="266" filterUnits="userSpaceOnUse" color-interpolation-filters="sRGB">
<feFlood flood-opacity="0" result="BackgroundImageFix"/>
<feColorMatrix in="SourceAlpha" type="matrix" values="0 0 0 0 0 0 0 0 0 0 0 0 0 0 0 0 0 0 127 0" result="hardAlpha"/>
<feOffset dx="10" dy="2"/>
<feGaussianBlur stdDeviation="15"/>
<feColorMatrix type="matrix" values="0 0 0 0 0.501961 0 0 0 0 0.501961 0 0 0 0 0.501961 0 0 0 0.302 0"/>
<feBlend mode="normal" in2="BackgroundImageFix" result="effect1_dropShadow_6_640"/>
<feBlend mode="normal" in="SourceGraphic" in2="effect1_dropShadow_6_640" result="shape"/>
</filter>
<linearGradient id="paint0_linear_6_640" x1="154.896" y1="79.9561" x2="220.938" y2="271.168" gradientUnits="userSpaceOnUse">
<stop stop-color="white" stop-opacity="0.596"/>
<stop offset="1" stop-color="#F7F7F7" stop-opacity="0.204"/>
</linearGradient>
</defs>
</svg>
