<svg width="403" height="302" viewBox="0 0 403 302" fill="none" xmlns="http://www.w3.org/2000/svg">
<g filter="url(#filter0_f_6_1541)">
<path d="M137.9 213.282C137.9 213.282 195.483 216.394 221.019 208.982C246.555 201.57 246.519 163.082 221.019 153.59C195.519 144.098 186.801 178.015 186.801 178.015" stroke="#D0D0D0" stroke-width="16" stroke-linecap="round"/>
<path d="M62.8501 257.857C62.8501 257.857 149.404 250.037 187.562 257.857C225.72 265.677 213.57 288.112 195.486 289.137C177.402 290.162 160.715 278.28 160.715 278.28" stroke="#D0D0D0" stroke-width="16" stroke-linecap="round"/>
</g>
<g filter="url(#filter1_f_6_1541)">
<path d="M333.517 236.122C335.197 236.141 352.246 262.76 352.246 273.103C352.246 275.563 351.762 277.998 350.821 280.27C349.879 282.543 348.5 284.607 346.761 286.347C343.249 289.859 338.485 291.832 333.518 291.833C328.55 291.833 323.786 289.86 320.274 286.347C316.762 282.835 314.788 278.071 314.788 273.104C314.788 262.76 331.837 236.104 333.517 236.122Z" fill="#42A0F0"/>
<path d="M319.237 280.106C321.108 280.678 323.487 278.324 324.549 274.849C325.612 271.373 324.956 268.091 323.085 267.519C321.214 266.947 318.836 269.301 317.773 272.777C316.71 276.253 317.366 279.534 319.237 280.106Z" fill="white"/>
<path d="M277.742 194.295C279.482 194.314 297.142 221.883 297.142 232.595C297.142 237.74 295.098 242.675 291.46 246.313C287.822 249.951 282.887 251.995 277.742 251.995C272.597 251.995 267.662 249.951 264.024 246.313C260.386 242.675 258.342 237.74 258.342 232.595C258.342 221.883 275.999 194.276 277.742 194.295Z" fill="#42A0F0"/>
<path d="M262.951 239.847C264.889 240.439 267.352 238.002 268.453 234.402C269.553 230.803 268.874 227.405 266.936 226.812C264.997 226.22 262.534 228.657 261.434 232.256C260.333 235.856 261.012 239.254 262.951 239.847Z" fill="white"/>
</g>
<g filter="url(#filter2_f_6_1541)">
<path d="M90.1021 180.558C74.9461 180.578 60.1358 176.031 47.6021 167.509C36.2188 159.796 27.1237 149.158 21.2728 136.715C15.4219 124.271 13.0312 110.481 14.352 96.7947C15.6729 83.1078 20.6564 70.0295 28.779 58.9345C36.9015 47.8395 47.8629 39.1376 60.5111 33.7433C69.8678 29.7638 79.9342 27.7227 90.1021 27.7433C93.0692 27.7436 96.0339 27.9159 98.9811 28.2593C97.2619 32.0181 95.9465 35.9488 95.0571 39.9853C94.1432 44.1507 93.6828 48.4028 93.6841 52.6673C93.6663 64.3706 97.1618 75.8098 103.718 85.5043C107.944 91.7573 113.328 97.1424 119.581 101.368C122.724 103.491 126.065 105.305 129.557 106.783C136.789 109.844 144.565 111.414 152.418 111.398C156.963 111.4 161.493 110.878 165.918 109.84C164.875 124.213 159.781 137.996 151.226 149.592C148.459 153.344 145.356 156.837 141.956 160.027C127.923 173.234 109.373 180.579 90.1021 180.558Z" fill="#713FFD"/>
</g>
<g filter="url(#filter3_f_6_1541)">
<path d="M76.7253 93.641C93.7901 78.2758 99.1022 56.3557 88.5904 44.6811C78.0785 33.0065 55.7232 35.9983 38.6585 51.3635C21.5937 66.7286 16.2816 88.6487 26.7934 100.323C37.3053 111.998 59.6606 109.006 76.7253 93.641Z" fill="#A586FC"/>
</g>
<g filter="url(#filter4_f_6_1541)">
<path d="M53.159 8L55.699 14.27L62.566 16.589L55.699 18.908L53.159 25.178L50.619 18.908L43.752 16.589L50.619 14.27L53.159 8Z" fill="url(#paint0_linear_6_1541)"/>
<path d="M166.861 154.422L168.961 159.498L174.634 161.375L168.959 163.252L166.859 168.328L164.763 163.252L159.09 161.375L164.763 159.498L166.861 154.422Z" fill="url(#paint1_linear_6_1541)"/>
<path d="M132.921 27.522L136.447 32.1412L142.73 32.5151L137.476 35.982L136.734 41.7454L133.209 37.1262L126.926 36.7523L132.179 33.2854L132.921 27.522Z" fill="url(#paint2_linear_6_1541)"/>
<path d="M7.15709 143.021L10.959 146.6L16.8747 146.009L12.339 149.855L12.2727 155.076L8.47075 151.497L2.5587 152.087L7.09264 148.241L7.15709 143.021Z" fill="url(#paint3_linear_6_1541)"/>
<path d="M129.597 78.7366L125.418 79.5853L122.944 83.9168L122.62 78.9392L119.236 76.3445L123.415 75.4958L125.888 71.1643L126.213 76.1419L129.597 78.7366Z" fill="url(#paint4_linear_6_1541)"/>
</g>
<g filter="url(#filter5_df_6_1541)">
<g filter="url(#filter6_d_6_1541)">
<path d="M246.78 233.765C244.847 233.92 242.894 233.999 240.923 234H103.399C93.9327 234.035 84.5526 232.201 75.7968 228.603C67.041 225.005 59.0817 219.714 52.3755 213.032C45.6693 206.351 40.3483 198.412 36.7175 189.669C33.0868 180.927 31.2178 171.554 31.2178 162.087C31.2178 152.621 33.0868 143.248 36.7175 134.506C40.3483 125.763 45.6693 117.824 52.3755 111.143C59.0817 104.461 67.041 99.17 75.7968 95.5718C84.5526 91.9737 93.9327 90.1397 103.399 90.175H154.675C171.299 53.6 209.586 28 254.159 28C313.986 28 362.486 74.115 362.486 131C362.486 187.885 313.986 234 254.159 234C251.679 234 249.219 233.922 246.78 233.765Z" fill="url(#paint5_linear_6_1541)"/>
<path d="M254.159 233C261.445 233 268.726 232.302 275.799 230.926C282.693 229.585 289.473 227.584 295.951 224.978C302.312 222.42 308.447 219.254 314.185 215.568C319.868 211.917 325.212 207.725 330.069 203.107C334.924 198.49 339.332 193.411 343.17 188.009C347.044 182.557 350.372 176.728 353.06 170.686C355.797 164.532 357.899 158.093 359.308 151.547C360.753 144.831 361.486 137.917 361.486 131C361.486 124.082 360.753 117.169 359.308 110.452C357.899 103.906 355.797 97.4673 353.06 91.3142C350.372 85.2716 347.044 79.4433 343.17 73.991C339.332 68.5893 334.924 63.5095 330.069 58.8928C325.212 54.2752 319.868 50.0829 314.185 46.4323C308.447 42.7461 302.312 39.5801 295.951 37.0221C289.473 34.4165 282.693 32.4154 275.799 31.0742C268.726 29.6979 261.445 29 254.159 29C232.788 29 212.149 34.9523 194.472 46.2135C185.952 51.6418 178.295 58.1939 171.715 65.6878C165.094 73.2291 159.667 81.6069 155.585 90.5885L155.318 91.1747H154.674H103.399C93.8252 91.1747 84.5385 93.0495 75.7967 96.747C71.5951 98.5242 67.5425 100.724 63.7516 103.285C59.9964 105.822 56.4652 108.735 53.256 111.945C50.0468 115.154 47.1333 118.685 44.5963 122.44C42.0352 126.231 39.8355 130.284 38.0584 134.485C34.3609 143.227 32.4861 152.514 32.4861 162.087C32.4861 171.661 34.3609 180.948 38.0584 189.689C39.8355 193.891 42.0352 197.944 44.5963 201.735C47.1333 205.49 50.0468 209.021 53.256 212.23C56.4652 215.439 59.9964 218.353 63.7516 220.89C67.5425 223.451 71.5951 225.651 75.7967 227.428C84.5385 231.125 93.8252 233 103.399 233H240.923C242.846 233 244.79 232.922 246.7 232.768L246.772 232.762L246.844 232.767C249.264 232.922 251.725 233 254.159 233ZM254.159 234C251.679 234 249.218 233.921 246.78 233.765C244.85 233.92 242.894 234 240.923 234H103.399C63.6827 234 31.4861 201.803 31.4861 162.087C31.4861 122.371 63.6827 90.1747 103.399 90.1747H154.674C171.299 53.5954 209.584 28 254.159 28C313.986 28 362.486 74.1151 362.486 131C362.486 187.885 313.986 234 254.159 234Z" fill="white" fill-opacity="0.5"/>
</g>
</g>
<defs>
<filter id="filter0_f_6_1541" x="50.8496" y="139.914" width="201.308" height="161.286" filterUnits="userSpaceOnUse" color-interpolation-filters="sRGB">
<feFlood flood-opacity="0" result="BackgroundImageFix"/>
<feBlend mode="normal" in="SourceGraphic" in2="BackgroundImageFix" result="shape"/>
<feGaussianBlur stdDeviation="2" result="effect1_foregroundBlur_6_1541"/>
</filter>
<filter id="filter1_f_6_1541" x="254.342" y="190.295" width="101.904" height="105.538" filterUnits="userSpaceOnUse" color-interpolation-filters="sRGB">
<feFlood flood-opacity="0" result="BackgroundImageFix"/>
<feBlend mode="normal" in="SourceGraphic" in2="BackgroundImageFix" result="shape"/>
<feGaussianBlur stdDeviation="2" result="effect1_foregroundBlur_6_1541"/>
</filter>
<filter id="filter2_f_6_1541" x="9.99805" y="23.7432" width="159.92" height="160.815" filterUnits="userSpaceOnUse" color-interpolation-filters="sRGB">
<feFlood flood-opacity="0" result="BackgroundImageFix"/>
<feBlend mode="normal" in="SourceGraphic" in2="BackgroundImageFix" result="shape"/>
<feGaussianBlur stdDeviation="2" result="effect1_foregroundBlur_6_1541"/>
</filter>
<filter id="filter3_f_6_1541" x="1.39648" y="17.5596" width="112.591" height="109.886" filterUnits="userSpaceOnUse" color-interpolation-filters="sRGB">
<feFlood flood-opacity="0" result="BackgroundImageFix"/>
<feBlend mode="normal" in="SourceGraphic" in2="BackgroundImageFix" result="shape"/>
<feGaussianBlur stdDeviation="10" result="effect1_foregroundBlur_6_1541"/>
</filter>
<filter id="filter4_f_6_1541" x="0.558594" y="6" width="176.075" height="164.328" filterUnits="userSpaceOnUse" color-interpolation-filters="sRGB">
<feFlood flood-opacity="0" result="BackgroundImageFix"/>
<feBlend mode="normal" in="SourceGraphic" in2="BackgroundImageFix" result="shape"/>
<feGaussianBlur stdDeviation="1" result="effect1_foregroundBlur_6_1541"/>
</filter>
<filter id="filter5_df_6_1541" x="11.2178" y="0" width="391.269" height="266.001" filterUnits="userSpaceOnUse" color-interpolation-filters="sRGB">
<feFlood flood-opacity="0" result="BackgroundImageFix"/>
<feColorMatrix in="SourceAlpha" type="matrix" values="0 0 0 0 0 0 0 0 0 0 0 0 0 0 0 0 0 0 127 0" result="hardAlpha"/>
<feOffset dx="10" dy="2"/>
<feGaussianBlur stdDeviation="15"/>
<feColorMatrix type="matrix" values="0 0 0 0 0 0 0 0 0 0 0 0 0 0 0 0 0 0 0.25 0"/>
<feBlend mode="normal" in2="BackgroundImageFix" result="effect1_dropShadow_6_1541"/>
<feBlend mode="normal" in="SourceGraphic" in2="effect1_dropShadow_6_1541" result="shape"/>
<feGaussianBlur stdDeviation="2" result="effect2_foregroundBlur_6_1541"/>
</filter>
<filter id="filter6_d_6_1541" x="11.2178" y="0" width="391.269" height="266.001" filterUnits="userSpaceOnUse" color-interpolation-filters="sRGB">
<feFlood flood-opacity="0" result="BackgroundImageFix"/>
<feColorMatrix in="SourceAlpha" type="matrix" values="0 0 0 0 0 0 0 0 0 0 0 0 0 0 0 0 0 0 127 0" result="hardAlpha"/>
<feOffset dx="10" dy="2"/>
<feGaussianBlur stdDeviation="15"/>
<feColorMatrix type="matrix" values="0 0 0 0 0.501961 0 0 0 0 0.501961 0 0 0 0 0.501961 0 0 0 0.302 0"/>
<feBlend mode="normal" in2="BackgroundImageFix" result="effect1_dropShadow_6_1541"/>
<feBlend mode="normal" in="SourceGraphic" in2="effect1_dropShadow_6_1541" result="shape"/>
</filter>
<linearGradient id="paint0_linear_6_1541" x1="53.159" y1="8" x2="53.159" y2="25.178" gradientUnits="userSpaceOnUse">
<stop stop-color="#6B38FC"/>
<stop offset="1" stop-color="#9F7EFD"/>
</linearGradient>
<linearGradient id="paint1_linear_6_1541" x1="166.862" y1="154.422" x2="166.862" y2="168.328" gradientUnits="userSpaceOnUse">
<stop stop-color="#6B38FC"/>
<stop offset="1" stop-color="#9F7EFD"/>
</linearGradient>
<linearGradient id="paint2_linear_6_1541" x1="132.921" y1="27.522" x2="136.734" y2="41.7454" gradientUnits="userSpaceOnUse">
<stop stop-color="#6B38FC"/>
<stop offset="1" stop-color="#9F7EFD"/>
</linearGradient>
<linearGradient id="paint3_linear_6_1541" x1="7.15801" y1="143.021" x2="12.2754" y2="155.075" gradientUnits="userSpaceOnUse">
<stop stop-color="#6B38FC"/>
<stop offset="1" stop-color="#9F7EFD"/>
</linearGradient>
<linearGradient id="paint4_linear_6_1541" x1="129.597" y1="78.7366" x2="119.236" y2="76.3445" gradientUnits="userSpaceOnUse">
<stop stop-color="#6B38FC"/>
<stop offset="1" stop-color="#9F7EFD"/>
</linearGradient>
<linearGradient id="paint5_linear_6_1541" x1="165.381" y1="53.9561" x2="231.424" y2="245.168" gradientUnits="userSpaceOnUse">
<stop stop-color="white" stop-opacity="0.596"/>
<stop offset="1" stop-color="#F7F7F7" stop-opacity="0.204"/>
</linearGradient>
</defs>
</svg>
