<svg width="392" height="301" viewBox="0 0 392 301" fill="none" xmlns="http://www.w3.org/2000/svg">
<g filter="url(#filter0_f_6_1436)">
<path d="M114.461 212.283C114.461 212.283 172.044 215.395 197.58 207.983C223.116 200.571 223.08 162.083 197.58 152.591C172.08 143.099 163.362 177.016 163.362 177.016" stroke="#D0D0D0" stroke-width="16" stroke-linecap="round"/>
<path d="M39.4111 256.858C39.4111 256.858 125.965 249.038 164.123 256.858C202.281 264.678 190.131 287.113 172.047 288.138C153.963 289.163 137.276 277.281 137.276 277.281" stroke="#D0D0D0" stroke-width="16" stroke-linecap="round"/>
</g>
<g filter="url(#filter1_f_6_1436)">
<path d="M306.566 232.122C308.246 232.141 325.295 258.76 325.295 269.103C325.295 271.563 324.811 273.998 323.87 276.27C322.929 278.543 321.549 280.607 319.81 282.347C316.298 285.859 311.534 287.832 306.567 287.833C301.599 287.833 296.836 285.86 293.323 282.347C289.811 278.835 287.837 274.071 287.837 269.104C287.837 258.76 304.886 232.104 306.566 232.122Z" fill="#42A0F0"/>
<path d="M292.286 276.106C294.157 276.678 296.536 274.324 297.598 270.848C298.661 267.372 298.006 264.091 296.134 263.519C294.263 262.947 291.885 265.301 290.822 268.776C289.759 272.252 290.415 275.534 292.286 276.106Z" fill="white"/>
<path d="M250.791 190.295C252.531 190.314 270.191 217.883 270.191 228.595C270.191 233.74 268.147 238.675 264.509 242.313C260.871 245.951 255.936 247.995 250.791 247.995C245.646 247.995 240.711 245.951 237.073 242.313C233.435 238.675 231.391 233.74 231.391 228.595C231.391 217.883 249.048 190.276 250.791 190.295Z" fill="#42A0F0"/>
<path d="M236 235.846C237.938 236.439 240.401 234.001 241.502 230.402C242.602 226.803 241.923 223.404 239.985 222.812C238.046 222.219 235.583 224.657 234.483 228.256C233.382 231.855 234.061 235.254 236 235.846Z" fill="white"/>
</g>
<g filter="url(#filter2_df_6_1436)">
<g filter="url(#filter3_d_6_1436)">
<path d="M235.562 233.765C233.629 233.92 231.676 233.999 229.705 234H92.1812C82.7149 234.035 73.3348 232.201 64.579 228.603C55.8232 225.005 47.8639 219.714 41.1577 213.032C34.4516 206.351 29.1305 198.412 25.4997 189.669C21.869 180.927 20 171.554 20 162.087C20 152.621 21.869 143.248 25.4997 134.506C29.1305 125.763 34.4516 117.824 41.1577 111.143C47.8639 104.461 55.8232 99.17 64.579 95.5718C73.3348 91.9737 82.7149 90.1397 92.1812 90.175H143.456C160.08 53.6 198.368 28 242.941 28C302.768 28 351.268 74.115 351.268 131C351.268 187.885 302.768 234 242.941 234C240.461 234 238.001 233.922 235.562 233.765Z" fill="url(#paint0_linear_6_1436)"/>
<path d="M242.941 233C250.227 233 257.508 232.302 264.582 230.926C271.475 229.585 278.255 227.584 284.734 224.978C291.094 222.42 297.229 219.254 302.967 215.568C308.651 211.917 313.995 207.725 318.851 203.107C323.707 198.49 328.115 193.411 331.953 188.009C335.827 182.557 339.154 176.728 341.842 170.686C344.579 164.532 346.681 158.093 348.09 151.547C349.536 144.831 350.269 137.917 350.269 131C350.269 124.082 349.536 117.169 348.09 110.452C346.681 103.906 344.579 97.4673 341.842 91.3142C339.154 85.2716 335.827 79.4433 331.953 73.991C328.115 68.5893 323.707 63.5095 318.851 58.8928C313.995 54.2752 308.651 50.0829 302.967 46.4323C297.229 42.7461 291.094 39.5801 284.734 37.0221C278.255 34.4165 271.475 32.4154 264.582 31.0742C257.508 29.6979 250.227 29 242.941 29C221.57 29 200.931 34.9523 183.254 46.2135C174.734 51.6418 167.077 58.1939 160.497 65.6878C153.875 73.2291 148.448 81.6069 144.366 90.5885L144.1 91.1747H143.456H92.181C82.6074 91.1747 73.3208 93.0495 64.5789 96.747C60.3773 98.5242 56.3247 100.724 52.5338 103.285C48.7786 105.822 45.2474 108.735 42.0382 111.945C38.829 115.154 35.9155 118.685 33.3785 122.44C30.8174 126.231 28.6178 130.284 26.8406 134.485C23.1431 143.227 21.2683 152.514 21.2683 162.087C21.2683 171.661 23.1431 180.948 26.8406 189.689C28.6178 193.891 30.8174 197.944 33.3785 201.735C35.9155 205.49 38.829 209.021 42.0382 212.23C45.2474 215.439 48.7786 218.353 52.5338 220.89C56.3247 223.451 60.3773 225.651 64.5789 227.428C73.3208 231.125 82.6074 233 92.181 233H229.706C231.628 233 233.572 232.922 235.482 232.768L235.554 232.762L235.627 232.767C238.046 232.922 240.507 233 242.941 233ZM242.941 234C240.461 234 238.001 233.921 235.563 233.765C233.632 233.92 231.676 234 229.706 234H92.181C52.4649 234 20.2683 201.803 20.2683 162.087C20.2683 122.371 52.4649 90.1747 92.181 90.1747H143.456C160.081 53.5954 198.366 28 242.941 28C302.768 28 351.269 74.1151 351.269 131C351.269 187.885 302.768 234 242.941 234Z" fill="white" fill-opacity="0.5"/>
</g>
</g>
<defs>
<filter id="filter0_f_6_1436" x="27.4106" y="138.915" width="201.308" height="161.286" filterUnits="userSpaceOnUse" color-interpolation-filters="sRGB">
<feFlood flood-opacity="0" result="BackgroundImageFix"/>
<feBlend mode="normal" in="SourceGraphic" in2="BackgroundImageFix" result="shape"/>
<feGaussianBlur stdDeviation="2" result="effect1_foregroundBlur_6_1436"/>
</filter>
<filter id="filter1_f_6_1436" x="227.391" y="186.295" width="101.904" height="105.538" filterUnits="userSpaceOnUse" color-interpolation-filters="sRGB">
<feFlood flood-opacity="0" result="BackgroundImageFix"/>
<feBlend mode="normal" in="SourceGraphic" in2="BackgroundImageFix" result="shape"/>
<feGaussianBlur stdDeviation="2" result="effect1_foregroundBlur_6_1436"/>
</filter>
<filter id="filter2_df_6_1436" x="0" y="0" width="391.269" height="266" filterUnits="userSpaceOnUse" color-interpolation-filters="sRGB">
<feFlood flood-opacity="0" result="BackgroundImageFix"/>
<feColorMatrix in="SourceAlpha" type="matrix" values="0 0 0 0 0 0 0 0 0 0 0 0 0 0 0 0 0 0 127 0" result="hardAlpha"/>
<feOffset dx="10" dy="2"/>
<feGaussianBlur stdDeviation="15"/>
<feColorMatrix type="matrix" values="0 0 0 0 0 0 0 0 0 0 0 0 0 0 0 0 0 0 0.25 0"/>
<feBlend mode="normal" in2="BackgroundImageFix" result="effect1_dropShadow_6_1436"/>
<feBlend mode="normal" in="SourceGraphic" in2="effect1_dropShadow_6_1436" result="shape"/>
<feGaussianBlur stdDeviation="2" result="effect2_foregroundBlur_6_1436"/>
</filter>
<filter id="filter3_d_6_1436" x="0" y="0" width="391.269" height="266" filterUnits="userSpaceOnUse" color-interpolation-filters="sRGB">
<feFlood flood-opacity="0" result="BackgroundImageFix"/>
<feColorMatrix in="SourceAlpha" type="matrix" values="0 0 0 0 0 0 0 0 0 0 0 0 0 0 0 0 0 0 127 0" result="hardAlpha"/>
<feOffset dx="10" dy="2"/>
<feGaussianBlur stdDeviation="15"/>
<feColorMatrix type="matrix" values="0 0 0 0 0.501961 0 0 0 0 0.501961 0 0 0 0 0.501961 0 0 0 0.302 0"/>
<feBlend mode="normal" in2="BackgroundImageFix" result="effect1_dropShadow_6_1436"/>
<feBlend mode="normal" in="SourceGraphic" in2="effect1_dropShadow_6_1436" result="shape"/>
</filter>
<linearGradient id="paint0_linear_6_1436" x1="154.164" y1="53.9561" x2="220.206" y2="245.168" gradientUnits="userSpaceOnUse">
<stop stop-color="white" stop-opacity="0.596"/>
<stop offset="1" stop-color="#F7F7F7" stop-opacity="0.204"/>
</linearGradient>
</defs>
</svg>
