<svg width="392" height="343" viewBox="0 0 392 343" fill="none" xmlns="http://www.w3.org/2000/svg">
<g filter="url(#filter0_f_6_1504)">
<path d="M124.034 211.833C124.563 212.317 113.494 236.125 107.062 243.524C100.63 250.923 92.7212 254.574 89.3944 251.682C86.0677 248.79 88.5814 240.451 95.0141 233.051C101.447 225.651 123.506 211.35 124.034 211.833Z" fill="#42A0F0"/>
<path d="M96.1591 238.022C96.8053 239.056 99.0423 238.824 101.156 237.503C103.269 236.183 104.458 234.274 103.812 233.24C103.166 232.206 100.929 232.438 98.8155 233.758C96.7022 235.079 95.5129 236.988 96.1591 238.022Z" fill="white"/>
<path d="M192.034 211.833C192.563 212.317 181.494 236.125 175.062 243.524C168.63 250.923 160.721 254.574 157.394 251.682C154.068 248.79 156.581 240.451 163.014 233.051C169.447 225.651 191.506 211.35 192.034 211.833Z" fill="#42A0F0"/>
<path d="M164.159 238.022C164.805 239.056 167.042 238.824 169.156 237.503C171.269 236.183 172.458 234.274 171.812 233.24C171.166 232.206 168.929 232.438 166.815 233.758C164.702 235.079 163.513 236.988 164.159 238.022Z" fill="white"/>
<path d="M200.034 261.833C200.563 262.317 189.494 286.125 183.062 293.524C176.63 300.923 168.721 304.574 165.394 301.682C162.068 298.79 164.581 290.451 171.014 283.051C177.447 275.651 199.506 261.35 200.034 261.833Z" fill="#42A0F0"/>
<path d="M172.159 288.022C172.805 289.056 175.042 288.824 177.156 287.503C179.269 286.183 180.458 284.274 179.812 283.24C179.166 282.206 176.929 282.438 174.815 283.758C172.702 285.079 171.513 286.988 172.159 288.022Z" fill="white"/>
<path d="M283.034 261.833C283.563 262.317 272.494 286.125 266.062 293.524C259.63 300.923 251.721 304.574 248.394 301.682C245.068 298.79 247.581 290.451 254.014 283.051C260.447 275.651 282.506 261.35 283.034 261.833Z" fill="#42A0F0"/>
<path d="M255.159 288.022C255.805 289.056 258.042 288.824 260.156 287.503C262.269 286.183 263.458 284.274 262.812 283.24C262.166 282.206 259.929 282.438 257.815 283.758C255.702 285.079 254.513 286.988 255.159 288.022Z" fill="white"/>
<path d="M223.034 297.833C223.563 298.317 212.494 322.125 206.062 329.524C199.63 336.923 191.721 340.574 188.394 337.682C185.068 334.79 187.581 326.451 194.014 319.051C200.447 311.651 222.506 297.35 223.034 297.833Z" fill="#42A0F0"/>
<path d="M195.159 324.022C195.805 325.056 198.042 324.824 200.156 323.503C202.269 322.183 203.458 320.274 202.812 319.24C202.166 318.206 199.929 318.438 197.815 319.758C195.702 321.079 194.513 322.988 195.159 324.022Z" fill="white"/>
<path d="M147.034 297.833C147.563 298.317 136.494 322.125 130.062 329.524C123.63 336.923 115.721 340.574 112.394 337.682C109.068 334.79 111.581 326.451 118.014 319.051C124.447 311.651 146.506 297.35 147.034 297.833Z" fill="#42A0F0"/>
<path d="M119.159 324.022C119.805 325.056 122.042 324.824 124.156 323.503C126.269 322.183 127.458 320.274 126.812 319.24C126.166 318.206 123.929 318.438 121.815 319.758C119.702 321.079 118.513 322.988 119.159 324.022Z" fill="white"/>
</g>
<path d="M113.767 254.557H134.317L122.503 271.905L136.316 272.167L107.328 306.481L114.348 280.319H101.488L113.767 254.557Z" fill="url(#paint0_linear_6_1504)"/>
<path d="M233.767 223.557H254.317L242.503 240.905L256.316 241.167L227.328 275.481L234.348 249.319H221.488L233.767 223.557Z" fill="url(#paint1_linear_6_1504)"/>
<g filter="url(#filter1_f_6_1504)">
<path d="M129.245 171C169.838 171 202.745 138.093 202.745 97.5C202.745 56.9071 169.838 24 129.245 24C88.6522 24 55.7451 56.9071 55.7451 97.5C55.7451 138.093 88.6522 171 129.245 171Z" fill="#FA9E42"/>
</g>
<g filter="url(#filter2_f_6_1504)">
<path d="M129.245 188C179.227 188 219.745 147.482 219.745 97.5C219.745 47.5182 179.227 7 129.245 7C79.2633 7 38.7451 47.5182 38.7451 97.5C38.7451 147.482 79.2633 188 129.245 188Z" stroke="#FA9E42" stroke-width="10" stroke-linecap="round" stroke-dasharray="1 66"/>
</g>
<path d="M121.393 82.824C147.135 69.151 161.697 46.1934 153.918 31.5468C146.138 16.9002 118.964 16.1109 93.221 29.7839C67.4785 43.4569 52.9166 66.4144 60.6961 81.061C68.4755 95.7076 95.6504 96.4969 121.393 82.824Z" fill="#F8E36F"/>
<g filter="url(#filter3_df_6_1504)">
<g filter="url(#filter4_d_6_1504)">
<path d="M235.562 242.765C233.629 242.92 231.676 242.999 229.705 243H92.1812C82.7149 243.035 73.3348 241.201 64.579 237.603C55.8232 234.005 47.8639 228.714 41.1577 222.032C34.4516 215.351 29.1305 207.412 25.4997 198.669C21.869 189.927 20 180.554 20 171.087C20 161.621 21.869 152.248 25.4997 143.506C29.1305 134.763 34.4516 126.824 41.1577 120.143C47.8639 113.461 55.8232 108.17 64.579 104.572C73.3348 100.974 82.7149 99.1397 92.1812 99.175H143.457C160.081 62.6 198.368 37 242.941 37C302.768 37 351.268 83.115 351.268 140C351.268 196.885 302.768 243 242.941 243C240.461 243 238.001 242.922 235.562 242.765Z" fill="url(#paint2_linear_6_1504)"/>
<path d="M242.941 242C250.227 242 257.508 241.302 264.582 239.926C271.475 238.585 278.255 236.584 284.734 233.978C291.094 231.42 297.229 228.254 302.967 224.568C308.651 220.917 313.995 216.725 318.851 212.107C323.707 207.49 328.115 202.411 331.953 197.009C335.827 191.557 339.154 185.728 341.842 179.686C344.579 173.532 346.681 167.093 348.09 160.547C349.536 153.831 350.269 146.917 350.269 140C350.269 133.082 349.536 126.169 348.09 119.452C346.681 112.906 344.579 106.467 341.842 100.314C339.154 94.2716 335.827 88.4433 331.953 82.991C328.115 77.5893 323.707 72.5095 318.851 67.8928C313.995 63.2752 308.651 59.0829 302.967 55.4323C297.229 51.7461 291.094 48.5801 284.734 46.0221C278.255 43.4165 271.475 41.4154 264.582 40.0742C257.508 38.6979 250.227 38 242.941 38C221.57 38 200.931 43.9523 183.255 55.2135C174.734 60.6418 167.078 67.1939 160.498 74.6878C153.876 82.2291 148.449 90.6069 144.367 99.5885L144.101 100.175H143.457H92.181C82.6074 100.175 73.3208 102.049 64.5789 105.747C60.3773 107.524 56.3247 109.724 52.5338 112.285C48.7786 114.822 45.2474 117.735 42.0382 120.945C38.829 124.154 35.9155 127.685 33.3785 131.44C30.8174 135.231 28.6178 139.284 26.8406 143.485C23.1431 152.227 21.2683 161.514 21.2683 171.087C21.2683 180.661 23.1431 189.948 26.8406 198.689C28.6178 202.891 30.8174 206.944 33.3785 210.735C35.9155 214.49 38.829 218.021 42.0382 221.23C45.2474 224.439 48.7786 227.353 52.5338 229.89C56.3247 232.451 60.3773 234.651 64.5789 236.428C73.3208 240.125 82.6074 242 92.181 242H229.706C231.628 242 233.572 241.922 235.482 241.768L235.554 241.762L235.627 241.767C238.046 241.922 240.507 242 242.941 242ZM242.941 243C240.461 243 238.001 242.921 235.563 242.765C233.632 242.92 231.676 243 229.706 243H92.181C52.4649 243 20.2683 210.803 20.2683 171.087C20.2683 131.371 52.4649 99.1747 92.181 99.1747H143.457C160.081 62.5954 198.366 37 242.941 37C302.768 37 351.269 83.1151 351.269 140C351.269 196.885 302.768 243 242.941 243Z" fill="white" fill-opacity="0.5"/>
</g>
</g>
<defs>
<filter id="filter0_f_6_1504" x="83.9253" y="207.821" width="203.127" height="134.852" filterUnits="userSpaceOnUse" color-interpolation-filters="sRGB">
<feFlood flood-opacity="0" result="BackgroundImageFix"/>
<feBlend mode="normal" in="SourceGraphic" in2="BackgroundImageFix" result="shape"/>
<feGaussianBlur stdDeviation="2" result="effect1_foregroundBlur_6_1504"/>
</filter>
<filter id="filter1_f_6_1504" x="51.7451" y="20" width="155" height="155" filterUnits="userSpaceOnUse" color-interpolation-filters="sRGB">
<feFlood flood-opacity="0" result="BackgroundImageFix"/>
<feBlend mode="normal" in="SourceGraphic" in2="BackgroundImageFix" result="shape"/>
<feGaussianBlur stdDeviation="2" result="effect1_foregroundBlur_6_1504"/>
</filter>
<filter id="filter2_f_6_1504" x="31.7451" y="0" width="195" height="195" filterUnits="userSpaceOnUse" color-interpolation-filters="sRGB">
<feFlood flood-opacity="0" result="BackgroundImageFix"/>
<feBlend mode="normal" in="SourceGraphic" in2="BackgroundImageFix" result="shape"/>
<feGaussianBlur stdDeviation="1" result="effect1_foregroundBlur_6_1504"/>
</filter>
<filter id="filter3_df_6_1504" x="0" y="9" width="391.269" height="266.001" filterUnits="userSpaceOnUse" color-interpolation-filters="sRGB">
<feFlood flood-opacity="0" result="BackgroundImageFix"/>
<feColorMatrix in="SourceAlpha" type="matrix" values="0 0 0 0 0 0 0 0 0 0 0 0 0 0 0 0 0 0 127 0" result="hardAlpha"/>
<feOffset dx="10" dy="2"/>
<feGaussianBlur stdDeviation="15"/>
<feColorMatrix type="matrix" values="0 0 0 0 0 0 0 0 0 0 0 0 0 0 0 0 0 0 0.25 0"/>
<feBlend mode="normal" in2="BackgroundImageFix" result="effect1_dropShadow_6_1504"/>
<feBlend mode="normal" in="SourceGraphic" in2="effect1_dropShadow_6_1504" result="shape"/>
<feGaussianBlur stdDeviation="2" result="effect2_foregroundBlur_6_1504"/>
</filter>
<filter id="filter4_d_6_1504" x="0" y="9" width="391.269" height="266.001" filterUnits="userSpaceOnUse" color-interpolation-filters="sRGB">
<feFlood flood-opacity="0" result="BackgroundImageFix"/>
<feColorMatrix in="SourceAlpha" type="matrix" values="0 0 0 0 0 0 0 0 0 0 0 0 0 0 0 0 0 0 127 0" result="hardAlpha"/>
<feOffset dx="10" dy="2"/>
<feGaussianBlur stdDeviation="15"/>
<feColorMatrix type="matrix" values="0 0 0 0 0.501961 0 0 0 0 0.501961 0 0 0 0 0.501961 0 0 0 0.302 0"/>
<feBlend mode="normal" in2="BackgroundImageFix" result="effect1_dropShadow_6_1504"/>
<feBlend mode="normal" in="SourceGraphic" in2="effect1_dropShadow_6_1504" result="shape"/>
</filter>
<linearGradient id="paint0_linear_6_1504" x1="115.698" y1="280.519" x2="99.4298" y2="274.555" gradientUnits="userSpaceOnUse">
<stop stop-color="#FFD100"/>
<stop offset="1" stop-color="#FFF0AA"/>
</linearGradient>
<linearGradient id="paint1_linear_6_1504" x1="235.698" y1="249.519" x2="219.43" y2="243.555" gradientUnits="userSpaceOnUse">
<stop stop-color="#FFD100"/>
<stop offset="1" stop-color="#FFF0AA"/>
</linearGradient>
<linearGradient id="paint2_linear_6_1504" x1="154.164" y1="62.9561" x2="220.206" y2="254.168" gradientUnits="userSpaceOnUse">
<stop stop-color="white" stop-opacity="0.596"/>
<stop offset="1" stop-color="#F7F7F7" stop-opacity="0.204"/>
</linearGradient>
</defs>
</svg>
