<svg width="392" height="328" viewBox="0 0 392 328" fill="none" xmlns="http://www.w3.org/2000/svg">
<g filter="url(#filter0_f_6_573)">
<path d="M126.355 232.835C126.884 233.318 115.815 257.126 109.383 264.526C102.951 271.925 95.042 275.575 91.7152 272.683C88.3885 269.792 90.9022 261.452 97.3349 254.052C103.768 246.652 125.827 232.351 126.355 232.835Z" fill="#42A0F0"/>
<path d="M98.4797 259.023C99.1259 260.057 101.363 259.825 103.476 258.505C105.589 257.184 106.779 255.275 106.132 254.241C105.486 253.207 103.249 253.439 101.136 254.76C99.0228 256.08 97.8335 257.989 98.4797 259.023Z" fill="white"/>
<path d="M194.355 232.835C194.884 233.318 183.815 257.126 177.383 264.526C170.951 271.925 163.042 275.575 159.715 272.683C156.388 269.792 158.902 261.452 165.335 254.052C171.768 246.652 193.827 232.351 194.355 232.835Z" fill="#42A0F0"/>
<path d="M166.48 259.023C167.126 260.057 169.363 259.825 171.476 258.505C173.589 257.184 174.779 255.275 174.132 254.241C173.486 253.207 171.249 253.439 169.136 254.76C167.023 256.08 165.833 257.989 166.48 259.023Z" fill="white"/>
<path d="M262.355 232.835C262.884 233.318 251.815 257.126 245.383 264.526C238.951 271.925 231.042 275.575 227.715 272.683C224.388 269.792 226.902 261.452 233.335 254.052C239.768 246.652 261.827 232.351 262.355 232.835Z" fill="#42A0F0"/>
<path d="M234.48 259.023C235.126 260.057 237.363 259.825 239.476 258.505C241.589 257.184 242.779 255.275 242.132 254.241C241.486 253.207 239.249 253.439 237.136 254.76C235.023 256.08 233.833 257.989 234.48 259.023Z" fill="white"/>
<path d="M202.355 282.835C202.884 283.318 191.815 307.126 185.383 314.526C178.951 321.925 171.042 325.575 167.715 322.683C164.388 319.792 166.902 311.452 173.335 304.052C179.768 296.652 201.827 282.351 202.355 282.835Z" fill="#42A0F0"/>
<path d="M174.48 309.023C175.126 310.057 177.363 309.825 179.476 308.505C181.589 307.184 182.779 305.275 182.132 304.241C181.486 303.207 179.249 303.439 177.136 304.76C175.023 306.08 173.833 307.989 174.48 309.023Z" fill="white"/>
<path d="M126.355 282.835C126.884 283.318 115.815 307.126 109.383 314.526C102.951 321.925 95.042 325.575 91.7152 322.683C88.3885 319.792 90.9022 311.452 97.3349 304.052C103.768 296.652 125.827 282.351 126.355 282.835Z" fill="#42A0F0"/>
<path d="M98.4797 309.023C99.1259 310.057 101.363 309.825 103.476 308.505C105.589 307.184 106.779 305.275 106.132 304.241C105.486 303.207 103.249 303.439 101.136 304.76C99.0228 306.08 97.8335 307.989 98.4797 309.023Z" fill="white"/>
</g>
<g filter="url(#filter1_f_6_573)">
<path d="M115.5 171C156.093 171 189 138.093 189 97.5C189 56.9071 156.093 24 115.5 24C74.9071 24 42 56.9071 42 97.5C42 138.093 74.9071 171 115.5 171Z" fill="#FA9E42"/>
</g>
<g filter="url(#filter2_f_6_573)">
<path d="M115.5 188C165.482 188 206 147.482 206 97.5C206 47.5182 165.482 7 115.5 7C65.5182 7 25 47.5182 25 97.5C25 147.482 65.5182 188 115.5 188Z" stroke="#FA9E42" stroke-width="10" stroke-linecap="round" stroke-dasharray="1 66"/>
</g>
<g filter="url(#filter3_f_6_573)">
<path d="M107.713 82.824C133.455 69.151 148.017 46.1934 140.238 31.5468C132.459 16.9002 105.284 16.1109 79.5411 29.7839C53.7986 43.4569 39.2367 66.4144 47.0161 81.061C54.7956 95.7076 81.9705 96.4969 107.713 82.824Z" fill="#F8E36F"/>
</g>
<g filter="url(#filter4_df_6_573)">
<g filter="url(#filter5_d_6_573)">
<path d="M235.882 259.765C233.949 259.92 231.996 259.999 230.025 260H92.501C83.0347 260.035 73.6547 258.201 64.8988 254.603C56.143 251.005 48.1837 245.714 41.4776 239.032C34.7714 232.351 29.4503 224.412 25.8196 215.669C22.1888 206.927 20.3198 197.554 20.3198 188.087C20.3198 178.621 22.1888 169.248 25.8196 160.506C29.4503 151.763 34.7714 143.824 41.4776 137.143C48.1837 130.461 56.143 125.17 64.8988 121.572C73.6547 117.974 83.0347 116.14 92.501 116.175H143.777C160.401 79.6 198.688 54 243.261 54C303.088 54 351.588 100.115 351.588 157C351.588 213.885 303.088 260 243.261 260C240.781 260 238.321 259.922 235.882 259.765Z" fill="url(#paint0_linear_6_573)"/>
<path d="M243.26 259C250.546 259 257.827 258.302 264.901 256.926C271.794 255.585 278.574 253.584 285.053 250.978C291.414 248.42 297.549 245.254 303.287 241.568C308.97 237.917 314.314 233.725 319.171 229.107C324.026 224.49 328.434 219.411 332.272 214.009C336.146 208.557 339.473 202.728 342.161 196.686C344.899 190.532 347.001 184.093 348.41 177.547C349.855 170.831 350.588 163.917 350.588 157C350.588 150.082 349.855 143.169 348.41 136.452C347.001 129.906 344.899 123.467 342.161 117.314C339.473 111.272 336.146 105.443 332.272 99.991C328.434 94.5893 324.026 89.5095 319.171 84.8928C314.314 80.2752 308.97 76.0829 303.287 72.4323C297.549 68.7461 291.414 65.5801 285.053 63.0221C278.574 60.4165 271.794 58.4154 264.901 57.0742C257.827 55.6979 250.546 55 243.26 55C221.89 55 201.25 60.9523 183.574 72.2135C175.054 77.6418 167.397 84.1939 160.817 91.6878C154.196 99.2291 148.769 107.607 144.687 116.588L144.42 117.175H143.776H92.5006C82.927 117.175 73.6404 119.049 64.8985 122.747C60.6969 124.524 56.6443 126.724 52.8534 129.285C49.0982 131.822 45.567 134.735 42.3578 137.945C39.1486 141.154 36.2351 144.685 33.6981 148.44C31.137 152.231 28.9373 156.284 27.1602 160.485C23.4627 169.227 21.5879 178.514 21.5879 188.087C21.5879 197.661 23.4627 206.948 27.1602 215.689C28.9373 219.891 31.137 223.944 33.6981 227.735C36.2351 231.49 39.1486 235.021 42.3578 238.23C45.567 241.439 49.0982 244.353 52.8534 246.89C56.6443 249.451 60.6969 251.651 64.8985 253.428C73.6404 257.125 82.927 259 92.5006 259H230.025C231.948 259 233.892 258.922 235.802 258.768L235.874 258.762L235.946 258.767C238.366 258.922 240.826 259 243.26 259ZM243.26 260C240.781 260 238.32 259.921 235.882 259.765C233.952 259.92 231.996 260 230.025 260H92.5006C52.7845 260 20.5879 227.803 20.5879 188.087C20.5879 148.371 52.7845 116.175 92.5006 116.175H143.776C160.401 79.5954 198.686 54 243.26 54C303.088 54 351.588 100.115 351.588 157C351.588 213.885 303.088 260 243.26 260Z" fill="white" fill-opacity="0.5"/>
</g>
</g>
<defs>
<filter id="filter0_f_6_573" x="86.2461" y="228.823" width="180.127" height="98.8521" filterUnits="userSpaceOnUse" color-interpolation-filters="sRGB">
<feFlood flood-opacity="0" result="BackgroundImageFix"/>
<feBlend mode="normal" in="SourceGraphic" in2="BackgroundImageFix" result="shape"/>
<feGaussianBlur stdDeviation="2" result="effect1_foregroundBlur_6_573"/>
</filter>
<filter id="filter1_f_6_573" x="38" y="20" width="155" height="155" filterUnits="userSpaceOnUse" color-interpolation-filters="sRGB">
<feFlood flood-opacity="0" result="BackgroundImageFix"/>
<feBlend mode="normal" in="SourceGraphic" in2="BackgroundImageFix" result="shape"/>
<feGaussianBlur stdDeviation="2" result="effect1_foregroundBlur_6_573"/>
</filter>
<filter id="filter2_f_6_573" x="18" y="0" width="195" height="195" filterUnits="userSpaceOnUse" color-interpolation-filters="sRGB">
<feFlood flood-opacity="0" result="BackgroundImageFix"/>
<feBlend mode="normal" in="SourceGraphic" in2="BackgroundImageFix" result="shape"/>
<feGaussianBlur stdDeviation="1" result="effect1_foregroundBlur_6_573"/>
</filter>
<filter id="filter3_f_6_573" x="24.9214" y="0.0239258" width="137.411" height="112.56" filterUnits="userSpaceOnUse" color-interpolation-filters="sRGB">
<feFlood flood-opacity="0" result="BackgroundImageFix"/>
<feBlend mode="normal" in="SourceGraphic" in2="BackgroundImageFix" result="shape"/>
<feGaussianBlur stdDeviation="10" result="effect1_foregroundBlur_6_573"/>
</filter>
<filter id="filter4_df_6_573" x="0.319824" y="26" width="391.268" height="266" filterUnits="userSpaceOnUse" color-interpolation-filters="sRGB">
<feFlood flood-opacity="0" result="BackgroundImageFix"/>
<feColorMatrix in="SourceAlpha" type="matrix" values="0 0 0 0 0 0 0 0 0 0 0 0 0 0 0 0 0 0 127 0" result="hardAlpha"/>
<feOffset dx="10" dy="2"/>
<feGaussianBlur stdDeviation="15"/>
<feColorMatrix type="matrix" values="0 0 0 0 0 0 0 0 0 0 0 0 0 0 0 0 0 0 0.25 0"/>
<feBlend mode="normal" in2="BackgroundImageFix" result="effect1_dropShadow_6_573"/>
<feBlend mode="normal" in="SourceGraphic" in2="effect1_dropShadow_6_573" result="shape"/>
<feGaussianBlur stdDeviation="2" result="effect2_foregroundBlur_6_573"/>
</filter>
<filter id="filter5_d_6_573" x="0.319824" y="26" width="391.268" height="266" filterUnits="userSpaceOnUse" color-interpolation-filters="sRGB">
<feFlood flood-opacity="0" result="BackgroundImageFix"/>
<feColorMatrix in="SourceAlpha" type="matrix" values="0 0 0 0 0 0 0 0 0 0 0 0 0 0 0 0 0 0 127 0" result="hardAlpha"/>
<feOffset dx="10" dy="2"/>
<feGaussianBlur stdDeviation="15"/>
<feColorMatrix type="matrix" values="0 0 0 0 0.501961 0 0 0 0 0.501961 0 0 0 0 0.501961 0 0 0 0.302 0"/>
<feBlend mode="normal" in2="BackgroundImageFix" result="effect1_dropShadow_6_573"/>
<feBlend mode="normal" in="SourceGraphic" in2="effect1_dropShadow_6_573" result="shape"/>
</filter>
<linearGradient id="paint0_linear_6_573" x1="154.483" y1="79.9561" x2="220.526" y2="271.168" gradientUnits="userSpaceOnUse">
<stop stop-color="white" stop-opacity="0.596"/>
<stop offset="1" stop-color="#F7F7F7" stop-opacity="0.204"/>
</linearGradient>
</defs>
</svg>
