<svg width="224" height="207" viewBox="0 0 224 207" fill="none" xmlns="http://www.w3.org/2000/svg">
<g filter="url(#filter0_f_2_883)">
<path d="M182.339 124V200.792" stroke="#42A0F0" stroke-width="6" stroke-linecap="round"/>
<path d="M182.185 142.771L195.41 129.119" stroke="#42A0F0" stroke-width="6" stroke-linecap="round"/>
<path d="M182.185 142.771L168.533 129.119" stroke="#42A0F0" stroke-width="6" stroke-linecap="round"/>
<path d="M182.185 183.727L195.41 197.379" stroke="#42A0F0" stroke-width="6" stroke-linecap="round"/>
<path d="M182.185 183.727L168.533 197.379" stroke="#42A0F0" stroke-width="6" stroke-linecap="round"/>
<path d="M215.407 143.517L148.904 181.913" stroke="#42A0F0" stroke-width="6" stroke-linecap="round"/>
<path d="M199.074 152.768L217.51 157.396" stroke="#42A0F0" stroke-width="6" stroke-linecap="round"/>
<path d="M199.074 152.769L204.071 134.12" stroke="#42A0F0" stroke-width="6" stroke-linecap="round"/>
<path d="M163.605 173.246L158.395 191.525" stroke="#42A0F0" stroke-width="6" stroke-linecap="round"/>
<path d="M163.605 173.246L144.956 168.249" stroke="#42A0F0" stroke-width="6" stroke-linecap="round"/>
<path d="M215.039 181.913L148.535 143.517" stroke="#42A0F0" stroke-width="6" stroke-linecap="round"/>
<path d="M198.86 172.393L204.071 190.672" stroke="#42A0F0" stroke-width="6" stroke-linecap="round"/>
<path d="M198.86 172.393L217.509 167.396" stroke="#42A0F0" stroke-width="6" stroke-linecap="round"/>
<path d="M163.391 151.916L144.956 156.543" stroke="#42A0F0" stroke-width="6" stroke-linecap="round"/>
<path d="M163.391 151.916L158.394 133.267" stroke="#42A0F0" stroke-width="6" stroke-linecap="round"/>
<path d="M108.339 6V82.792" stroke="#42A0F0" stroke-width="6" stroke-linecap="round"/>
<path d="M108.185 24.7711L121.41 11.1191" stroke="#42A0F0" stroke-width="6" stroke-linecap="round"/>
<path d="M108.185 24.7711L94.5332 11.1191" stroke="#42A0F0" stroke-width="6" stroke-linecap="round"/>
<path d="M108.185 65.7271L121.41 79.3791" stroke="#42A0F0" stroke-width="6" stroke-linecap="round"/>
<path d="M108.185 65.7271L94.5332 79.3791" stroke="#42A0F0" stroke-width="6" stroke-linecap="round"/>
<path d="M141.407 25.5166L74.9036 63.9126" stroke="#42A0F0" stroke-width="6" stroke-linecap="round"/>
<path d="M125.074 34.7684L143.51 39.3956" stroke="#42A0F0" stroke-width="6" stroke-linecap="round"/>
<path d="M125.074 34.7686L130.071 16.1196" stroke="#42A0F0" stroke-width="6" stroke-linecap="round"/>
<path d="M89.6052 55.2461L84.3947 73.5253" stroke="#42A0F0" stroke-width="6" stroke-linecap="round"/>
<path d="M89.6053 55.2463L70.9563 50.2493" stroke="#42A0F0" stroke-width="6" stroke-linecap="round"/>
<path d="M141.039 63.9126L74.5355 25.5166" stroke="#42A0F0" stroke-width="6" stroke-linecap="round"/>
<path d="M124.86 54.3932L130.071 72.6724" stroke="#42A0F0" stroke-width="6" stroke-linecap="round"/>
<path d="M124.86 54.3935L143.509 49.3965" stroke="#42A0F0" stroke-width="6" stroke-linecap="round"/>
<path d="M89.3914 33.9155L70.9559 38.5427" stroke="#42A0F0" stroke-width="6" stroke-linecap="round"/>
<path d="M89.3913 33.9158L84.3943 15.2668" stroke="#42A0F0" stroke-width="6" stroke-linecap="round"/>
<path d="M44.3391 124L44.3391 200.792" stroke="#42A0F0" stroke-width="6" stroke-linecap="round"/>
<path d="M44.1853 142.771L57.4103 129.119" stroke="#42A0F0" stroke-width="6" stroke-linecap="round"/>
<path d="M44.1852 142.771L30.5332 129.119" stroke="#42A0F0" stroke-width="6" stroke-linecap="round"/>
<path d="M44.1853 183.727L57.4103 197.379" stroke="#42A0F0" stroke-width="6" stroke-linecap="round"/>
<path d="M44.1852 183.727L30.5332 197.379" stroke="#42A0F0" stroke-width="6" stroke-linecap="round"/>
<path d="M77.4075 143.517L10.9036 181.913" stroke="#42A0F0" stroke-width="6" stroke-linecap="round"/>
<path d="M61.0742 152.768L79.5097 157.396" stroke="#42A0F0" stroke-width="6" stroke-linecap="round"/>
<path d="M61.0743 152.769L66.0713 134.12" stroke="#42A0F0" stroke-width="6" stroke-linecap="round"/>
<path d="M25.6052 173.246L20.3947 191.525" stroke="#42A0F0" stroke-width="6" stroke-linecap="round"/>
<path d="M25.6053 173.246L6.95632 168.249" stroke="#42A0F0" stroke-width="6" stroke-linecap="round"/>
<path d="M77.0393 181.913L10.5355 143.517" stroke="#42A0F0" stroke-width="6" stroke-linecap="round"/>
<path d="M60.8604 172.393L66.0708 190.672" stroke="#42A0F0" stroke-width="6" stroke-linecap="round"/>
<path d="M60.8603 172.393L79.5093 167.396" stroke="#42A0F0" stroke-width="6" stroke-linecap="round"/>
<path d="M25.3914 151.916L6.95588 156.543" stroke="#42A0F0" stroke-width="6" stroke-linecap="round"/>
<path d="M25.3913 151.916L20.3943 133.267" stroke="#42A0F0" stroke-width="6" stroke-linecap="round"/>
</g>
<defs>
<filter id="filter0_f_2_883" x="0.955078" y="0" width="222.555" height="206.792" filterUnits="userSpaceOnUse" color-interpolation-filters="sRGB">
<feFlood flood-opacity="0" result="BackgroundImageFix"/>
<feBlend mode="normal" in="SourceGraphic" in2="BackgroundImageFix" result="shape"/>
<feGaussianBlur stdDeviation="1.5" result="effect1_foregroundBlur_2_883"/>
</filter>
</defs>
</svg>
