<svg width="218" height="342" viewBox="0 0 218 342" fill="none" xmlns="http://www.w3.org/2000/svg">
<g filter="url(#filter0_f_2_25)">
<path d="M67 175C93.5097 175 115 153.51 115 127C115 100.491 93.5097 79.0005 67 79.0005C40.4903 79.0005 19 100.491 19 127C19 153.51 40.4903 175 67 175Z" fill="#FA9E42"/>
<path d="M67 185C99.0325 185 125 159.033 125 127C125 94.968 99.0325 69.0005 67 69.0005C34.9675 69.0005 9 94.968 9 127C9 159.033 34.9675 185 67 185Z" stroke="#FA9E42" stroke-width="10" stroke-linecap="round" stroke-dasharray="1 66"/>
<g filter="url(#filter1_f_2_25)">
<path d="M61.6224 117.182C78.6362 108.145 88.2605 92.9723 83.1189 83.2921C77.9773 73.6119 60.0169 73.0903 43.0031 82.127C25.9894 91.1638 16.3651 106.337 21.5067 116.017C26.6482 125.697 44.6087 126.219 61.6224 117.182Z" fill="#F8E36F"/>
</g>
</g>
<g filter="url(#filter2_df_2_25)">
<g filter="url(#filter3_d_2_25)">
<path d="M84.7538 199.054L84.7538 63.0005C84.7538 53.7179 88.4413 44.8155 95.0051 38.2518C101.569 31.688 110.471 28.0005 119.754 28.0005C129.036 28.0005 137.939 31.688 144.503 38.2518C151.066 44.8155 154.754 53.7179 154.754 63.0005L154.754 201.97C163.83 209.089 170.663 218.673 174.434 229.574C178.205 240.475 178.754 252.232 176.015 263.438C173.277 274.643 167.367 284.822 158.994 292.755C150.62 300.689 140.138 306.041 128.801 308.17C124.686 309.262 120.408 309.601 116.173 309.17C103.401 308.838 91.0689 304.437 80.9717 296.609C70.8744 288.781 63.5391 277.935 60.0336 265.649C56.5281 253.364 57.0353 240.28 61.4816 228.302C65.9278 216.325 74.0808 206.079 84.7538 199.056V199.054Z" fill="url(#paint0_linear_2_25)"/>
<path d="M58.7301 249.189C58.7301 257.029 60.2429 264.644 63.2265 271.821C66.1084 278.754 70.2414 285.005 75.5105 290.402C78.1059 293.061 80.9647 295.485 84.0077 297.609C87.0769 299.75 90.3621 301.605 93.7719 303.122C100.854 306.273 108.399 307.971 116.199 308.169L116.237 308.17L116.275 308.174C117.423 308.291 118.593 308.35 119.755 308.35C122.735 308.35 125.692 307.964 128.544 307.203L128.581 307.193L128.618 307.186C135.358 305.929 141.773 303.521 147.687 300.029C153.478 296.61 158.611 292.258 162.943 287.096C167.308 281.896 170.713 276.046 173.064 269.71C175.497 263.153 176.731 256.248 176.731 249.189C176.731 244.564 176.194 239.958 175.135 235.501C174.106 231.169 172.578 226.949 170.593 222.957C168.644 219.036 166.247 215.323 163.471 211.919C160.711 208.536 157.571 205.453 154.137 202.757L153.755 202.457V201.97L153.755 63.0001C153.755 58.4096 152.856 53.957 151.083 49.766C149.371 45.7174 146.919 42.0811 143.796 38.9583C140.673 35.8355 137.037 33.3839 132.989 31.6715C128.798 29.8988 124.345 29 119.755 29C115.164 29 110.711 29.8988 106.52 31.6715C102.472 33.3839 98.8356 35.8355 95.7128 38.9583C92.5899 42.0811 90.1383 45.7174 88.4259 49.766C86.6532 53.957 85.7544 58.4096 85.7544 63.0001L85.7544 199.055V199.593L85.3047 199.89C77.3012 205.164 70.6301 212.384 66.0127 220.769C63.6654 225.031 61.8547 229.575 60.6308 234.275C59.3696 239.117 58.7301 244.135 58.7301 249.189ZM57.7301 249.189C57.7301 228.231 68.473 209.785 84.7544 199.055L84.7544 63.0001C84.7544 43.6699 100.424 28 119.755 28C139.085 28 154.755 43.6699 154.755 63.0001L154.755 201.97C168.743 212.955 177.731 230.023 177.731 249.189C177.731 278.544 156.65 302.975 128.802 308.169C125.916 308.94 122.883 309.35 119.755 309.35C118.545 309.35 117.352 309.289 116.174 309.169C83.7553 308.344 57.7301 281.806 57.7301 249.189Z" fill="white" fill-opacity="0.5"/>
</g>
<path d="M118.13 205.581C126.93 205.427 135.578 207.887 142.98 212.648C150.382 217.409 156.206 224.258 159.716 232.33C163.225 240.401 164.263 249.332 162.697 257.993C161.131 266.653 157.031 274.655 150.917 280.986C144.804 287.317 136.95 291.693 128.349 293.561C119.748 295.428 110.786 294.703 102.598 291.478C94.4087 288.252 87.3602 282.67 82.3435 275.439C77.3268 268.207 74.5672 259.651 74.4136 250.851C74.2076 239.05 78.6977 227.651 86.8962 219.162C95.0946 210.672 106.33 205.787 118.13 205.581Z" fill="white"/>
<path d="M139.977 138.754H97.9768V211.754H139.977V138.754Z" fill="white"/>
</g>
<defs>
<filter id="filter0_f_2_25" x="2" y="62.0005" width="130" height="130" filterUnits="userSpaceOnUse" color-interpolation-filters="sRGB">
<feFlood flood-opacity="0" result="BackgroundImageFix"/>
<feBlend mode="normal" in="SourceGraphic" in2="BackgroundImageFix" result="shape"/>
<feGaussianBlur stdDeviation="1" result="effect1_foregroundBlur_2_25"/>
</filter>
<filter id="filter1_f_2_25" x="0.122314" y="55.6765" width="104.381" height="87.9563" filterUnits="userSpaceOnUse" color-interpolation-filters="sRGB">
<feFlood flood-opacity="0" result="BackgroundImageFix"/>
<feBlend mode="normal" in="SourceGraphic" in2="BackgroundImageFix" result="shape"/>
<feGaussianBlur stdDeviation="10" result="effect1_foregroundBlur_2_25"/>
</filter>
<filter id="filter2_df_2_25" x="37.73" y="0" width="180.001" height="341.351" filterUnits="userSpaceOnUse" color-interpolation-filters="sRGB">
<feFlood flood-opacity="0" result="BackgroundImageFix"/>
<feColorMatrix in="SourceAlpha" type="matrix" values="0 0 0 0 0 0 0 0 0 0 0 0 0 0 0 0 0 0 127 0" result="hardAlpha"/>
<feOffset dx="10" dy="2"/>
<feGaussianBlur stdDeviation="15"/>
<feColorMatrix type="matrix" values="0 0 0 0 0 0 0 0 0 0 0 0 0 0 0 0 0 0 0.25 0"/>
<feBlend mode="normal" in2="BackgroundImageFix" result="effect1_dropShadow_2_25"/>
<feBlend mode="normal" in="SourceGraphic" in2="effect1_dropShadow_2_25" result="shape"/>
<feGaussianBlur stdDeviation="1" result="effect2_foregroundBlur_2_25"/>
</filter>
<filter id="filter3_d_2_25" x="37.73" y="0" width="180.001" height="341.351" filterUnits="userSpaceOnUse" color-interpolation-filters="sRGB">
<feFlood flood-opacity="0" result="BackgroundImageFix"/>
<feColorMatrix in="SourceAlpha" type="matrix" values="0 0 0 0 0 0 0 0 0 0 0 0 0 0 0 0 0 0 127 0" result="hardAlpha"/>
<feOffset dx="10" dy="2"/>
<feGaussianBlur stdDeviation="15"/>
<feColorMatrix type="matrix" values="0 0 0 0 0.501961 0 0 0 0 0.501961 0 0 0 0 0.501961 0 0 0 0.302 0"/>
<feBlend mode="normal" in2="BackgroundImageFix" result="effect1_dropShadow_2_25"/>
<feBlend mode="normal" in="SourceGraphic" in2="effect1_dropShadow_2_25" result="shape"/>
</filter>
<linearGradient id="paint0_linear_2_25" x1="162.611" y1="141.948" x2="44.5626" y2="169.912" gradientUnits="userSpaceOnUse">
<stop stop-color="white" stop-opacity="0.596"/>
<stop offset="1" stop-color="#F7F7F7" stop-opacity="0.204"/>
</linearGradient>
</defs>
</svg>
