<svg width="392" height="349" viewBox="0 0 392 349" fill="none" xmlns="http://www.w3.org/2000/svg">
<g filter="url(#filter0_f_6_1638)">
<path d="M210.5 113.5C184.5 93.5 150.327 91.3988 123.171 116.562C96.0147 141.726 105 169 105 169" stroke="#9832E1" stroke-width="14.0073" stroke-linecap="round"/>
<path d="M225 111.5C209 96.9995 187.038 75.9598 145.459 88.2382C103.88 100.517 83.4997 140.813 92.4998 173" stroke="#486BF3" stroke-width="14" stroke-linecap="round" stroke-linejoin="round"/>
<path d="M239.5 109.5C214.5 72 163.096 59.7806 120.733 85.7988C78.3688 111.817 74.5001 145.5 79 174.5" stroke="#74D248" stroke-width="14.0028" stroke-linecap="round"/>
<path d="M253.974 108.219C223.959 60.5207 160.961 46.1854 113.263 76.1999C65.565 106.214 59 150 66 177" stroke="#EDF000" stroke-width="14.0056" stroke-linecap="round"/>
<path d="M267.5 110C243.5 57.9999 176.276 34.897 120.216 61.0385C64.1554 87.1799 42 135 55.5 185.5" stroke="#F18431" stroke-width="14" stroke-linecap="round"/>
<path d="M281 116C260.095 51.6603 194.027 25.1373 129.687 46.0426C65.3476 66.948 23.5946 127.16 44.4999 191.5" stroke="#DD3930" stroke-width="13" stroke-linecap="round"/>
</g>
<g filter="url(#filter1_df_6_1638)">
<g filter="url(#filter2_d_6_1638)">
<path d="M236.294 315.841C234.361 315.997 232.408 316.075 230.437 316.076H92.9131C83.4469 316.111 74.0668 314.277 65.3109 310.679C56.5551 307.081 48.5958 301.79 41.8897 295.109C35.1835 288.427 29.8624 280.488 26.2317 271.746C22.6009 263.003 20.7319 253.63 20.7319 244.164C20.7319 234.697 22.6009 225.324 26.2317 216.582C29.8624 207.839 35.1835 199.9 41.8897 193.219C48.5958 186.538 56.5551 181.246 65.3109 177.648C74.0668 174.05 83.4469 172.216 92.9131 172.251H144.189C160.813 135.676 199.1 110.076 243.673 110.076C303.5 110.076 352 156.191 352 213.076C352 269.961 303.5 316.076 243.673 316.076C241.193 316.076 238.733 315.998 236.294 315.841Z" fill="url(#paint0_linear_6_1638)"/>
<path d="M243.673 315.076C250.959 315.076 258.24 314.378 265.314 313.002C272.207 311.661 278.987 309.66 285.466 307.054C291.826 304.496 297.961 301.33 303.699 297.644C309.382 293.993 314.726 289.801 319.583 285.183C324.438 280.567 328.846 275.487 332.685 270.085C336.559 264.633 339.886 258.804 342.574 252.762C345.311 246.608 347.413 240.169 348.822 233.624C350.267 226.907 351 219.994 351 213.076C351 206.158 350.267 199.245 348.822 192.528C347.413 185.982 345.311 179.544 342.574 173.39C339.886 167.348 336.559 161.519 332.685 156.067C328.846 150.666 324.438 145.586 319.583 140.969C314.726 136.351 309.382 132.159 303.699 128.508C297.961 124.822 291.826 121.656 285.466 119.098C278.987 116.493 272.207 114.492 265.314 113.15C258.24 111.774 250.959 111.076 243.673 111.076C222.302 111.076 201.663 117.029 183.987 128.29C175.466 133.718 167.81 140.27 161.23 147.764C154.608 155.305 149.181 163.683 145.099 172.665L144.833 173.251H144.189H92.9129C83.3394 173.251 74.0527 175.126 65.3109 178.823C61.1092 180.6 57.0567 182.8 53.2657 185.361C49.5106 187.898 45.9794 190.812 42.7702 194.021C39.561 197.23 36.6474 200.761 34.1105 204.516C31.5494 208.307 29.3497 212.36 27.5725 216.562C23.875 225.303 22.0002 234.59 22.0002 244.164C22.0002 253.737 23.875 263.024 27.5725 271.766C29.3497 275.967 31.5494 280.02 34.1105 283.811C36.6474 287.566 39.561 291.097 42.7702 294.306C45.9794 297.516 49.5106 300.429 53.2657 302.966C57.0567 305.527 61.1092 307.727 65.3109 309.504C74.0527 313.201 83.3394 315.076 92.9129 315.076H230.437C232.36 315.076 234.304 314.998 236.214 314.844L236.286 314.839L236.358 314.843C238.778 314.998 241.239 315.076 243.673 315.076ZM243.673 316.076C241.193 316.076 238.733 315.997 236.295 315.841C234.364 315.997 232.408 316.076 230.437 316.076H92.9129C53.1968 316.076 21.0002 283.88 21.0002 244.164C21.0002 204.447 53.1968 172.251 92.9129 172.251H144.189C160.813 135.672 199.098 110.076 243.673 110.076C303.5 110.076 352 156.191 352 213.076C352 269.961 303.5 316.076 243.673 316.076Z" fill="white" fill-opacity="0.5"/>
</g>
</g>
<defs>
<filter id="filter0_f_6_1638" x="28.5374" y="28.5439" width="262.964" height="173.458" filterUnits="userSpaceOnUse" color-interpolation-filters="sRGB">
<feFlood flood-opacity="0" result="BackgroundImageFix"/>
<feBlend mode="normal" in="SourceGraphic" in2="BackgroundImageFix" result="shape"/>
<feGaussianBlur stdDeviation="2" result="effect1_foregroundBlur_6_1638"/>
</filter>
<filter id="filter1_df_6_1638" x="0.731934" y="82.0762" width="391.269" height="266" filterUnits="userSpaceOnUse" color-interpolation-filters="sRGB">
<feFlood flood-opacity="0" result="BackgroundImageFix"/>
<feColorMatrix in="SourceAlpha" type="matrix" values="0 0 0 0 0 0 0 0 0 0 0 0 0 0 0 0 0 0 127 0" result="hardAlpha"/>
<feOffset dx="10" dy="2"/>
<feGaussianBlur stdDeviation="15"/>
<feColorMatrix type="matrix" values="0 0 0 0 0 0 0 0 0 0 0 0 0 0 0 0 0 0 0.25 0"/>
<feBlend mode="normal" in2="BackgroundImageFix" result="effect1_dropShadow_6_1638"/>
<feBlend mode="normal" in="SourceGraphic" in2="effect1_dropShadow_6_1638" result="shape"/>
<feGaussianBlur stdDeviation="2" result="effect2_foregroundBlur_6_1638"/>
</filter>
<filter id="filter2_d_6_1638" x="0.731934" y="82.0762" width="391.269" height="266" filterUnits="userSpaceOnUse" color-interpolation-filters="sRGB">
<feFlood flood-opacity="0" result="BackgroundImageFix"/>
<feColorMatrix in="SourceAlpha" type="matrix" values="0 0 0 0 0 0 0 0 0 0 0 0 0 0 0 0 0 0 127 0" result="hardAlpha"/>
<feOffset dx="10" dy="2"/>
<feGaussianBlur stdDeviation="15"/>
<feColorMatrix type="matrix" values="0 0 0 0 0.501961 0 0 0 0 0.501961 0 0 0 0 0.501961 0 0 0 0.302 0"/>
<feBlend mode="normal" in2="BackgroundImageFix" result="effect1_dropShadow_6_1638"/>
<feBlend mode="normal" in="SourceGraphic" in2="effect1_dropShadow_6_1638" result="shape"/>
</filter>
<linearGradient id="paint0_linear_6_1638" x1="154.896" y1="136.032" x2="220.938" y2="327.244" gradientUnits="userSpaceOnUse">
<stop stop-color="white" stop-opacity="0.596"/>
<stop offset="1" stop-color="#F7F7F7" stop-opacity="0.204"/>
</linearGradient>
</defs>
</svg>
